FontWithASyntaxHighlighter-LightWideItalic.ufo
<glyph name="quotedbl" format="2">
  <advance width="1555"/>
  <unicode hex="0022"/>
  <outline>
    <contour>
      <point x="605" y="820" type="line"/>
      <point x="743" y="1460" type="line"/>
      <point x="617" y="1460" type="line"/>
      <point x="507" y="820" type="line"/>
    </contour>
    <contour>
      <point x="1174" y="820" type="line"/>
      <point x="1312" y="1460" type="line"/>
      <point x="1186" y="1460" type="line"/>
      <point x="1076" y="820" type="line"/>
    </contour>
  </outline>
</glyph>
<glyph name="dollar" format="2">
  <advance width="1555"/>
  <unicode hex="0024"/>
  <outline>
    <contour>
      <point x="654" y="29" type="line"/>
      <point x="587" y="-315" type="line"/>
      <point x="697" y="-315" type="line"/>
      <point x="764" y="29" type="line"/>
    </contour>
    <contour>
      <point x="1036" y="1430" type="line"/>
      <point x="1103" y="1775" type="line"/>
      <point x="993" y="1775" type="line"/>
      <point x="926" y="1430" type="line"/>
    </contour>
    <contour>
      <point x="758" y="6" type="line"/>
      <point x="1039" y="1453" type="line"/>
      <point x="931" y="1453" type="line"/>
      <point x="650" y="6" type="line"/>
    </contour>
    <contour>
      <point x="1544" y="1114" type="line"/>
      <point x="1549" y="1401"/>
      <point x="1308" y="1484"/>
      <point x="999" y="1484" type="curve" smooth="yes"/>
      <point x="617" y="1484"/>
      <point x="341" y="1384"/>
      <point x="291" y="1126" type="curve" smooth="yes"/>
      <point x="245" y="891"/>
      <point x="439" y="764"/>
      <point x="779" y="705" type="curve" smooth="yes"/>
      <point x="1125" y="645"/>
      <point x="1309" y="584"/>
      <point x="1269" y="382" type="curve" smooth="yes"/>
      <point x="1229" y="174"/>
      <point x="1007" y="89"/>
      <point x="695" y="89" type="curve" smooth="yes"/>
      <point x="384" y="89"/>
      <point x="220" y="186"/>
      <point x="214" y="414" type="curve"/>
      <point x="80" y="404" type="line"/>
      <point x="74" y="171"/>
      <point x="230" y="-24"/>
      <point x="673" y="-24" type="curve" smooth="yes"/>
      <point x="1117" y="-24"/>
      <point x="1359" y="149"/>
      <point x="1404" y="379" type="curve" smooth="yes"/>
      <point x="1453" y="633"/>
      <point x="1273" y="738"/>
      <point x="876" y="811" type="curve" smooth="yes"/>
      <point x="502" y="880"/>
      <point x="392" y="974"/>
      <point x="421" y="1123" type="curve" smooth="yes"/>
      <point x="456" y="1303"/>
      <point x="664" y="1371"/>
      <point x="966" y="1371" type="curve" smooth="yes"/>
      <point x="1249" y="1371"/>
      <point x="1397" y="1293"/>
      <point x="1411" y="1104" type="curve"/>
    </contour>
  </outline>
</glyph>
<glyph name="comma" format="2">
  <advance width="1555"/>
  <unicode hex="002C"/>
  <outline>
    <contour>
      <point x="687" y="-32" type="curve" smooth="yes"/>
      <point x="709" y="-32"/>
      <point x="735" y="-29"/>
      <point x="767" y="-17" type="curve"/>
      <point x="751" y="5" type="line"/>
      <point x="704" y="-118"/>
      <point x="603" y="-233"/>
      <point x="452" y="-358" type="curve"/>
      <point x="511" y="-418" type="line"/>
      <point x="676" y="-293"/>
      <point x="840" y="-112"/>
      <point x="876" y="71" type="curve" smooth="yes"/>
      <point x="904" y="216"/>
      <point x="835" y="279"/>
      <point x="741" y="279" type="curve" smooth="yes"/>
      <point x="654" y="279"/>
      <point x="573" y="225"/>
      <point x="553" y="125" type="curve" smooth="yes"/>
      <point x="535" y="29"/>
      <point x="588" y="-32"/>
    </contour>
  </outline>
</glyph>
<glyph name="hyphen" format="2">
  <advance width="1555"/>
  <unicode hex="002D"/>
  <outline>
    <contour>
      <point x="268" y="591" type="line"/>
      <point x="1323" y="591" type="line"/>
      <point x="1344" y="701" type="line"/>
      <point x="289" y="701" type="line"/>
    </contour>
  </outline>
</glyph>
<glyph name="two" format="2">
  <advance width="1555"/>
  <unicode hex="0032"/>
  <outline>
    <contour>
      <point x="128" y="0" type="line"/>
      <point x="1276" y="0" type="line"/>
      <point x="1297" y="110" type="line"/>
      <point x="194" y="110" type="line"/>
      <point x="192" y="70" type="line"/>
      <point x="1372" y="855" type="line"/>
      <point x="1448" y="1244" type="line"/>
      <point x="1140" y="1460" type="line"/>
      <point x="409" y="1460" type="line"/>
      <point x="367" y="1350" type="line"/>
      <point x="1058" y="1350" type="line"/>
      <point x="1311" y="1190" type="line"/>
      <point x="1257" y="913" type="line"/>
      <point x="105" y="140" type="line"/>
    </contour>
  </outline>
</glyph>
<glyph name="F" format="2">
  <advance width="1555"/>
  <unicode hex="0046"/>
  <outline>
    <contour>
      <point x="186" y="0" type="line"/>
      <point x="312" y="0" type="line"/>
      <point x="596" y="1460" type="line"/>
      <point x="470" y="1460" type="line"/>
    </contour>
    <contour>
      <point x="393" y="627" type="line"/>
      <point x="1173" y="627" type="line"/>
      <point x="1192" y="726" type="line"/>
      <point x="412" y="726" type="line"/>
    </contour>
    <contour>
      <point x="535" y="1360" type="line"/>
      <point x="1532" y="1360" type="line"/>
      <point x="1532" y="1460" type="line"/>
      <point x="555" y="1460" type="line"/>
    </contour>
  </outline>
</glyph>
<glyph name="H" format="2">
  <advance width="1555"/>
  <unicode hex="0048"/>
  <outline>
    <contour>
      <point x="1099" y="0" type="line"/>
      <point x="1225" y="0" type="line"/>
      <point x="1509" y="1460" type="line"/>
      <point x="1383" y="1460" type="line"/>
    </contour>
    <contour>
      <point x="137" y="0" type="line"/>
      <point x="263" y="0" type="line"/>
      <point x="547" y="1460" type="line"/>
      <point x="421" y="1460" type="line"/>
    </contour>
    <contour>
      <point x="344" y="709" type="line"/>
      <point x="1298" y="709" type="line"/>
      <point x="1317" y="810" type="line"/>
      <point x="363" y="810" type="line"/>
    </contour>
  </outline>
</glyph>
<glyph name="N" format="2">
  <advance width="1555"/>
  <unicode hex="004E"/>
  <outline>
    <contour>
      <point x="137" y="0" type="line"/>
      <point x="257" y="0" type="line"/>
      <point x="503" y="1266" type="line"/>
      <point x="515" y="1266" type="line"/>
      <point x="1094" y="1" type="line"/>
      <point x="1225" y="1" type="line"/>
      <point x="1509" y="1461" type="line"/>
      <point x="1389" y="1461" type="line"/>
      <point x="1147" y="214" type="line"/>
      <point x="1135" y="214" type="line"/>
      <point x="554" y="1460" type="line"/>
      <point x="421" y="1460" type="line"/>
    </contour>
  </outline>
</glyph>
<glyph name="T" format="2">
  <advance width="1555"/>
  <unicode hex="0054"/>
  <outline>
    <contour>
      <point x="607" y="0" type="line"/>
      <point x="733" y="0" type="line"/>
      <point x="1017" y="1460" type="line"/>
      <point x="891" y="1460" type="line"/>
    </contour>
    <contour>
      <point x="339" y="1350" type="line"/>
      <point x="1545" y="1350" type="line"/>
      <point x="1552" y="1460" type="line"/>
      <point x="376" y="1460" type="line"/>
    </contour>
  </outline>
</glyph>
<glyph name="V" format="2">
  <advance width="1555"/>
  <unicode hex="0056"/>
  <outline>
    <contour>
      <point x="608" y="0" type="line"/>
      <point x="754" y="0" type="line"/>
      <point x="1375" y="739" type="line"/>
      <point x="1515" y="1460" type="line"/>
      <point x="1389" y="1460" type="line"/>
      <point x="1256" y="775" type="line"/>
      <point x="673" y="80" type="line"/>
      <point x="707" y="80" type="line"/>
      <point x="405" y="761" type="line"/>
      <point x="541" y="1460" type="line"/>
      <point x="415" y="1460" type="line"/>
      <point x="275" y="739" type="line"/>
    </contour>
  </outline>
</glyph>
<glyph name="backslash" format="2">
  <advance width="1555"/>
  <unicode hex="005C"/>
  <outline>
    <contour>
      <point x="1045" y="-200" type="line"/>
      <point x="1164" y="-200" type="line"/>
      <point x="641" y="1460" type="line"/>
      <point x="522" y="1460" type="line"/>
    </contour>
  </outline>
</glyph>
<glyph name="asciicircum" format="2">
  <advance width="1555"/>
  <unicode hex="005E"/>
  <outline>
    <contour>
      <point x="246" y="762" type="line"/>
      <point x="333" y="699" type="line"/>
      <point x="953" y="1393" type="line"/>
      <point x="967" y="1393" type="line"/>
      <point x="1317" y="699" type="line"/>
      <point x="1410" y="762" type="line"/>
      <point x="1023" y="1530" type="line"/>
      <point x="932" y="1530" type="line"/>
    </contour>
  </outline>
</glyph>
<glyph name="grave" format="2">
  <advance width="1555"/>
  <unicode hex="0060"/>
  <outline>
    <contour>
      <point x="871" y="1274" type="line"/>
      <point x="990" y="1274" type="line"/>
      <point x="780" y="1597" type="line"/>
      <point x="627" y="1597" type="line"/>
    </contour>
  </outline>
</glyph>
<glyph name="a" format="2">
  <advance width="1555"/>
  <unicode hex="0061"/>
  <outline>
    <contour>
      <point x="1147" y="0" type="line"/>
      <point x="1223" y="0" type="line"/>
      <point x="1379" y="802" type="line"/>
      <point x="1211" y="1000" type="line"/>
      <point x="419" y="1000" type="line"/>
      <point x="380" y="902" type="line"/>
      <point x="1137" y="902" type="line"/>
      <point x="1257" y="772" type="line"/>
      <point x="1141" y="176" type="line"/>
    </contour>
    <contour>
      <point x="444" y="-23" type="line"/>
      <point x="1186" y="154" type="line"/>
      <point x="1202" y="236" type="line"/>
      <point x="494" y="83" type="line"/>
      <point x="233" y="260" type="line"/>
      <point x="251" y="355" type="line"/>
      <point x="545" y="486" type="line"/>
      <point x="1250" y="486" type="line"/>
      <point x="1270" y="586" type="line"/>
      <point x="526" y="586" type="line"/>
      <point x="153" y="415" type="line"/>
      <point x="114" y="217" type="line"/>
    </contour>
  </outline>
</glyph>
<glyph name="c" format="2">
  <advance width="1555"/>
  <unicode hex="0063"/>
  <outline>
    <contour>
      <point x="517" y="0" type="line"/>
      <point x="1236" y="0" type="line"/>
      <point x="1282" y="98" type="line"/>
      <point x="582" y="98" type="line"/>
      <point x="257" y="377" type="line"/>
      <point x="304" y="615" type="line"/>
      <point x="746" y="902" type="line"/>
      <point x="1438" y="902" type="line"/>
      <point x="1430" y="1000" type="line"/>
      <point x="711" y="1000" type="line"/>
      <point x="197" y="662" type="line"/>
      <point x="134" y="339" type="line"/>
    </contour>
  </outline>
</glyph>
<glyph name="s" format="2">
  <advance width="1555"/>
  <unicode hex="0073"/>
  <outline>
    <contour>
      <point x="143" y="0" type="line"/>
      <point x="1031" y="0" type="line"/>
      <point x="1278" y="209" type="line"/>
      <point x="1309" y="372" type="line"/>
      <point x="388" y="695" type="line"/>
      <point x="399" y="752" type="line"/>
      <point x="579" y="902" type="line"/>
      <point x="1400" y="902" type="line"/>
      <point x="1399" y="1000" type="line"/>
      <point x="541" y="1000" type="line"/>
      <point x="295" y="791" type="line"/>
      <point x="265" y="637" type="line"/>
      <point x="1186" y="314" type="line"/>
      <point x="1173" y="249" type="line"/>
      <point x="993" y="98" type="line"/>
      <point x="142" y="98" type="line"/>
    </contour>
  </outline>
</glyph>
<glyph name="asciitilde" format="2">
  <advance width="1555"/>
  <unicode hex="007E"/>
  <outline>
    <contour>
      <point x="1018" y="440" type="curve" smooth="yes"/>
      <point x="1159" y="440"/>
      <point x="1293" y="530"/>
      <point x="1375" y="809" type="curve"/>
      <point x="1260" y="823" type="line"/>
      <point x="1194" y="625"/>
      <point x="1126" y="556"/>
      <point x="1034" y="556" type="curve" smooth="yes"/>
      <point x="845" y="556"/>
      <point x="849" y="850"/>
      <point x="595" y="850" type="curve" smooth="yes"/>
      <point x="454" y="850"/>
      <point x="319" y="760"/>
      <point x="236" y="481" type="curve"/>
      <point x="352" y="467" type="line"/>
      <point x="417" y="665"/>
      <point x="487" y="734"/>
      <point x="579" y="734" type="curve" smooth="yes"/>
      <point x="769" y="734"/>
      <point x="763" y="440"/>
    </contour>
  </outline>
</glyph>
<glyph name="exclamdown" format="2">
  <advance width="1555"/>
  <unicode hex="00A1"/>
  <outline>
    <contour>
      <point x="716" y="451" type="line"/>
      <point x="527" y="-459" type="line"/>
      <point x="657" y="-459" type="line"/>
      <point x="820" y="451" type="line"/>
    </contour>
    <contour>
      <point x="877" y="1025" type="curve" smooth="yes"/>
      <point x="806" y="1025"/>
      <point x="745" y="982"/>
      <point x="730" y="904" type="curve" smooth="yes"/>
      <point x="715" y="825"/>
      <point x="764" y="777"/>
      <point x="836" y="777" type="curve" smooth="yes"/>
      <point x="906" y="777"/>
      <point x="967" y="818"/>
      <point x="982" y="898" type="curve" smooth="yes"/>
      <point x="997" y="975"/>
      <point x="948" y="1025"/>
    </contour>
  </outline>
</glyph>
<glyph name="cent" format="2">
  <advance width="1555"/>
  <unicode hex="00A2"/>
  <outline>
    <contour>
      <point x="625" y="250" type="line"/>
      <point x="511" y="-109" type="line"/>
      <point x="633" y="-109" type="line"/>
      <point x="747" y="250" type="line"/>
    </contour>
    <contour>
      <point x="1179" y="483" type="line"/>
      <point x="1104" y="360"/>
      <point x="948" y="288"/>
      <point x="756" y="288" type="curve" smooth="yes"/>
      <point x="488" y="288"/>
      <point x="362" y="427"/>
      <point x="405" y="648" type="curve" smooth="yes"/>
      <point x="448" y="869"/>
      <point x="628" y="1007"/>
      <point x="903" y="1007" type="curve" smooth="yes"/>
      <point x="1098" y="1007"/>
      <point x="1217" y="935"/>
      <point x="1243" y="812" type="curve"/>
      <point x="1383" y="837" type="line"/>
      <point x="1356" y="1012"/>
      <point x="1182" y="1119"/>
      <point x="919" y="1119" type="curve" smooth="yes"/>
      <point x="567" y="1119"/>
      <point x="315" y="945"/>
      <point x="259" y="659" type="curve" smooth="yes"/>
      <point x="204" y="373"/>
      <point x="389" y="176"/>
      <point x="734" y="176" type="curve" smooth="yes"/>
      <point x="993" y="176"/>
      <point x="1212" y="283"/>
      <point x="1308" y="458" type="curve"/>
    </contour>
    <contour>
      <point x="1000" y="1047" type="line"/>
      <point x="1113" y="1403" type="line"/>
      <point x="991" y="1403" type="line"/>
      <point x="878" y="1047" type="line"/>
    </contour>
    <contour>
      <point x="737" y="228" type="line"/>
      <point x="1002" y="1069" type="line"/>
      <point x="887" y="1069" type="line"/>
      <point x="622" y="228" type="line"/>
    </contour>
  </outline>
</glyph>
<glyph name="currency" format="2">
  <advance width="1555"/>
  <unicode hex="00A4"/>
  <outline>
    <contour>
      <point x="730" y="209" type="curve" smooth="yes"/>
      <point x="1014" y="209"/>
      <point x="1233" y="385"/>
      <point x="1282" y="638" type="curve" smooth="yes"/>
      <point x="1331" y="891"/>
      <point x="1164" y="1084"/>
      <point x="880" y="1084" type="curve" smooth="yes"/>
      <point x="597" y="1084"/>
      <point x="377" y="911"/>
      <point x="328" y="658" type="curve" smooth="yes"/>
      <point x="279" y="405"/>
      <point x="447" y="209"/>
    </contour>
    <contour>
      <point x="741" y="321" type="curve" smooth="yes"/>
      <point x="524" y="321"/>
      <point x="419" y="459"/>
      <point x="456" y="648" type="curve" smooth="yes"/>
      <point x="493" y="837"/>
      <point x="651" y="974"/>
      <point x="868" y="974" type="curve" smooth="yes"/>
      <point x="1085" y="974"/>
      <point x="1194" y="837"/>
      <point x="1157" y="648" type="curve" smooth="yes"/>
      <point x="1120" y="459"/>
      <point x="958" y="321"/>
    </contour>
    <contour>
      <point x="1008" y="339" type="line"/>
      <point x="1184" y="132" type="line"/>
      <point x="1299" y="219" type="line"/>
      <point x="1116" y="421" type="line"/>
    </contour>
    <contour>
      <point x="1198" y="866" type="line"/>
      <point x="1465" y="1073" type="line"/>
      <point x="1383" y="1160" type="line"/>
      <point x="1121" y="950" type="line"/>
    </contour>
    <contour>
      <point x="311" y="1073" type="line"/>
      <point x="493" y="871" type="line"/>
      <point x="601" y="954" type="line"/>
      <point x="425" y="1160" type="line"/>
    </contour>
    <contour>
      <point x="226" y="132" type="line"/>
      <point x="488" y="342" type="line"/>
      <point x="411" y="426" type="line"/>
      <point x="145" y="219" type="line"/>
    </contour>
  </outline>
</glyph>
<glyph name="yen" format="2">
  <advance width="1555"/>
  <unicode hex="00A5"/>
  <outline>
    <contour>
      <point x="1182" y="259" type="line"/>
      <point x="1204" y="368" type="line"/>
      <point x="239" y="368" type="line"/>
      <point x="217" y="259" type="line"/>
    </contour>
    <contour>
      <point x="1250" y="606" type="line"/>
      <point x="1271" y="715" type="line"/>
      <point x="306" y="715" type="line"/>
      <point x="285" y="606" type="line"/>
    </contour>
    <contour>
      <point x="712" y="0" type="line"/>
      <point x="855" y="736" type="line"/>
      <point x="729" y="736" type="line"/>
      <point x="586" y="0" type="line"/>
    </contour>
    <contour>
      <point x="285" y="1460" type="line"/>
      <point x="724" y="647" type="line"/>
      <point x="826" y="647" type="line"/>
      <point x="1581" y="1460" type="line"/>
      <point x="1433" y="1460" type="line"/>
      <point x="805" y="776" type="line"/>
      <point x="797" y="776" type="line"/>
      <point x="431" y="1460" type="line"/>
    </contour>
  </outline>
</glyph>
<glyph name="brokenbar" format="2">
  <advance width="1555"/>
  <unicode hex="00A6"/>
  <outline>
    <contour>
      <point x="887" y="739" type="line"/>
      <point x="1054" y="1602" type="line"/>
      <point x="928" y="1602" type="line"/>
      <point x="761" y="739" type="line"/>
    </contour>
    <contour>
      <point x="665" y="-400" type="line"/>
      <point x="833" y="463" type="line"/>
      <point x="707" y="463" type="line"/>
      <point x="539" y="-400" type="line"/>
    </contour>
  </outline>
</glyph>
<glyph name="dieresis" format="2">
  <advance width="1555"/>
  <unicode hex="00A8"/>
  <outline>
    <contour>
      <point x="622" y="1276" type="line"/>
      <point x="784" y="1406" type="line"/>
      <point x="673" y="1536" type="line"/>
      <point x="510" y="1406" type="line"/>
    </contour>
    <contour>
      <point x="1234" y="1276" type="line"/>
      <point x="1396" y="1406" type="line"/>
      <point x="1285" y="1536" type="line"/>
      <point x="1122" y="1406" type="line"/>
    </contour>
  </outline>
</glyph>
<glyph name="copyright" format="2">
  <advance width="1555"/>
  <unicode hex="00A9"/>
  <outline>
    <contour>
      <point x="654" y="730" type="curve" smooth="yes"/>
      <point x="690" y="911"/>
      <point x="782" y="994"/>
      <point x="887" y="994" type="curve" smooth="yes"/>
      <point x="979" y="994"/>
      <point x="1020" y="926"/>
      <point x="1016" y="833" type="curve"/>
      <point x="1124" y="843" type="line"/>
      <point x="1131" y="999"/>
      <point x="1054" y="1095"/>
      <point x="901" y="1095" type="curve" smooth="yes"/>
      <point x="725" y="1095"/>
      <point x="594" y="966"/>
      <point x="548" y="730" type="curve" smooth="yes"/>
      <point x="503" y="497"/>
      <point x="583" y="367"/>
      <point x="759" y="367" type="curve" smooth="yes"/>
      <point x="912" y="367"/>
      <point x="1027" y="463"/>
      <point x="1080" y="619" type="curve"/>
      <point x="972" y="628" type="line"/>
      <point x="941" y="536"/>
      <point x="877" y="467"/>
      <point x="785" y="467" type="curve" smooth="yes"/>
      <point x="680" y="467"/>
      <point x="618" y="552"/>
    </contour>
    <contour>
      <point x="1479" y="723" type="curve" smooth="yes"/>
      <point x="1571" y="1197"/>
      <point x="1331" y="1484"/>
      <point x="958" y="1484" type="curve" smooth="yes"/>
      <point x="585" y="1484"/>
      <point x="259" y="1215"/>
      <point x="167" y="741" type="curve" smooth="yes"/>
      <point x="74" y="263"/>
      <point x="312" y="-24"/>
      <point x="685" y="-24" type="curve" smooth="yes"/>
      <point x="1058" y="-24"/>
      <point x="1386" y="245"/>
    </contour>
    <contour>
      <point x="1408" y="732" type="curve" smooth="yes"/>
      <point x="1321" y="284"/>
      <point x="1017" y="41"/>
      <point x="688" y="41" type="curve" smooth="yes"/>
      <point x="362" y="41"/>
      <point x="150" y="284"/>
      <point x="237" y="732" type="curve" smooth="yes"/>
      <point x="324" y="1177"/>
      <point x="630" y="1419"/>
      <point x="956" y="1419" type="curve" smooth="yes"/>
      <point x="1285" y="1419"/>
      <point x="1495" y="1177"/>
    </contour>
  </outline>
</glyph>
<glyph name="logicalnot" format="2">
  <advance width="1555"/>
  <unicode hex="00AC"/>
  <outline>
    <contour>
      <point x="287" y="691" type="line"/>
      <point x="1342" y="691" type="line"/>
      <point x="1364" y="801" type="line"/>
      <point x="309" y="801" type="line"/>
    </contour>
    <contour>
      <point x="1244" y="801" type="line"/>
      <point x="1142" y="279" type="line"/>
      <point x="1262" y="279" type="line"/>
      <point x="1364" y="801" type="line"/>
    </contour>
  </outline>
</glyph>
<glyph name="macron" format="2">
  <advance width="1555"/>
  <unicode hex="00AF"/>
  <outline>
    <contour>
      <point x="526" y="1339" type="line"/>
      <point x="1355" y="1339" type="line"/>
      <point x="1375" y="1439" type="line"/>
      <point x="546" y="1439" type="line"/>
    </contour>
  </outline>
</glyph>
<glyph name="plusminus" format="2">
  <advance width="1555"/>
  <unicode hex="00B1"/>
  <outline>
    <contour>
      <point x="337" y="945" type="line"/>
      <point x="1392" y="945" type="line"/>
      <point x="1413" y="1055" type="line"/>
      <point x="358" y="1055" type="line"/>
    </contour>
    <contour>
      <point x="899" y="1429" type="line"/>
      <point x="732" y="572" type="line"/>
      <point x="852" y="572" type="line"/>
      <point x="1019" y="1429" type="line"/>
    </contour>
    <contour>
      <point x="192" y="203" type="line"/>
      <point x="1247" y="203" type="line"/>
      <point x="1269" y="313" type="line"/>
      <point x="214" y="313" type="line"/>
    </contour>
  </outline>
</glyph>
<glyph name="micro" format="2">
  <advance width="1555"/>
  <unicode hex="00B5"/>
  <outline>
    <contour>
      <point x="1188" y="321" type="line"/>
      <point x="1193" y="307" type="line"/>
      <point x="1133" y="0" type="line"/>
      <point x="1250" y="0" type="line"/>
      <point x="1444" y="1000" type="line"/>
      <point x="1320" y="1000" type="line"/>
    </contour>
    <contour>
      <point x="157" y="-400" type="line"/>
      <point x="279" y="228" type="line"/>
      <point x="198" y="241" type="line"/>
      <point x="209" y="96"/>
      <point x="311" y="-23"/>
      <point x="564" y="-23" type="curve" smooth="yes"/>
      <point x="828" y="-23"/>
      <point x="1035" y="107"/>
      <point x="1170" y="220" type="curve"/>
      <point x="1210" y="220" type="line"/>
      <point x="1210" y="363" type="line"/>
      <point x="1064" y="214"/>
      <point x="856" y="83"/>
      <point x="618" y="83" type="curve" smooth="yes"/>
      <point x="439" y="83"/>
      <point x="266" y="158"/>
      <point x="318" y="429" type="curve" smooth="yes"/>
      <point x="429" y="1000" type="line"/>
      <point x="305" y="1000" type="line"/>
      <point x="33" y="-400" type="line"/>
    </contour>
  </outline>
</glyph>
<glyph name="cedilla" format="2">
  <advance width="1555"/>
  <unicode hex="00B8"/>
  <outline>
    <contour>
      <point x="416" y="-565" type="line"/>
      <point x="660" y="-565" type="line"/>
      <point x="878" y="-455" type="line"/>
      <point x="912" y="-279" type="line"/>
      <point x="736" y="-169" type="line"/>
      <point x="658" y="-169" type="line"/>
      <point x="673" y="-191" type="line"/>
      <point x="719" y="48" type="line"/>
      <point x="625" y="48" type="line"/>
      <point x="566" y="-259" type="line"/>
      <point x="692" y="-259" type="line"/>
      <point x="814" y="-329" type="line"/>
      <point x="799" y="-405" type="line"/>
      <point x="650" y="-475" type="line"/>
      <point x="434" y="-475" type="line"/>
    </contour>
  </outline>
</glyph>
<glyph name="ordmasculine" format="2">
  <advance width="1555"/>
  <unicode hex="00BA"/>
  <outline>
    <contour>
      <point x="1222" y="1225" type="curve" smooth="yes"/>
      <point x="1264" y="1439"/>
      <point x="1105" y="1554"/>
      <point x="896" y="1554" type="curve" smooth="yes"/>
      <point x="686" y="1554"/>
      <point x="498" y="1451"/>
      <point x="456" y="1237" type="curve" smooth="yes"/>
      <point x="415" y="1022"/>
      <point x="573" y="911"/>
      <point x="783" y="911" type="curve" smooth="yes"/>
      <point x="992" y="911"/>
      <point x="1180" y="1010"/>
    </contour>
    <contour>
      <point x="1107" y="1231" type="curve" smooth="yes"/>
      <point x="1078" y="1078"/>
      <point x="949" y="1001"/>
      <point x="795" y="1001" type="curve" smooth="yes"/>
      <point x="641" y="1001"/>
      <point x="541" y="1077"/>
      <point x="571" y="1231" type="curve" smooth="yes"/>
      <point x="601" y="1385"/>
      <point x="730" y="1463"/>
      <point x="884" y="1463" type="curve" smooth="yes"/>
      <point x="1038" y="1463"/>
      <point x="1137" y="1385"/>
    </contour>
  </outline>
</glyph>
<glyph name="onequarter" format="2">
  <advance width="1555"/>
  <unicode hex="00BC"/>
  <outline>
    <contour>
      <point x="360" y="1364" type="curve"/>
      <point x="341" y="1267" type="line"/>
      <point x="437" y="1267"/>
      <point x="578" y="1370"/>
      <point x="596" y="1460" type="curve"/>
      <point x="524" y="1460" type="line"/>
      <point x="504" y="1404"/>
      <point x="407" y="1364"/>
    </contour>
    <contour>
      <point x="514" y="905" type="line"/>
      <point x="622" y="1460" type="line"/>
      <point x="524" y="1460" type="line"/>
      <point x="416" y="905" type="line"/>
    </contour>
    <contour>
      <point x="255" y="905" type="line"/>
      <point x="678" y="905" type="line"/>
      <point x="693" y="985" type="line"/>
      <point x="270" y="985" type="line"/>
    </contour>
    <contour>
      <point x="1339" y="1214" type="line"/>
      <point x="247" y="300" type="line"/>
      <point x="304" y="230" type="line"/>
      <point x="1395" y="1144" type="line"/>
    </contour>
    <contour>
      <point x="1100" y="0" type="line"/>
      <point x="1208" y="555" type="line"/>
      <point x="1106" y="555" type="line"/>
      <point x="750" y="220" type="line"/>
      <point x="734" y="141" type="line"/>
      <point x="1200" y="141" type="line"/>
      <point x="1216" y="220" type="line"/>
      <point x="1106" y="220" type="line"/>
      <point x="1082" y="210" type="line"/>
      <point x="806" y="210" type="line"/>
      <point x="826" y="197" type="line"/>
      <point x="1123" y="469" type="line"/>
      <point x="1096" y="473" type="line"/>
      <point x="1004" y="0" type="line"/>
    </contour>
  </outline>
</glyph>
<glyph name="Aring" format="2">
  <advance width="1555"/>
  <unicode hex="00C5"/>
  <outline>
    <contour>
      <point x="137" y="0" type="line"/>
      <point x="269" y="0" type="line"/>
      <point x="429" y="821" type="line"/>
      <point x="975" y="1380" type="line"/>
      <point x="935" y="1380" type="line"/>
      <point x="1265" y="825" type="line"/>
      <point x="1105" y="0" type="line"/>
      <point x="1225" y="0" type="line"/>
      <point x="1392" y="861" type="line"/>
      <point x="1038" y="1460" type="line"/>
      <point x="892" y="1460" type="line"/>
      <point x="304" y="861" type="line"/>
    </contour>
    <contour>
      <point x="303" y="449" type="line"/>
      <point x="1228" y="449" type="line"/>
      <point x="1248" y="552" type="line"/>
      <point x="323" y="552" type="line"/>
    </contour>
    <contour>
      <point x="876" y="1453" type="line"/>
      <point x="1050" y="1453" type="line"/>
      <point x="1221" y="1610" type="line"/>
      <point x="1247" y="1744" type="line"/>
      <point x="1137" y="1900" type="line"/>
      <point x="963" y="1900" type="line"/>
      <point x="793" y="1743" type="line"/>
      <point x="767" y="1609" type="line"/>
    </contour>
    <contour>
      <point x="868" y="1647" type="line"/>
      <point x="880" y="1706" type="line"/>
      <point x="993" y="1812" type="line"/>
      <point x="1073" y="1812" type="line"/>
      <point x="1146" y="1706" type="line"/>
      <point x="1134" y="1647" type="line"/>
      <point x="1021" y="1541" type="line"/>
      <point x="941" y="1541" type="line"/>
    </contour>
  </outline>
</glyph>
<glyph name="Eacute" format="2">
  <advance width="1555"/>
  <unicode hex="00C9"/>
  <outline>
    <contour>
      <point x="319" y="0" type="line"/>
      <point x="603" y="1460" type="line"/>
      <point x="477" y="1460" type="line"/>
      <point x="193" y="0" type="line"/>
    </contour>
    <contour>
      <point x="1262" y="110" type="line"/>
      <point x="299" y="110" type="line"/>
      <point x="278" y="0" type="line"/>
      <point x="1221" y="0" type="line"/>
    </contour>
    <contour>
      <point x="1195" y="779" type="line"/>
      <point x="429" y="779" type="line"/>
      <point x="409" y="674" type="line"/>
      <point x="1175" y="674" type="line"/>
    </contour>
    <contour>
      <point x="1463" y="1350" type="line"/>
      <point x="1465" y="1460" type="line"/>
      <point x="562" y="1460" type="line"/>
      <point x="540" y="1350" type="line"/>
    </contour>
    <contour>
      <point x="1088" y="1652" type="line"/>
      <point x="969" y="1652" type="line"/>
      <point x="1286" y="1884" type="line"/>
      <point x="1439" y="1884" type="line"/>
    </contour>
  </outline>
</glyph>
<glyph name="Icircumflex" format="2">
  <advance width="1555"/>
  <unicode hex="00CE"/>
  <outline>
    <contour>
      <point x="608" y="0" type="line"/>
      <point x="734" y="0" type="line"/>
      <point x="1018" y="1460" type="line"/>
      <point x="892" y="1460" type="line"/>
    </contour>
    <contour>
      <point x="131" y="0" type="line"/>
      <point x="1231" y="0" type="line"/>
      <point x="1272" y="110" type="line"/>
      <point x="132" y="110" type="line"/>
    </contour>
    <contour>
      <point x="373" y="1350" type="line"/>
      <point x="1513" y="1350" type="line"/>
      <point x="1515" y="1460" type="line"/>
      <point x="415" y="1460" type="line"/>
    </contour>
    <contour>
      <point x="611" y="1650" type="line"/>
      <point x="758" y="1650" type="line"/>
      <point x="1073" y="1859" type="line"/>
      <point x="1011" y="1859" type="line"/>
      <point x="1247" y="1650" type="line"/>
      <point x="1394" y="1650" type="line"/>
      <point x="1125" y="1883" type="line"/>
      <point x="969" y="1883" type="line"/>
    </contour>
  </outline>
</glyph>
<glyph name="Idieresis" format="2">
  <advance width="1555"/>
  <unicode hex="00CF"/>
  <outline>
    <contour>
      <point x="608" y="0" type="line"/>
      <point x="734" y="0" type="line"/>
      <point x="1018" y="1460" type="line"/>
      <point x="892" y="1460" type="line"/>
    </contour>
    <contour>
      <point x="131" y="0" type="line"/>
      <point x="1231" y="0" type="line"/>
      <point x="1272" y="110" type="line"/>
      <point x="132" y="110" type="line"/>
    </contour>
    <contour>
      <point x="373" y="1350" type="line"/>
      <point x="1513" y="1350" type="line"/>
      <point x="1515" y="1460" type="line"/>
      <point x="415" y="1460" type="line"/>
    </contour>
    <contour>
      <point x="692" y="1626" type="line"/>
      <point x="854" y="1756" type="line"/>
      <point x="743" y="1886" type="line"/>
      <point x="580" y="1756" type="line"/>
    </contour>
    <contour>
      <point x="1304" y="1626" type="line"/>
      <point x="1466" y="1756" type="line"/>
      <point x="1355" y="1886" type="line"/>
      <point x="1192" y="1756" type="line"/>
    </contour>
  </outline>
</glyph>
<glyph name="Ntilde" format="2">
  <advance width="1555"/>
  <unicode hex="00D1"/>
  <outline>
    <contour>
      <point x="137" y="0" type="line"/>
      <point x="257" y="0" type="line"/>
      <point x="503" y="1266" type="line"/>
      <point x="515" y="1266" type="line"/>
      <point x="1094" y="1" type="line"/>
      <point x="1225" y="1" type="line"/>
      <point x="1509" y="1461" type="line"/>
      <point x="1389" y="1461" type="line"/>
      <point x="1147" y="214" type="line"/>
      <point x="1135" y="214" type="line"/>
      <point x="554" y="1460" type="line"/>
      <point x="421" y="1460" type="line"/>
    </contour>
    <contour>
      <point x="951" y="1893" type="line"/>
      <point x="751" y="1893" type="line"/>
      <point x="586" y="1765" type="line"/>
      <point x="562" y="1643" type="line"/>
      <point x="652" y="1643" type="line"/>
      <point x="670" y="1734" type="line"/>
      <point x="772" y="1805" type="line"/>
      <point x="893" y="1805" type="line"/>
      <point x="1097" y="1643" type="line"/>
      <point x="1297" y="1643" type="line"/>
      <point x="1462" y="1771" type="line"/>
      <point x="1486" y="1893" type="line"/>
      <point x="1396" y="1893" type="line"/>
      <point x="1378" y="1802" type="line"/>
      <point x="1276" y="1731" type="line"/>
      <point x="1155" y="1731" type="line"/>
    </contour>
  </outline>
</glyph>
<glyph name="Otilde" format="2">
  <advance width="1555"/>
  <unicode hex="00D5"/>
  <outline>
    <contour>
      <point x="552" y="0" type="line"/>
      <point x="810" y="0" type="line"/>
      <point x="1412" y="540" type="line"/>
      <point x="1488" y="930" type="line"/>
      <point x="1097" y="1460" type="line"/>
      <point x="836" y="1460" type="line"/>
      <point x="235" y="930" type="line"/>
      <point x="159" y="540" type="line"/>
    </contour>
    <contour>
      <point x="628" y="110" type="line"/>
      <point x="292" y="577" type="line"/>
      <point x="353" y="889" type="line"/>
      <point x="877" y="1350" type="line"/>
      <point x="1016" y="1350" type="line"/>
      <point x="1355" y="893" type="line"/>
      <point x="1294" y="581" type="line"/>
      <point x="767" y="110" type="line"/>
    </contour>
    <contour>
      <point x="951" y="1893" type="line"/>
      <point x="751" y="1893" type="line"/>
      <point x="586" y="1765" type="line"/>
      <point x="562" y="1643" type="line"/>
      <point x="652" y="1643" type="line"/>
      <point x="670" y="1734" type="line"/>
      <point x="772" y="1805" type="line"/>
      <point x="893" y="1805" type="line"/>
      <point x="1097" y="1643" type="line"/>
      <point x="1297" y="1643" type="line"/>
      <point x="1462" y="1771" type="line"/>
      <point x="1486" y="1893" type="line"/>
      <point x="1396" y="1893" type="line"/>
      <point x="1378" y="1802" type="line"/>
      <point x="1276" y="1731" type="line"/>
      <point x="1155" y="1731" type="line"/>
    </contour>
  </outline>
</glyph>
<glyph name="Odieresis" format="2">
  <advance width="1555"/>
  <unicode hex="00D6"/>
  <outline>
    <contour>
      <point x="552" y="0" type="line"/>
      <point x="810" y="0" type="line"/>
      <point x="1412" y="540" type="line"/>
      <point x="1488" y="930" type="line"/>
      <point x="1097" y="1460" type="line"/>
      <point x="836" y="1460" type="line"/>
      <point x="235" y="930" type="line"/>
      <point x="159" y="540" type="line"/>
    </contour>
    <contour>
      <point x="628" y="110" type="line"/>
      <point x="292" y="577" type="line"/>
      <point x="353" y="889" type="line"/>
      <point x="877" y="1350" type="line"/>
      <point x="1016" y="1350" type="line"/>
      <point x="1355" y="893" type="line"/>
      <point x="1294" y="581" type="line"/>
      <point x="767" y="110" type="line"/>
    </contour>
    <contour>
      <point x="691" y="1626" type="line"/>
      <point x="853" y="1756" type="line"/>
      <point x="742" y="1886" type="line"/>
      <point x="579" y="1756" type="line"/>
    </contour>
    <contour>
      <point x="1303" y="1626" type="line"/>
      <point x="1465" y="1756" type="line"/>
      <point x="1354" y="1886" type="line"/>
      <point x="1191" y="1756" type="line"/>
    </contour>
  </outline>
</glyph>
<glyph name="Udieresis" format="2">
  <advance width="1555"/>
  <unicode hex="00DC"/>
  <outline>
    <contour>
      <point x="347" y="0" type="line"/>
      <point x="1023" y="0" type="line"/>
      <point x="1272" y="244" type="line"/>
      <point x="1509" y="1460" type="line"/>
      <point x="1383" y="1460" type="line"/>
      <point x="1156" y="295" type="line"/>
      <point x="971" y="110" type="line"/>
      <point x="433" y="110" type="line"/>
      <point x="319" y="289" type="line"/>
      <point x="547" y="1460" type="line"/>
      <point x="421" y="1460" type="line"/>
      <point x="187" y="258" type="line"/>
    </contour>
    <contour>
      <point x="691" y="1626" type="line"/>
      <point x="853" y="1756" type="line"/>
      <point x="742" y="1886" type="line"/>
      <point x="579" y="1756" type="line"/>
    </contour>
    <contour>
      <point x="1303" y="1626" type="line"/>
      <point x="1465" y="1756" type="line"/>
      <point x="1354" y="1886" type="line"/>
      <point x="1191" y="1756" type="line"/>
    </contour>
  </outline>
</glyph>
<glyph name="Thorn" format="2">
  <advance width="1555"/>
  <unicode hex="00DE"/>
  <outline>
    <contour>
      <point x="115" y="0" type="line"/>
      <point x="241" y="0" type="line"/>
      <point x="525" y="1460" type="line"/>
      <point x="399" y="1460" type="line"/>
    </contour>
    <contour>
      <point x="243" y="313" type="line"/>
      <point x="1001" y="313" type="line"/>
      <point x="1414" y="640" type="line"/>
      <point x="1470" y="924" type="line"/>
      <point x="1174" y="1206" type="line"/>
      <point x="416" y="1206" type="line"/>
      <point x="397" y="1106" type="line"/>
      <point x="1096" y="1106" type="line"/>
      <point x="1336" y="885" type="line"/>
      <point x="1295" y="675" type="line"/>
      <point x="961" y="413" type="line"/>
      <point x="262" y="413" type="line"/>
    </contour>
  </outline>
</glyph>
<glyph name="otilde" format="2">
  <advance width="1555"/>
  <unicode hex="00F5"/>
  <outline>
    <contour>
      <point x="558" y="0" type="line"/>
      <point x="802" y="0" type="line"/>
      <point x="1354" y="337" type="line"/>
      <point x="1417" y="663" type="line"/>
      <point x="996" y="1000" type="line"/>
      <point x="752" y="1000" type="line"/>
      <point x="202" y="663" type="line"/>
      <point x="139" y="337" type="line"/>
    </contour>
    <contour>
      <point x="609" y="98" type="line"/>
      <point x="263" y="380" type="line"/>
      <point x="308" y="612" type="line"/>
      <point x="777" y="902" type="line"/>
      <point x="945" y="902" type="line"/>
      <point x="1293" y="620" type="line"/>
      <point x="1247" y="388" type="line"/>
      <point x="777" y="98" type="line"/>
    </contour>
    <contour>
      <point x="896" y="1577" type="line"/>
      <point x="708" y="1577" type="line"/>
      <point x="497" y="1419" type="line"/>
      <point x="467" y="1267" type="line"/>
      <point x="557" y="1267" type="line"/>
      <point x="579" y="1378" type="line"/>
      <point x="728" y="1489" type="line"/>
      <point x="829" y="1489" type="line"/>
      <point x="1018" y="1267" type="line"/>
      <point x="1206" y="1267" type="line"/>
      <point x="1417" y="1425" type="line"/>
      <point x="1447" y="1577" type="line"/>
      <point x="1357" y="1577" type="line"/>
      <point x="1335" y="1466" type="line"/>
      <point x="1185" y="1355" type="line"/>
      <point x="1084" y="1355" type="line"/>
    </contour>
  </outline>
</glyph>
<glyph name="divide" format="2">
  <advance width="1555"/>
  <unicode hex="00F7"/>
  <outline>
    <contour>
      <point x="715" y="180" type="curve" smooth="yes"/>
      <point x="775" y="180"/>
      <point x="830" y="219"/>
      <point x="842" y="284" type="curve" smooth="yes"/>
      <point x="855" y="350"/>
      <point x="815" y="388"/>
      <point x="755" y="388" type="curve" smooth="yes"/>
      <point x="696" y="388"/>
      <point x="642" y="350"/>
      <point x="629" y="284" type="curve" smooth="yes"/>
      <point x="617" y="219"/>
      <point x="656" y="180"/>
    </contour>
    <contour>
      <point x="856" y="904" type="curve" smooth="yes"/>
      <point x="916" y="904"/>
      <point x="970" y="943"/>
      <point x="983" y="1008" type="curve" smooth="yes"/>
      <point x="996" y="1074"/>
      <point x="956" y="1112"/>
      <point x="896" y="1112" type="curve" smooth="yes"/>
      <point x="837" y="1112"/>
      <point x="783" y="1074"/>
      <point x="770" y="1008" type="curve" smooth="yes"/>
      <point x="757" y="943"/>
      <point x="797" y="904"/>
    </contour>
    <contour>
      <point x="268" y="591" type="line"/>
      <point x="1323" y="591" type="line"/>
      <point x="1344" y="701" type="line"/>
      <point x="289" y="701" type="line"/>
    </contour>
  </outline>
</glyph>
<glyph name="ugrave" format="2">
  <advance width="1555"/>
  <unicode hex="00F9"/>
  <outline>
    <contour>
      <point x="459" y="1000" type="line"/>
      <point x="333" y="1000" type="line"/>
      <point x="182" y="219" type="line"/>
      <point x="454" y="-23" type="line"/>
      <point x="1190" y="136" type="line"/>
      <point x="1206" y="218" type="line"/>
      <point x="514" y="93" type="line"/>
      <point x="316" y="263" type="line"/>
    </contour>
    <contour>
      <point x="1417" y="1000" type="line"/>
      <point x="1293" y="1000" type="line"/>
      <point x="1127" y="142" type="line"/>
      <point x="1136" y="0" type="line"/>
      <point x="1223" y="0" type="line"/>
    </contour>
    <contour>
      <point x="880" y="1274" type="line"/>
      <point x="999" y="1274" type="line"/>
      <point x="789" y="1597" type="line"/>
      <point x="636" y="1597" type="line"/>
    </contour>
  </outline>
</glyph>
<glyph name="udieresis" format="2">
  <advance width="1555"/>
  <unicode hex="00FC"/>
  <outline>
    <contour>
      <point x="459" y="1000" type="line"/>
      <point x="333" y="1000" type="line"/>
      <point x="182" y="219" type="line"/>
      <point x="454" y="-23" type="line"/>
      <point x="1190" y="136" type="line"/>
      <point x="1206" y="218" type="line"/>
      <point x="514" y="93" type="line"/>
      <point x="316" y="263" type="line"/>
    </contour>
    <contour>
      <point x="1417" y="1000" type="line"/>
      <point x="1293" y="1000" type="line"/>
      <point x="1127" y="142" type="line"/>
      <point x="1136" y="0" type="line"/>
      <point x="1223" y="0" type="line"/>
    </contour>
    <contour>
      <point x="624" y="1276" type="line"/>
      <point x="786" y="1406" type="line"/>
      <point x="675" y="1536" type="line"/>
      <point x="512" y="1406" type="line"/>
    </contour>
    <contour>
      <point x="1236" y="1276" type="line"/>
      <point x="1398" y="1406" type="line"/>
      <point x="1287" y="1536" type="line"/>
      <point x="1124" y="1406" type="line"/>
    </contour>
  </outline>
</glyph>
<glyph name="ydieresis" format="2">
  <advance width="1555"/>
  <unicode hex="00FF"/>
  <outline>
    <contour>
      <point x="180" y="-400" type="line"/>
      <point x="806" y="-400" type="line"/>
      <point x="1183" y="-112" type="line"/>
      <point x="1399" y="1000" type="line"/>
      <point x="1283" y="1000" type="line"/>
      <point x="1146" y="294" type="line"/>
      <point x="1138" y="254" type="line"/>
      <point x="1073" y="-82" type="line"/>
      <point x="769" y="-302" type="line"/>
      <point x="179" y="-302" type="line"/>
    </contour>
    <contour>
      <point x="454" y="79" type="line"/>
      <point x="1171" y="237" type="line"/>
      <point x="1188" y="324" type="line"/>
      <point x="515" y="199" type="line"/>
      <point x="312" y="366" type="line"/>
      <point x="435" y="1000" type="line"/>
      <point x="309" y="1000" type="line"/>
      <point x="178" y="323" type="line"/>
    </contour>
    <contour>
      <point x="605" y="1276" type="line"/>
      <point x="767" y="1406" type="line"/>
      <point x="656" y="1536" type="line"/>
      <point x="493" y="1406" type="line"/>
    </contour>
    <contour>
      <point x="1217" y="1276" type="line"/>
      <point x="1379" y="1406" type="line"/>
      <point x="1268" y="1536" type="line"/>
      <point x="1105" y="1406" type="line"/>
    </contour>
  </outline>
</glyph>
<glyph name="ccircumflex" format="2">
  <advance width="1555"/>
  <unicode hex="0109"/>
  <outline>
    <contour>
      <point x="517" y="0" type="line"/>
      <point x="1236" y="0" type="line"/>
      <point x="1282" y="98" type="line"/>
      <point x="582" y="98" type="line"/>
      <point x="257" y="377" type="line"/>
      <point x="304" y="615" type="line"/>
      <point x="746" y="902" type="line"/>
      <point x="1438" y="902" type="line"/>
      <point x="1430" y="1000" type="line"/>
      <point x="711" y="1000" type="line"/>
      <point x="197" y="662" type="line"/>
      <point x="134" y="339" type="line"/>
    </contour>
    <contour>
      <point x="572" y="1274" type="line"/>
      <point x="709" y="1274" type="line"/>
      <point x="1050" y="1562" type="line"/>
      <point x="988" y="1562" type="line"/>
      <point x="1218" y="1274" type="line"/>
      <point x="1355" y="1274" type="line"/>
      <point x="1083" y="1597" type="line"/>
      <point x="967" y="1597" type="line"/>
    </contour>
  </outline>
</glyph>
<glyph name="cdotaccent" format="2">
  <advance width="1555"/>
  <unicode hex="010B"/>
  <outline>
    <contour>
      <point x="517" y="0" type="line"/>
      <point x="1236" y="0" type="line"/>
      <point x="1282" y="98" type="line"/>
      <point x="582" y="98" type="line"/>
      <point x="257" y="377" type="line"/>
      <point x="304" y="615" type="line"/>
      <point x="746" y="902" type="line"/>
      <point x="1438" y="902" type="line"/>
      <point x="1430" y="1000" type="line"/>
      <point x="711" y="1000" type="line"/>
      <point x="197" y="662" type="line"/>
      <point x="134" y="339" type="line"/>
    </contour>
    <contour>
      <point x="964" y="1276" type="line"/>
      <point x="1126" y="1406" type="line"/>
      <point x="1015" y="1536" type="line"/>
      <point x="852" y="1406" type="line"/>
    </contour>
  </outline>
</glyph>
<glyph name="gcommaaccent" format="2">
  <advance width="1555"/>
  <unicode hex="0123"/>
  <outline>
    <contour>
      <point x="184" y="-400" type="line"/>
      <point x="869" y="-400" type="line"/>
      <point x="1181" y="-112" type="line"/>
      <point x="1397" y="1000" type="line"/>
      <point x="1281" y="1000" type="line"/>
      <point x="1137" y="257" type="line"/>
      <point x="1133" y="237" type="line"/>
      <point x="1071" y="-84" type="line"/>
      <point x="834" y="-302" type="line"/>
      <point x="183" y="-302" type="line"/>
    </contour>
    <contour>
      <point x="537" y="55" type="line"/>
      <point x="1206" y="214" type="line"/>
      <point x="1222" y="300" type="line"/>
      <point x="592" y="165" type="line"/>
      <point x="301" y="372" type="line"/>
      <point x="349" y="618" type="line"/>
      <point x="783" y="905" type="line"/>
      <point x="1340" y="905" type="line"/>
      <point x="1358" y="1000" type="line"/>
      <point x="734" y="1000" type="line"/>
      <point x="245" y="672" type="line"/>
      <point x="178" y="327" type="line"/>
    </contour>
    <contour>
      <point x="1101" y="1527" type="line"/>
      <point x="948" y="1527" type="line"/>
      <point x="937" y="1471" type="line"/>
      <point x="1165" y="1707" type="line"/>
      <point x="1098" y="1747" type="line"/>
      <point x="886" y="1527" type="line"/>
      <point x="844" y="1312" type="line"/>
      <point x="1059" y="1312" type="line"/>
    </contour>
  </outline>
</glyph>
<glyph name="hcircumflex" format="2">
  <advance width="1555"/>
  <unicode hex="0125"/>
  <outline>
    <contour>
      <point x="1169" y="0" type="line"/>
      <point x="1295" y="0" type="line"/>
      <point x="1447" y="781" type="line"/>
      <point x="1175" y="1023" type="line"/>
      <point x="458" y="864" type="line"/>
      <point x="442" y="782" type="line"/>
      <point x="1114" y="907" type="line"/>
      <point x="1312" y="737" type="line"/>
    </contour>
    <contour>
      <point x="211" y="0" type="line"/>
      <point x="335" y="0" type="line"/>
      <point x="632" y="1530" type="line"/>
      <point x="505" y="1510" type="line"/>
    </contour>
    <contour>
      <point x="181" y="1720" type="line"/>
      <point x="328" y="1720" type="line"/>
      <point x="644" y="1929" type="line"/>
      <point x="582" y="1929" type="line"/>
      <point x="817" y="1720" type="line"/>
      <point x="964" y="1720" type="line"/>
      <point x="696" y="1953" type="line"/>
      <point x="540" y="1953" type="line"/>
    </contour>
  </outline>
</glyph>
<glyph name="imacron" format="2">
  <advance width="1555"/>
  <unicode hex="012B"/>
  <outline>
    <contour>
      <point x="653" y="0" type="line"/>
      <point x="777" y="0" type="line"/>
      <point x="959" y="935" type="line"/>
      <point x="910" y="1000" type="line"/>
      <point x="362" y="1000" type="line"/>
      <point x="323" y="902" type="line"/>
      <point x="874" y="902" type="line"/>
      <point x="835" y="938" type="line"/>
    </contour>
    <contour>
      <point x="421" y="1339" type="line"/>
      <point x="1250" y="1339" type="line"/>
      <point x="1270" y="1439" type="line"/>
      <point x="441" y="1439" type="line"/>
    </contour>
  </outline>
</glyph>
<glyph name="Ibreve" format="2">
  <advance width="1555"/>
  <unicode hex="012C"/>
  <outline>
    <contour>
      <point x="608" y="0" type="line"/>
      <point x="734" y="0" type="line"/>
      <point x="1018" y="1460" type="line"/>
      <point x="892" y="1460" type="line"/>
    </contour>
    <contour>
      <point x="131" y="0" type="line"/>
      <point x="1231" y="0" type="line"/>
      <point x="1272" y="110" type="line"/>
      <point x="132" y="110" type="line"/>
    </contour>
    <contour>
      <point x="373" y="1350" type="line"/>
      <point x="1513" y="1350" type="line"/>
      <point x="1515" y="1460" type="line"/>
      <point x="415" y="1460" type="line"/>
    </contour>
    <contour>
      <point x="830" y="1643" type="line"/>
      <point x="1164" y="1643" type="line"/>
      <point x="1337" y="1760" type="line"/>
      <point x="1361" y="1883" type="line"/>
      <point x="1271" y="1883" type="line"/>
      <point x="1254" y="1797" type="line"/>
      <point x="1141" y="1731" type="line"/>
      <point x="887" y="1731" type="line"/>
      <point x="800" y="1797" type="line"/>
      <point x="817" y="1883" type="line"/>
      <point x="727" y="1883" type="line"/>
      <point x="703" y="1759" type="line"/>
    </contour>
  </outline>
</glyph>
<glyph name="idotless" format="2">
  <advance width="1555"/>
  <unicode hex="0131"/>
  <outline>
    <contour>
      <point x="672" y="0" type="line"/>
      <point x="796" y="0" type="line"/>
      <point x="978" y="935" type="line"/>
      <point x="929" y="1000" type="line"/>
      <point x="381" y="1000" type="line"/>
      <point x="342" y="902" type="line"/>
      <point x="893" y="902" type="line"/>
      <point x="854" y="938" type="line"/>
    </contour>
  </outline>
</glyph>
<glyph name="ij" format="2">
  <advance width="1555"/>
  <unicode hex="0133"/>
  <outline>
    <contour>
      <point x="343" y="0" type="line"/>
      <point x="467" y="0" type="line"/>
      <point x="649" y="935" type="line"/>
      <point x="600" y="1000" type="line"/>
      <point x="252" y="1000" type="line"/>
      <point x="213" y="902" type="line"/>
      <point x="564" y="902" type="line"/>
      <point x="525" y="938" type="line"/>
    </contour>
    <contour>
      <point x="491" y="-400" type="line"/>
      <point x="913" y="-400" type="line"/>
      <point x="1208" y="-112" type="line"/>
      <point x="1412" y="935" type="line"/>
      <point x="1363" y="1000" type="line"/>
      <point x="1015" y="1000" type="line"/>
      <point x="976" y="902" type="line"/>
      <point x="1327" y="902" type="line"/>
      <point x="1288" y="938" type="line"/>
      <point x="1090" y="-82" type="line"/>
      <point x="868" y="-302" type="line"/>
      <point x="490" y="-302" type="line"/>
    </contour>
    <contour>
      <point x="1317" y="1276" type="line"/>
      <point x="1479" y="1406" type="line"/>
      <point x="1368" y="1536" type="line"/>
      <point x="1205" y="1406" type="line"/>
    </contour>
    <contour>
      <point x="554" y="1276" type="line"/>
      <point x="716" y="1406" type="line"/>
      <point x="605" y="1536" type="line"/>
      <point x="442" y="1406" type="line"/>
    </contour>
  </outline>
</glyph>
<glyph name="Jcircumflex" format="2">
  <advance width="1555"/>
  <unicode hex="0134"/>
  <outline>
    <contour>
      <point x="618" y="0" type="line"/>
      <point x="764" y="0" type="line"/>
      <point x="1342" y="489" type="line"/>
      <point x="1531" y="1460" type="line"/>
      <point x="1405" y="1460" type="line"/>
      <point x="1226" y="538" type="line"/>
      <point x="681" y="80" type="line"/>
      <point x="723" y="80" type="line"/>
      <point x="344" y="532" type="line"/>
      <point x="392" y="778" type="line"/>
      <point x="266" y="778" type="line"/>
      <point x="210" y="489" type="line"/>
    </contour>
    <contour>
      <point x="490" y="1350" type="line"/>
      <point x="1465" y="1350" type="line"/>
      <point x="1487" y="1460" type="line"/>
      <point x="532" y="1460" type="line"/>
    </contour>
    <contour>
      <point x="628" y="1650" type="line"/>
      <point x="775" y="1650" type="line"/>
      <point x="1090" y="1859" type="line"/>
      <point x="1028" y="1859" type="line"/>
      <point x="1264" y="1650" type="line"/>
      <point x="1411" y="1650" type="line"/>
      <point x="1142" y="1883" type="line"/>
      <point x="986" y="1883" type="line"/>
    </contour>
  </outline>
</glyph>
<glyph name="Lacute" format="2">
  <advance width="1555"/>
  <unicode hex="0139"/>
  <outline>
    <contour>
      <point x="201" y="0" type="line"/>
      <point x="327" y="0" type="line"/>
      <point x="611" y="1460" type="line"/>
      <point x="485" y="1460" type="line"/>
    </contour>
    <contour>
      <point x="286" y="0" type="line"/>
      <point x="1262" y="0" type="line"/>
      <point x="1303" y="110" type="line"/>
      <point x="307" y="110" type="line"/>
    </contour>
    <contour>
      <point x="650" y="1652" type="line"/>
      <point x="531" y="1652" type="line"/>
      <point x="848" y="1884" type="line"/>
      <point x="1001" y="1884" type="line"/>
    </contour>
  </outline>
</glyph>
<glyph name="Lcommaaccent" format="2">
  <advance width="1555"/>
  <unicode hex="013B"/>
  <outline>
    <contour>
      <point x="201" y="0" type="line"/>
      <point x="327" y="0" type="line"/>
      <point x="611" y="1460" type="line"/>
      <point x="485" y="1460" type="line"/>
    </contour>
    <contour>
      <point x="286" y="0" type="line"/>
      <point x="1262" y="0" type="line"/>
      <point x="1303" y="110" type="line"/>
      <point x="307" y="110" type="line"/>
    </contour>
    <contour>
      <point x="550" y="-527" type="line"/>
      <point x="703" y="-527" type="line"/>
      <point x="713" y="-471" type="line"/>
      <point x="486" y="-707" type="line"/>
      <point x="553" y="-747" type="line"/>
      <point x="765" y="-527" type="line"/>
      <point x="806" y="-312" type="line"/>
      <point x="591" y="-312" type="line"/>
    </contour>
  </outline>
</glyph>
<glyph name="lcaron" format="2">
  <advance width="1555"/>
  <unicode hex="013E"/>
  <outline>
    <contour>
      <point x="792" y="0" type="line"/>
      <point x="1238" y="0" type="line"/>
      <point x="1277" y="98" type="line"/>
      <point x="865" y="98" type="line"/>
      <point x="714" y="318" type="line"/>
      <point x="937" y="1465" type="line"/>
      <point x="888" y="1530" type="line"/>
      <point x="364" y="1530" type="line"/>
      <point x="325" y="1432" type="line"/>
      <point x="852" y="1432" type="line"/>
      <point x="821" y="1468" type="line"/>
      <point x="592" y="288" type="line"/>
    </contour>
    <contour>
      <point x="1269" y="1282" type="line"/>
      <point x="1366" y="1282" type="line"/>
      <point x="1473" y="1618" type="line"/>
      <point x="1352" y="1618" type="line"/>
    </contour>
  </outline>
</glyph>
<glyph name="Ldot" format="2">
  <advance width="1555"/>
  <unicode hex="013F"/>
  <outline>
    <contour>
      <point x="201" y="0" type="line"/>
      <point x="327" y="0" type="line"/>
      <point x="611" y="1460" type="line"/>
      <point x="485" y="1460" type="line"/>
    </contour>
    <contour>
      <point x="286" y="0" type="line"/>
      <point x="1262" y="0" type="line"/>
      <point x="1303" y="110" type="line"/>
      <point x="307" y="110" type="line"/>
    </contour>
    <contour>
      <point x="1188" y="694" type="line"/>
      <point x="1350" y="824" type="line"/>
      <point x="1238" y="954" type="line"/>
      <point x="1076" y="824" type="line"/>
    </contour>
  </outline>
</glyph>
<glyph name="Lslash" format="2">
  <advance width="1555"/>
  <unicode hex="0141"/>
  <outline>
    <contour>
      <point x="50" y="567" type="line"/>
      <point x="1007" y="977" type="line"/>
      <point x="1030" y="1095" type="line"/>
      <point x="73" y="685" type="line"/>
    </contour>
    <contour>
      <point x="154" y="0" type="line"/>
      <point x="280" y="0" type="line"/>
      <point x="564" y="1460" type="line"/>
      <point x="438" y="1460" type="line"/>
    </contour>
    <contour>
      <point x="239" y="0" type="line"/>
      <point x="1215" y="0" type="line"/>
      <point x="1256" y="110" type="line"/>
      <point x="260" y="110" type="line"/>
    </contour>
  </outline>
</glyph>
<glyph name="Nacute" format="2">
  <advance width="1555"/>
  <unicode hex="0143"/>
  <outline>
    <contour>
      <point x="137" y="0" type="line"/>
      <point x="257" y="0" type="line"/>
      <point x="503" y="1266" type="line"/>
      <point x="515" y="1266" type="line"/>
      <point x="1094" y="1" type="line"/>
      <point x="1225" y="1" type="line"/>
      <point x="1509" y="1461" type="line"/>
      <point x="1389" y="1461" type="line"/>
      <point x="1147" y="214" type="line"/>
      <point x="1135" y="214" type="line"/>
      <point x="554" y="1460" type="line"/>
      <point x="421" y="1460" type="line"/>
    </contour>
    <contour>
      <point x="1051" y="1652" type="line"/>
      <point x="932" y="1652" type="line"/>
      <point x="1249" y="1884" type="line"/>
      <point x="1402" y="1884" type="line"/>
    </contour>
  </outline>
</glyph>
<glyph name="ncommaaccent" format="2">
  <advance width="1555"/>
  <unicode hex="0146"/>
  <outline>
    <contour>
      <point x="1097" y="0" type="line"/>
      <point x="1223" y="0" type="line"/>
      <point x="1375" y="781" type="line"/>
      <point x="1103" y="1023" type="line"/>
      <point x="366" y="864" type="line"/>
      <point x="350" y="782" type="line"/>
      <point x="1042" y="907" type="line"/>
      <point x="1240" y="737" type="line"/>
    </contour>
    <contour>
      <point x="139" y="0" type="line"/>
      <point x="263" y="0" type="line"/>
      <point x="430" y="858" type="line"/>
      <point x="420" y="1000" type="line"/>
      <point x="333" y="1000" type="line"/>
    </contour>
    <contour>
      <point x="486" y="-527" type="line"/>
      <point x="639" y="-527" type="line"/>
      <point x="649" y="-471" type="line"/>
      <point x="422" y="-707" type="line"/>
      <point x="489" y="-747" type="line"/>
      <point x="701" y="-527" type="line"/>
      <point x="742" y="-312" type="line"/>
      <point x="527" y="-312" type="line"/>
    </contour>
  </outline>
</glyph>
<glyph name="Ncaron" format="2">
  <advance width="1555"/>
  <unicode hex="0147"/>
  <outline>
    <contour>
      <point x="137" y="0" type="line"/>
      <point x="257" y="0" type="line"/>
      <point x="503" y="1266" type="line"/>
      <point x="515" y="1266" type="line"/>
      <point x="1094" y="1" type="line"/>
      <point x="1225" y="1" type="line"/>
      <point x="1509" y="1461" type="line"/>
      <point x="1389" y="1461" type="line"/>
      <point x="1147" y="214" type="line"/>
      <point x="1135" y="214" type="line"/>
      <point x="554" y="1460" type="line"/>
      <point x="421" y="1460" type="line"/>
    </contour>
    <contour>
      <point x="655" y="1883" type="line"/>
      <point x="802" y="1883" type="line"/>
      <point x="1036" y="1674" type="line"/>
      <point x="974" y="1674" type="line"/>
      <point x="1291" y="1883" type="line"/>
      <point x="1438" y="1883" type="line"/>
      <point x="1079" y="1650" type="line"/>
      <point x="923" y="1650" type="line"/>
    </contour>
  </outline>
</glyph>
<glyph name="ncaron" format="2">
  <advance width="1555"/>
  <unicode hex="0148"/>
  <outline>
    <contour>
      <point x="1097" y="0" type="line"/>
      <point x="1223" y="0" type="line"/>
      <point x="1375" y="781" type="line"/>
      <point x="1103" y="1023" type="line"/>
      <point x="366" y="864" type="line"/>
      <point x="350" y="782" type="line"/>
      <point x="1042" y="907" type="line"/>
      <point x="1240" y="737" type="line"/>
    </contour>
    <contour>
      <point x="139" y="0" type="line"/>
      <point x="263" y="0" type="line"/>
      <point x="430" y="858" type="line"/>
      <point x="420" y="1000" type="line"/>
      <point x="333" y="1000" type="line"/>
    </contour>
    <contour>
      <point x="599" y="1597" type="line"/>
      <point x="736" y="1597" type="line"/>
      <point x="965" y="1309" type="line"/>
      <point x="903" y="1309" type="line"/>
      <point x="1245" y="1597" type="line"/>
      <point x="1382" y="1597" type="line"/>
      <point x="986" y="1274" type="line"/>
      <point x="870" y="1274" type="line"/>
    </contour>
  </outline>
</glyph>
<glyph name="Sacute" format="2">
  <advance width="1555"/>
  <unicode hex="015A"/>
  <outline>
    <contour>
      <point x="172" y="0" type="line"/>
      <point x="938" y="0" type="line"/>
      <point x="1247" y="269" type="line"/>
      <point x="1287" y="472" type="line"/>
      <point x="474" y="1039" type="line"/>
      <point x="491" y="1129" type="line"/>
      <point x="760" y="1362" type="line"/>
      <point x="1430" y="1362" type="line"/>
      <point x="1429" y="1460" type="line"/>
      <point x="703" y="1460" type="line"/>
      <point x="394" y="1191" type="line"/>
      <point x="354" y="988" type="line"/>
      <point x="1168" y="421" type="line"/>
      <point x="1150" y="331" type="line"/>
      <point x="882" y="98" type="line"/>
      <point x="171" y="98" type="line"/>
    </contour>
    <contour>
      <point x="1050" y="1652" type="line"/>
      <point x="931" y="1652" type="line"/>
      <point x="1248" y="1884" type="line"/>
      <point x="1401" y="1884" type="line"/>
    </contour>
  </outline>
</glyph>
<glyph name="sacute" format="2">
  <advance width="1555"/>
  <unicode hex="015B"/>
  <outline>
    <contour>
      <point x="143" y="0" type="line"/>
      <point x="1031" y="0" type="line"/>
      <point x="1278" y="209" type="line"/>
      <point x="1309" y="372" type="line"/>
      <point x="388" y="695" type="line"/>
      <point x="399" y="752" type="line"/>
      <point x="579" y="902" type="line"/>
      <point x="1400" y="902" type="line"/>
      <point x="1399" y="1000" type="line"/>
      <point x="541" y="1000" type="line"/>
      <point x="295" y="791" type="line"/>
      <point x="265" y="637" type="line"/>
      <point x="1186" y="314" type="line"/>
      <point x="1173" y="249" type="line"/>
      <point x="993" y="98" type="line"/>
      <point x="142" y="98" type="line"/>
    </contour>
    <contour>
      <point x="993" y="1274" type="line"/>
      <point x="874" y="1274" type="line"/>
      <point x="1208" y="1597" type="line"/>
      <point x="1361" y="1597" type="line"/>
    </contour>
  </outline>
</glyph>
<glyph name="tcaron" format="2">
  <advance width="1555"/>
  <unicode hex="0165"/>
  <outline>
    <contour>
      <point x="649" y="0" type="line"/>
      <point x="1172" y="0" type="line"/>
      <point x="1191" y="98" type="line"/>
      <point x="724" y="98" type="line"/>
      <point x="588" y="318" type="line"/>
      <point x="777" y="1291" type="line"/>
      <point x="657" y="1271" type="line"/>
      <point x="466" y="288" type="line"/>
    </contour>
    <contour>
      <point x="230" y="818" type="line"/>
      <point x="1331" y="818" type="line"/>
      <point x="1350" y="918" type="line"/>
      <point x="249" y="918" type="line"/>
    </contour>
    <contour>
      <point x="1308" y="1212" type="line"/>
      <point x="1405" y="1212" type="line"/>
      <point x="1511" y="1548" type="line"/>
      <point x="1390" y="1548" type="line"/>
    </contour>
  </outline>
</glyph>
<glyph name="Umacron" format="2">
  <advance width="1555"/>
  <unicode hex="016A"/>
  <outline>
    <contour>
      <point x="347" y="0" type="line"/>
      <point x="1023" y="0" type="line"/>
      <point x="1272" y="244" type="line"/>
      <point x="1509" y="1460" type="line"/>
      <point x="1383" y="1460" type="line"/>
      <point x="1156" y="295" type="line"/>
      <point x="971" y="110" type="line"/>
      <point x="433" y="110" type="line"/>
      <point x="319" y="289" type="line"/>
      <point x="547" y="1460" type="line"/>
      <point x="421" y="1460" type="line"/>
      <point x="187" y="258" type="line"/>
    </contour>
    <contour>
      <point x="602" y="1731" type="line"/>
      <point x="1431" y="1731" type="line"/>
      <point x="1451" y="1831" type="line"/>
      <point x="622" y="1831" type="line"/>
    </contour>
  </outline>
</glyph>
<glyph name="ubreve" format="2">
  <advance width="1555"/>
  <unicode hex="016D"/>
  <outline>
    <contour>
      <point x="459" y="1000" type="line"/>
      <point x="333" y="1000" type="line"/>
      <point x="182" y="219" type="line"/>
      <point x="454" y="-23" type="line"/>
      <point x="1190" y="136" type="line"/>
      <point x="1206" y="218" type="line"/>
      <point x="514" y="93" type="line"/>
      <point x="316" y="263" type="line"/>
    </contour>
    <contour>
      <point x="1417" y="1000" type="line"/>
      <point x="1293" y="1000" type="line"/>
      <point x="1127" y="142" type="line"/>
      <point x="1136" y="0" type="line"/>
      <point x="1223" y="0" type="line"/>
    </contour>
    <contour>
      <point x="747" y="1267" type="line"/>
      <point x="1101" y="1267" type="line"/>
      <point x="1290" y="1414" type="line"/>
      <point x="1325" y="1597" type="line"/>
      <point x="1235" y="1597" type="line"/>
      <point x="1207" y="1451" type="line"/>
      <point x="1076" y="1355" type="line"/>
      <point x="806" y="1355" type="line"/>
      <point x="713" y="1451" type="line"/>
      <point x="741" y="1597" type="line"/>
      <point x="651" y="1597" type="line"/>
      <point x="616" y="1413" type="line"/>
    </contour>
  </outline>
</glyph>
<glyph name="uring" format="2">
  <advance width="1555"/>
  <unicode hex="016F"/>
  <outline>
    <contour>
      <point x="459" y="1000" type="line"/>
      <point x="333" y="1000" type="line"/>
      <point x="182" y="219" type="line"/>
      <point x="454" y="-23" type="line"/>
      <point x="1190" y="136" type="line"/>
      <point x="1206" y="218" type="line"/>
      <point x="514" y="93" type="line"/>
      <point x="316" y="263" type="line"/>
    </contour>
    <contour>
      <point x="1417" y="1000" type="line"/>
      <point x="1293" y="1000" type="line"/>
      <point x="1127" y="142" type="line"/>
      <point x="1136" y="0" type="line"/>
      <point x="1223" y="0" type="line"/>
    </contour>
    <contour>
      <point x="827" y="1215" type="line"/>
      <point x="1001" y="1215" type="line"/>
      <point x="1172" y="1372" type="line"/>
      <point x="1198" y="1506" type="line"/>
      <point x="1088" y="1662" type="line"/>
      <point x="914" y="1662" type="line"/>
      <point x="744" y="1505" type="line"/>
      <point x="717" y="1371" type="line"/>
    </contour>
    <contour>
      <point x="819" y="1409" type="line"/>
      <point x="830" y="1468" type="line"/>
      <point x="944" y="1574" type="line"/>
      <point x="1024" y="1574" type="line"/>
      <point x="1096" y="1468" type="line"/>
      <point x="1085" y="1409" type="line"/>
      <point x="971" y="1303" type="line"/>
      <point x="891" y="1303" type="line"/>
    </contour>
  </outline>
</glyph>
<glyph name="Uhungarumlaut" format="2">
  <advance width="1555"/>
  <unicode hex="0170"/>
  <outline>
    <contour>
      <point x="347" y="0" type="line"/>
      <point x="1023" y="0" type="line"/>
      <point x="1272" y="244" type="line"/>
      <point x="1509" y="1460" type="line"/>
      <point x="1383" y="1460" type="line"/>
      <point x="1156" y="295" type="line"/>
      <point x="971" y="110" type="line"/>
      <point x="433" y="110" type="line"/>
      <point x="319" y="289" type="line"/>
      <point x="547" y="1460" type="line"/>
      <point x="421" y="1460" type="line"/>
      <point x="187" y="258" type="line"/>
    </contour>
    <contour>
      <point x="1184" y="1666" type="line"/>
      <point x="1289" y="1666" type="line"/>
      <point x="1560" y="1898" type="line"/>
      <point x="1425" y="1898" type="line"/>
    </contour>
    <contour>
      <point x="692" y="1666" type="line"/>
      <point x="798" y="1666" type="line"/>
      <point x="1068" y="1898" type="line"/>
      <point x="934" y="1898" type="line"/>
    </contour>
  </outline>
</glyph>
<glyph name="Uogonek" format="2">
  <advance width="1555"/>
  <unicode hex="0172"/>
  <outline>
    <contour>
      <point x="347" y="0" type="line"/>
      <point x="1023" y="0" type="line"/>
      <point x="1272" y="244" type="line"/>
      <point x="1509" y="1460" type="line"/>
      <point x="1383" y="1460" type="line"/>
      <point x="1156" y="295" type="line"/>
      <point x="971" y="110" type="line"/>
      <point x="433" y="110" type="line"/>
      <point x="319" y="289" type="line"/>
      <point x="547" y="1460" type="line"/>
      <point x="421" y="1460" type="line"/>
      <point x="187" y="258" type="line"/>
    </contour>
    <contour>
      <point x="516" y="-132" type="line"/>
      <point x="482" y="-310" type="line"/>
      <point x="612" y="-400" type="line"/>
      <point x="734" y="-400" type="line"/>
      <point x="752" y="-310" type="line"/>
      <point x="661" y="-310" type="line"/>
      <point x="593" y="-262" type="line"/>
      <point x="613" y="-161" type="line"/>
      <point x="812" y="0" type="line"/>
      <point x="738" y="37" type="line"/>
    </contour>
  </outline>
</glyph>
<glyph name="zacute" format="2">
  <advance width="1555"/>
  <unicode hex="017A"/>
  <outline>
    <contour>
      <point x="148" y="0" type="line"/>
      <point x="1226" y="0" type="line"/>
      <point x="1246" y="103" type="line"/>
      <point x="271" y="103" type="line"/>
      <point x="288" y="79" type="line"/>
      <point x="1357" y="918" type="line"/>
      <point x="1343" y="1000" type="line"/>
      <point x="313" y="1000" type="line"/>
      <point x="293" y="896" type="line"/>
      <point x="1202" y="896" type="line"/>
      <point x="1217" y="931" type="line"/>
      <point x="135" y="85" type="line"/>
    </contour>
    <contour>
      <point x="986" y="1274" type="line"/>
      <point x="867" y="1274" type="line"/>
      <point x="1201" y="1597" type="line"/>
      <point x="1354" y="1597" type="line"/>
    </contour>
  </outline>
</glyph>
<glyph name="Zdotaccent" format="2">
  <advance width="1555"/>
  <unicode hex="017B"/>
  <outline>
    <contour>
      <point x="166" y="0" type="line"/>
      <point x="1280" y="0" type="line"/>
      <point x="1301" y="106" type="line"/>
      <point x="255" y="106" type="line"/>
      <point x="269" y="56" type="line"/>
      <point x="1500" y="1374" type="line"/>
      <point x="1477" y="1460" type="line"/>
      <point x="411" y="1459" type="line"/>
      <point x="390" y="1353" type="line"/>
      <point x="1372" y="1353" type="line"/>
      <point x="1372" y="1393" type="line"/>
      <point x="143" y="90" type="line"/>
    </contour>
    <contour>
      <point x="1012" y="1626" type="line"/>
      <point x="1174" y="1756" type="line"/>
      <point x="1063" y="1886" type="line"/>
      <point x="900" y="1756" type="line"/>
    </contour>
  </outline>
</glyph>
<glyph name="Nhookleft" format="2">
  <advance width="1555"/>
  <unicode hex="019D"/>
  <outline>
    <contour>
      <point x="258" y="50" type="line"/>
      <point x="138" y="50" type="line"/>
      <point x="100" y="-142" type="line"/>
      <point x="-49" y="-302" type="line"/>
      <point x="-184" y="-302" type="line"/>
      <point x="-183" y="-400" type="line"/>
      <point x="-4" y="-400" type="line"/>
      <point x="215" y="-172" type="line"/>
    </contour>
    <contour>
      <point x="128" y="0" type="line"/>
      <point x="248" y="0" type="line"/>
      <point x="494" y="1266" type="line"/>
      <point x="506" y="1266" type="line"/>
      <point x="1085" y="1" type="line"/>
      <point x="1216" y="1" type="line"/>
      <point x="1500" y="1461" type="line"/>
      <point x="1380" y="1461" type="line"/>
      <point x="1138" y="214" type="line"/>
      <point x="1126" y="214" type="line"/>
      <point x="545" y="1460" type="line"/>
      <point x="412" y="1460" type="line"/>
    </contour>
  </outline>
</glyph>
<glyph name="Gcaron" format="2">
  <advance width="1555"/>
  <unicode hex="01E6"/>
  <outline>
    <contour>
      <point x="506" y="0" type="line"/>
      <point x="1098" y="0" type="line"/>
      <point x="1325" y="208" type="line"/>
      <point x="1433" y="763" type="line"/>
      <point x="817" y="763" type="line"/>
      <point x="797" y="659" type="line"/>
      <point x="1358" y="659" type="line"/>
      <point x="1310" y="704" type="line"/>
      <point x="1224" y="263" type="line"/>
      <point x="1057" y="110" type="line"/>
      <point x="589" y="110" type="line"/>
      <point x="302" y="566" type="line"/>
      <point x="365" y="890" type="line"/>
      <point x="878" y="1350" type="line"/>
      <point x="1495" y="1350" type="line"/>
      <point x="1497" y="1460" type="line"/>
      <point x="824" y="1460" type="line"/>
      <point x="247" y="930" type="line"/>
      <point x="171" y="540" type="line"/>
    </contour>
    <contour>
      <point x="747" y="1883" type="line"/>
      <point x="894" y="1883" type="line"/>
      <point x="1128" y="1674" type="line"/>
      <point x="1066" y="1674" type="line"/>
      <point x="1383" y="1883" type="line"/>
      <point x="1530" y="1883" type="line"/>
      <point x="1171" y="1650" type="line"/>
      <point x="1015" y="1650" type="line"/>
    </contour>
  </outline>
</glyph>
<glyph name="oogonek" format="2">
  <advance width="1555"/>
  <unicode hex="01EB"/>
  <outline>
    <contour>
      <point x="558" y="0" type="line"/>
      <point x="802" y="0" type="line"/>
      <point x="1354" y="337" type="line"/>
      <point x="1417" y="663" type="line"/>
      <point x="996" y="1000" type="line"/>
      <point x="752" y="1000" type="line"/>
      <point x="202" y="663" type="line"/>
      <point x="139" y="337" type="line"/>
    </contour>
    <contour>
      <point x="609" y="98" type="line"/>
      <point x="263" y="380" type="line"/>
      <point x="308" y="612" type="line"/>
      <point x="777" y="902" type="line"/>
      <point x="945" y="902" type="line"/>
      <point x="1293" y="620" type="line"/>
      <point x="1247" y="388" type="line"/>
      <point x="777" y="98" type="line"/>
    </contour>
    <contour>
      <point x="506" y="-132" type="line"/>
      <point x="472" y="-310" type="line"/>
      <point x="602" y="-400" type="line"/>
      <point x="724" y="-400" type="line"/>
      <point x="742" y="-310" type="line"/>
      <point x="651" y="-310" type="line"/>
      <point x="583" y="-262" type="line"/>
      <point x="603" y="-161" type="line"/>
      <point x="802" y="0" type="line"/>
      <point x="728" y="37" type="line"/>
    </contour>
  </outline>
</glyph>
<glyph name="oslashacute" format="2">
  <advance width="1555"/>
  <unicode hex="01FF"/>
  <outline>
    <contour>
      <point x="442" y="133" type="line"/>
      <point x="1174" y="788" type="line"/>
      <point x="1104" y="858" type="line"/>
      <point x="364" y="196" type="line"/>
    </contour>
    <contour>
      <point x="99" y="-177" type="line"/>
      <point x="467" y="150" type="line"/>
      <point x="371" y="216" type="line"/>
      <point x="23" y="-92" type="line"/>
    </contour>
    <contour>
      <point x="1166" y="768" type="line"/>
      <point x="1533" y="1092" type="line"/>
      <point x="1458" y="1177" type="line"/>
      <point x="1077" y="841" type="line"/>
    </contour>
    <contour>
      <point x="559" y="0" type="line"/>
      <point x="803" y="0" type="line"/>
      <point x="1355" y="337" type="line"/>
      <point x="1418" y="663" type="line"/>
      <point x="997" y="1000" type="line"/>
      <point x="753" y="1000" type="line"/>
      <point x="203" y="663" type="line"/>
      <point x="140" y="337" type="line"/>
    </contour>
    <contour>
      <point x="610" y="98" type="line"/>
      <point x="264" y="380" type="line"/>
      <point x="309" y="612" type="line"/>
      <point x="778" y="902" type="line"/>
      <point x="946" y="902" type="line"/>
      <point x="1294" y="620" type="line"/>
      <point x="1248" y="388" type="line"/>
      <point x="778" y="98" type="line"/>
    </contour>
    <contour>
      <point x="979" y="1274" type="line"/>
      <point x="860" y="1274" type="line"/>
      <point x="1194" y="1597" type="line"/>
      <point x="1347" y="1597" type="line"/>
    </contour>
  </outline>
</glyph>
<glyph name="Scommaaccent" format="2">
  <advance width="1555"/>
  <unicode hex="0218"/>
  <outline>
    <contour>
      <point x="172" y="0" type="line"/>
      <point x="938" y="0" type="line"/>
      <point x="1247" y="269" type="line"/>
      <point x="1287" y="472" type="line"/>
      <point x="474" y="1039" type="line"/>
      <point x="491" y="1129" type="line"/>
      <point x="760" y="1362" type="line"/>
      <point x="1430" y="1362" type="line"/>
      <point x="1429" y="1460" type="line"/>
      <point x="703" y="1460" type="line"/>
      <point x="394" y="1191" type="line"/>
      <point x="354" y="988" type="line"/>
      <point x="1168" y="421" type="line"/>
      <point x="1150" y="331" type="line"/>
      <point x="882" y="98" type="line"/>
      <point x="171" y="98" type="line"/>
    </contour>
    <contour>
      <point x="485" y="-527" type="line"/>
      <point x="638" y="-527" type="line"/>
      <point x="648" y="-471" type="line"/>
      <point x="421" y="-707" type="line"/>
      <point x="488" y="-747" type="line"/>
      <point x="700" y="-527" type="line"/>
      <point x="741" y="-312" type="line"/>
      <point x="526" y="-312" type="line"/>
    </contour>
  </outline>
</glyph>
<glyph name="scommaaccent" format="2">
  <advance width="1555"/>
  <unicode hex="0219"/>
  <outline>
    <contour>
      <point x="143" y="0" type="line"/>
      <point x="1031" y="0" type="line"/>
      <point x="1278" y="209" type="line"/>
      <point x="1309" y="372" type="line"/>
      <point x="388" y="695" type="line"/>
      <point x="399" y="752" type="line"/>
      <point x="579" y="902" type="line"/>
      <point x="1400" y="902" type="line"/>
      <point x="1399" y="1000" type="line"/>
      <point x="541" y="1000" type="line"/>
      <point x="295" y="791" type="line"/>
      <point x="265" y="637" type="line"/>
      <point x="1186" y="314" type="line"/>
      <point x="1173" y="249" type="line"/>
      <point x="993" y="98" type="line"/>
      <point x="142" y="98" type="line"/>
    </contour>
    <contour>
      <point x="501" y="-527" type="line"/>
      <point x="654" y="-527" type="line"/>
      <point x="664" y="-471" type="line"/>
      <point x="437" y="-707" type="line"/>
      <point x="504" y="-747" type="line"/>
      <point x="716" y="-527" type="line"/>
      <point x="757" y="-312" type="line"/>
      <point x="542" y="-312" type="line"/>
    </contour>
  </outline>
</glyph>
<glyph name="Tcommaaccent" format="2">
  <advance width="1555"/>
  <unicode hex="021A"/>
  <outline>
    <contour>
      <point x="607" y="0" type="line"/>
      <point x="733" y="0" type="line"/>
      <point x="1017" y="1460" type="line"/>
      <point x="891" y="1460" type="line"/>
    </contour>
    <contour>
      <point x="339" y="1350" type="line"/>
      <point x="1545" y="1350" type="line"/>
      <point x="1552" y="1460" type="line"/>
      <point x="376" y="1460" type="line"/>
    </contour>
    <contour>
      <point x="478" y="-527" type="line"/>
      <point x="631" y="-527" type="line"/>
      <point x="641" y="-471" type="line"/>
      <point x="414" y="-707" type="line"/>
      <point x="481" y="-747" type="line"/>
      <point x="693" y="-527" type="line"/>
      <point x="734" y="-312" type="line"/>
      <point x="519" y="-312" type="line"/>
    </contour>
  </outline>
</glyph>
<glyph name="jdotless" format="2">
  <advance width="1555"/>
  <unicode hex="0237"/>
  <outline>
    <contour>
      <point x="137" y="-400" type="line"/>
      <point x="559" y="-400" type="line"/>
      <point x="854" y="-112" type="line"/>
      <point x="1058" y="935" type="line"/>
      <point x="1009" y="1000" type="line"/>
      <point x="461" y="1000" type="line"/>
      <point x="422" y="902" type="line"/>
      <point x="973" y="902" type="line"/>
      <point x="934" y="938" type="line"/>
      <point x="736" y="-82" type="line"/>
      <point x="514" y="-302" type="line"/>
      <point x="136" y="-302" type="line"/>
    </contour>
  </outline>
</glyph>
<glyph name="circumflex" format="2">
  <advance width="1555"/>
  <unicode hex="02C6"/>
  <outline>
    <contour>
      <point x="536" y="1274" type="line"/>
      <point x="673" y="1274" type="line"/>
      <point x="1014" y="1562" type="line"/>
      <point x="952" y="1562" type="line"/>
      <point x="1182" y="1274" type="line"/>
      <point x="1319" y="1274" type="line"/>
      <point x="1047" y="1597" type="line"/>
      <point x="931" y="1597" type="line"/>
    </contour>
  </outline>
</glyph>
<glyph name="dotaccent" format="2">
  <advance width="1555"/>
  <unicode hex="02D9"/>
  <outline>
    <contour>
      <point x="928" y="1276" type="line"/>
      <point x="1090" y="1406" type="line"/>
      <point x="979" y="1536" type="line"/>
      <point x="816" y="1406" type="line"/>
    </contour>
  </outline>
</glyph>
<glyph name="hungarumlaut" format="2">
  <advance width="1555"/>
  <unicode hex="02DD"/>
  <outline>
    <contour>
      <point x="1109" y="1294" type="line"/>
      <point x="1214" y="1294" type="line"/>
      <point x="1502" y="1617" type="line"/>
      <point x="1367" y="1617" type="line"/>
    </contour>
    <contour>
      <point x="617" y="1294" type="line"/>
      <point x="723" y="1294" type="line"/>
      <point x="1010" y="1617" type="line"/>
      <point x="876" y="1617" type="line"/>
    </contour>
  </outline>
</glyph>
<glyph name="gravecomb" format="2">
  <unicode hex="0300"/>
  <outline>
    <contour>
      <point x="871" y="1274" type="line"/>
      <point x="990" y="1274" type="line"/>
      <point x="780" y="1597" type="line"/>
      <point x="627" y="1597" type="line"/>
    </contour>
  </outline>
</glyph>
<glyph name="acutecomb" format="2">
  <unicode hex="0301"/>
  <outline>
    <contour>
      <point x="985" y="1274" type="line"/>
      <point x="866" y="1274" type="line"/>
      <point x="1200" y="1597" type="line"/>
      <point x="1353" y="1597" type="line"/>
    </contour>
  </outline>
</glyph>
<glyph name="circumflexcomb" format="2">
  <unicode hex="0302"/>
  <outline>
    <contour>
      <point x="536" y="1274" type="line"/>
      <point x="673" y="1274" type="line"/>
      <point x="1014" y="1562" type="line"/>
      <point x="952" y="1562" type="line"/>
      <point x="1182" y="1274" type="line"/>
      <point x="1319" y="1274" type="line"/>
      <point x="1047" y="1597" type="line"/>
      <point x="931" y="1597" type="line"/>
    </contour>
  </outline>
</glyph>
<glyph name="dotaccentcomb" format="2">
  <unicode hex="0307"/>
  <outline>
    <contour>
      <point x="928" y="1276" type="line"/>
      <point x="1090" y="1406" type="line"/>
      <point x="979" y="1536" type="line"/>
      <point x="816" y="1406" type="line"/>
    </contour>
  </outline>
</glyph>
<glyph name="dieresiscomb" format="2">
  <unicode hex="0308"/>
  <outline>
    <contour>
      <point x="622" y="1276" type="line"/>
      <point x="784" y="1406" type="line"/>
      <point x="673" y="1536" type="line"/>
      <point x="510" y="1406" type="line"/>
    </contour>
    <contour>
      <point x="1234" y="1276" type="line"/>
      <point x="1396" y="1406" type="line"/>
      <point x="1285" y="1536" type="line"/>
      <point x="1122" y="1406" type="line"/>
    </contour>
  </outline>
</glyph>
<glyph name="caroncomb" format="2">
  <unicode hex="030C"/>
  <outline>
    <contour>
      <point x="599" y="1597" type="line"/>
      <point x="736" y="1597" type="line"/>
      <point x="965" y="1309" type="line"/>
      <point x="903" y="1309" type="line"/>
      <point x="1245" y="1597" type="line"/>
      <point x="1382" y="1597" type="line"/>
      <point x="986" y="1274" type="line"/>
      <point x="870" y="1274" type="line"/>
    </contour>
  </outline>
</glyph>
<glyph name="dotbelowcomb" format="2">
  <unicode hex="0323"/>
  <outline>
    <contour>
      <point x="574" y="-546" type="line"/>
      <point x="736" y="-416" type="line"/>
      <point x="624" y="-286" type="line"/>
      <point x="462" y="-416" type="line"/>
    </contour>
  </outline>
</glyph>
<glyph name="commaaccentcomb" format="2">
  <unicode hex="0326"/>
  <outline>
    <contour>
      <point x="485" y="-527" type="line"/>
      <point x="638" y="-527" type="line"/>
      <point x="648" y="-471" type="line"/>
      <point x="421" y="-707" type="line"/>
      <point x="488" y="-747" type="line"/>
      <point x="700" y="-527" type="line"/>
      <point x="741" y="-312" type="line"/>
      <point x="526" y="-312" type="line"/>
    </contour>
  </outline>
</glyph>
<glyph name="ogonekcomb" format="2">
  <unicode hex="0328"/>
  <outline>
    <contour>
      <point x="357" y="-132" type="line"/>
      <point x="323" y="-310" type="line"/>
      <point x="453" y="-400" type="line"/>
      <point x="575" y="-400" type="line"/>
      <point x="593" y="-310" type="line"/>
      <point x="502" y="-310" type="line"/>
      <point x="434" y="-262" type="line"/>
      <point x="454" y="-161" type="line"/>
      <point x="653" y="0" type="line"/>
      <point x="579" y="37" type="line"/>
    </contour>
  </outline>
</glyph>
<glyph name="Wacute" format="2">
  <advance width="1555"/>
  <unicode hex="1E82"/>
  <outline>
    <contour>
      <point x="367" y="0" type="line"/>
      <point x="486" y="0" type="line"/>
      <point x="849" y="714" type="line"/>
      <point x="792" y="714" type="line"/>
      <point x="874" y="0" type="line"/>
      <point x="993" y="0" type="line"/>
      <point x="1391" y="739" type="line"/>
      <point x="1531" y="1460" type="line"/>
      <point x="1402" y="1460" type="line"/>
      <point x="1267" y="767" type="line"/>
      <point x="913" y="80" type="line"/>
      <point x="967" y="80" type="line"/>
      <point x="890" y="771" type="line"/>
      <point x="937" y="1013" type="line"/>
      <point x="811" y="1013" type="line"/>
      <point x="763" y="767" type="line"/>
      <point x="419" y="80" type="line"/>
      <point x="473" y="80" type="line"/>
      <point x="386" y="771" type="line"/>
      <point x="520" y="1460" type="line"/>
      <point x="397" y="1460" type="line"/>
      <point x="257" y="739" type="line"/>
    </contour>
    <contour>
      <point x="1050" y="1652" type="line"/>
      <point x="931" y="1652" type="line"/>
      <point x="1248" y="1884" type="line"/>
      <point x="1401" y="1884" type="line"/>
    </contour>
  </outline>
</glyph>
<glyph name="wacute" format="2">
  <advance width="1555"/>
  <unicode hex="1E83"/>
  <outline>
    <contour>
      <point x="380" y="0" type="line"/>
      <point x="500" y="0" type="line"/>
      <point x="804" y="498" type="line"/>
      <point x="750" y="498" type="line"/>
      <point x="860" y="0" type="line"/>
      <point x="980" y="0" type="line"/>
      <point x="1353" y="545" type="line"/>
      <point x="1441" y="1000" type="line"/>
      <point x="1315" y="1000" type="line"/>
      <point x="1232" y="573" type="line"/>
      <point x="914" y="90" type="line"/>
      <point x="948" y="90" type="line"/>
      <point x="849" y="577" type="line"/>
      <point x="878" y="725" type="line"/>
      <point x="760" y="725" type="line"/>
      <point x="730" y="573" type="line"/>
      <point x="442" y="90" type="line"/>
      <point x="476" y="90" type="line"/>
      <point x="347" y="577" type="line"/>
      <point x="429" y="1000" type="line"/>
      <point x="307" y="1000" type="line"/>
      <point x="219" y="545" type="line"/>
    </contour>
    <contour>
      <point x="977" y="1274" type="line"/>
      <point x="858" y="1274" type="line"/>
      <point x="1192" y="1597" type="line"/>
      <point x="1345" y="1597" type="line"/>
    </contour>
  </outline>
</glyph>
<glyph name="Adotbelow" format="2">
  <advance width="1555"/>
  <unicode hex="1EA0"/>
  <outline>
    <contour>
      <point x="137" y="0" type="line"/>
      <point x="269" y="0" type="line"/>
      <point x="429" y="821" type="line"/>
      <point x="975" y="1380" type="line"/>
      <point x="935" y="1380" type="line"/>
      <point x="1265" y="825" type="line"/>
      <point x="1105" y="0" type="line"/>
      <point x="1225" y="0" type="line"/>
      <point x="1392" y="861" type="line"/>
      <point x="1038" y="1460" type="line"/>
      <point x="892" y="1460" type="line"/>
      <point x="304" y="861" type="line"/>
    </contour>
    <contour>
      <point x="303" y="449" type="line"/>
      <point x="1228" y="449" type="line"/>
      <point x="1248" y="552" type="line"/>
      <point x="323" y="552" type="line"/>
    </contour>
    <contour>
      <point x="575" y="-546" type="line"/>
      <point x="737" y="-416" type="line"/>
      <point x="625" y="-286" type="line"/>
      <point x="463" y="-416" type="line"/>
    </contour>
  </outline>
</glyph>
<glyph name="Udotbelow" format="2">
  <advance width="1555"/>
  <unicode hex="1EE4"/>
  <outline>
    <contour>
      <point x="347" y="0" type="line"/>
      <point x="1023" y="0" type="line"/>
      <point x="1272" y="244" type="line"/>
      <point x="1509" y="1460" type="line"/>
      <point x="1383" y="1460" type="line"/>
      <point x="1156" y="295" type="line"/>
      <point x="971" y="110" type="line"/>
      <point x="433" y="110" type="line"/>
      <point x="319" y="289" type="line"/>
      <point x="547" y="1460" type="line"/>
      <point x="421" y="1460" type="line"/>
      <point x="187" y="258" type="line"/>
    </contour>
    <contour>
      <point x="575" y="-546" type="line"/>
      <point x="737" y="-416" type="line"/>
      <point x="625" y="-286" type="line"/>
      <point x="463" y="-416" type="line"/>
    </contour>
  </outline>
</glyph>
<glyph name="udotbelow" format="2">
  <advance width="1555"/>
  <unicode hex="1EE5"/>
  <outline>
    <contour>
      <point x="459" y="1000" type="line"/>
      <point x="333" y="1000" type="line"/>
      <point x="182" y="219" type="line"/>
      <point x="454" y="-23" type="line"/>
      <point x="1190" y="136" type="line"/>
      <point x="1206" y="218" type="line"/>
      <point x="514" y="93" type="line"/>
      <point x="316" y="263" type="line"/>
    </contour>
    <contour>
      <point x="1417" y="1000" type="line"/>
      <point x="1293" y="1000" type="line"/>
      <point x="1127" y="142" type="line"/>
      <point x="1136" y="0" type="line"/>
      <point x="1223" y="0" type="line"/>
    </contour>
    <contour>
      <point x="576" y="-546" type="line"/>
      <point x="738" y="-416" type="line"/>
      <point x="626" y="-286" type="line"/>
      <point x="464" y="-416" type="line"/>
    </contour>
  </outline>
</glyph>
<glyph name="ytilde" format="2">
  <advance width="1555"/>
  <unicode hex="1EF9"/>
  <outline>
    <contour>
      <point x="180" y="-400" type="line"/>
      <point x="806" y="-400" type="line"/>
      <point x="1183" y="-112" type="line"/>
      <point x="1399" y="1000" type="line"/>
      <point x="1283" y="1000" type="line"/>
      <point x="1146" y="294" type="line"/>
      <point x="1138" y="254" type="line"/>
      <point x="1073" y="-82" type="line"/>
      <point x="769" y="-302" type="line"/>
      <point x="179" y="-302" type="line"/>
    </contour>
    <contour>
      <point x="454" y="79" type="line"/>
      <point x="1171" y="237" type="line"/>
      <point x="1188" y="324" type="line"/>
      <point x="515" y="199" type="line"/>
      <point x="312" y="366" type="line"/>
      <point x="435" y="1000" type="line"/>
      <point x="309" y="1000" type="line"/>
      <point x="178" y="323" type="line"/>
    </contour>
    <contour>
      <point x="878" y="1577" type="line"/>
      <point x="690" y="1577" type="line"/>
      <point x="479" y="1419" type="line"/>
      <point x="449" y="1267" type="line"/>
      <point x="539" y="1267" type="line"/>
      <point x="561" y="1378" type="line"/>
      <point x="710" y="1489" type="line"/>
      <point x="811" y="1489" type="line"/>
      <point x="1000" y="1267" type="line"/>
      <point x="1188" y="1267" type="line"/>
      <point x="1399" y="1425" type="line"/>
      <point x="1429" y="1577" type="line"/>
      <point x="1339" y="1577" type="line"/>
      <point x="1317" y="1466" type="line"/>
      <point x="1167" y="1355" type="line"/>
      <point x="1066" y="1355" type="line"/>
    </contour>
  </outline>
</glyph>
<glyph name="quoteleft" format="2">
  <advance width="1555"/>
  <unicode hex="2018"/>
  <outline>
    <contour>
      <point x="738" y="1108" type="curve" smooth="yes"/>
      <point x="716" y="1108"/>
      <point x="690" y="1105"/>
      <point x="658" y="1093" type="curve"/>
      <point x="674" y="1071" type="line"/>
      <point x="721" y="1194"/>
      <point x="822" y="1309"/>
      <point x="973" y="1434" type="curve"/>
      <point x="914" y="1494" type="line"/>
      <point x="749" y="1369"/>
      <point x="585" y="1188"/>
      <point x="549" y="1005" type="curve" smooth="yes"/>
      <point x="521" y="860"/>
      <point x="590" y="797"/>
      <point x="684" y="797" type="curve" smooth="yes"/>
      <point x="771" y="797"/>
      <point x="852" y="851"/>
      <point x="872" y="951" type="curve" smooth="yes"/>
      <point x="891" y="1047"/>
      <point x="837" y="1108"/>
    </contour>
  </outline>
</glyph>
<glyph name="quotesinglbase" format="2">
  <advance width="1555"/>
  <unicode hex="201A"/>
  <outline>
    <contour>
      <point x="832" y="-32" type="curve" smooth="yes"/>
      <point x="854" y="-32"/>
      <point x="880" y="-29"/>
      <point x="912" y="-17" type="curve"/>
      <point x="896" y="5" type="line"/>
      <point x="849" y="-118"/>
      <point x="748" y="-233"/>
      <point x="597" y="-358" type="curve"/>
      <point x="656" y="-418" type="line"/>
      <point x="821" y="-293"/>
      <point x="985" y="-112"/>
      <point x="1021" y="71" type="curve" smooth="yes"/>
      <point x="1049" y="216"/>
      <point x="980" y="279"/>
      <point x="886" y="279" type="curve" smooth="yes"/>
      <point x="799" y="279"/>
      <point x="718" y="225"/>
      <point x="698" y="125" type="curve" smooth="yes"/>
      <point x="680" y="29"/>
      <point x="733" y="-32"/>
    </contour>
  </outline>
</glyph>
<glyph name="quotedblright" format="2">
  <advance width="1555"/>
  <unicode hex="201D"/>
  <outline>
    <contour>
      <point x="775" y="1173" type="curve" smooth="yes"/>
      <point x="797" y="1173"/>
      <point x="824" y="1176"/>
      <point x="855" y="1188" type="curve"/>
      <point x="839" y="1210" type="line"/>
      <point x="792" y="1087"/>
      <point x="691" y="972"/>
      <point x="541" y="847" type="curve"/>
      <point x="599" y="787" type="line"/>
      <point x="764" y="912"/>
      <point x="928" y="1093"/>
      <point x="964" y="1276" type="curve" smooth="yes"/>
      <point x="992" y="1421"/>
      <point x="923" y="1484"/>
      <point x="829" y="1484" type="curve" smooth="yes"/>
      <point x="742" y="1484"/>
      <point x="661" y="1430"/>
      <point x="642" y="1330" type="curve" smooth="yes"/>
      <point x="623" y="1234"/>
      <point x="676" y="1173"/>
    </contour>
    <contour>
      <point x="1390" y="1173" type="curve" smooth="yes"/>
      <point x="1412" y="1173"/>
      <point x="1439" y="1176"/>
      <point x="1470" y="1188" type="curve"/>
      <point x="1454" y="1210" type="line"/>
      <point x="1407" y="1087"/>
      <point x="1306" y="972"/>
      <point x="1156" y="847" type="curve"/>
      <point x="1214" y="787" type="line"/>
      <point x="1379" y="912"/>
      <point x="1543" y="1093"/>
      <point x="1579" y="1276" type="curve" smooth="yes"/>
      <point x="1607" y="1421"/>
      <point x="1538" y="1484"/>
      <point x="1444" y="1484" type="curve" smooth="yes"/>
      <point x="1357" y="1484"/>
      <point x="1276" y="1430"/>
      <point x="1257" y="1330" type="curve" smooth="yes"/>
      <point x="1238" y="1234"/>
      <point x="1291" y="1173"/>
    </contour>
  </outline>
</glyph>
<glyph name="dagger" format="2">
  <advance width="1555"/>
  <unicode hex="2020"/>
  <outline>
    <contour>
      <point x="705" y="-200" type="line"/>
      <point x="1028" y="1460" type="line"/>
      <point x="902" y="1460" type="line"/>
      <point x="579" y="-200" type="line"/>
    </contour>
    <contour>
      <point x="373" y="900" type="line"/>
      <point x="1339" y="900" type="line"/>
      <point x="1360" y="1010" type="line"/>
      <point x="394" y="1010" type="line"/>
    </contour>
  </outline>
</glyph>
<glyph name="bullet" format="2">
  <advance width="1555"/>
  <unicode hex="2022"/>
  <outline>
    <contour>
      <point x="767" y="416" type="curve" smooth="yes"/>
      <point x="898" y="416"/>
      <point x="1010" y="496"/>
      <point x="1038" y="638" type="curve" smooth="yes"/>
      <point x="1066" y="784"/>
      <point x="974" y="872"/>
      <point x="844" y="872" type="curve" smooth="yes"/>
      <point x="714" y="872"/>
      <point x="603" y="795"/>
      <point x="574" y="650" type="curve" smooth="yes"/>
      <point x="547" y="508"/>
      <point x="638" y="416"/>
    </contour>
  </outline>
</glyph>
<glyph name="guilsinglleft" format="2">
  <advance width="1555"/>
  <unicode hex="2039"/>
  <outline>
    <contour>
      <point x="896" y="41" type="line"/>
      <point x="575" y="536" type="line"/>
      <point x="460" y="500" type="line"/>
      <point x="799" y="-24" type="line"/>
    </contour>
    <contour>
      <point x="1003" y="1024" type="line"/>
      <point x="460" y="500" type="line"/>
      <point x="558" y="455" type="line"/>
      <point x="1072" y="947" type="line"/>
    </contour>
  </outline>
</glyph>
<glyph name="guilsinglright" format="2">
  <advance width="1555"/>
  <unicode hex="203A"/>
  <outline>
    <contour>
      <point x="659" y="959" type="line"/>
      <point x="980" y="464" type="line"/>
      <point x="1095" y="500" type="line"/>
      <point x="756" y="1024" type="line"/>
    </contour>
    <contour>
      <point x="552" y="-24" type="line"/>
      <point x="1095" y="500" type="line"/>
      <point x="997" y="545" type="line"/>
      <point x="483" y="53" type="line"/>
    </contour>
  </outline>
</glyph>
<glyph name="sevensuperior" format="2">
  <advance width="1555"/>
  <unicode hex="2077"/>
  <outline>
    <contour>
      <point x="792" y="1655" type="line"/>
      <point x="776" y="1575" type="line"/>
      <point x="1141" y="1575" type="line"/>
      <point x="1111" y="1602" type="line"/>
      <point x="790" y="1100" type="line"/>
      <point x="892" y="1100" type="line"/>
      <point x="1206" y="1595" type="line"/>
      <point x="1218" y="1655" type="line"/>
    </contour>
  </outline>
</glyph>
<glyph name="seveninferior" format="2">
  <advance width="1555"/>
  <unicode hex="2087"/>
  <outline>
    <contour>
      <point x="523" y="275" type="line"/>
      <point x="508" y="195" type="line"/>
      <point x="873" y="195" type="line"/>
      <point x="843" y="222" type="line"/>
      <point x="522" y="-280" type="line"/>
      <point x="624" y="-280" type="line"/>
      <point x="938" y="215" type="line"/>
      <point x="949" y="275" type="line"/>
    </contour>
  </outline>
</glyph>
<glyph name="eightinferior" format="2">
  <advance width="1555"/>
  <unicode hex="2088"/>
  <outline>
    <contour>
      <point x="731" y="284" type="curve" smooth="yes"/>
      <point x="607" y="284"/>
      <point x="518" y="248"/>
      <point x="498" y="142" type="curve" smooth="yes"/>
      <point x="483" y="68"/>
      <point x="534" y="10"/>
      <point x="636" y="-28" type="curve" smooth="yes"/>
      <point x="735" y="-65"/>
      <point x="793" y="-86"/>
      <point x="784" y="-135" type="curve" smooth="yes"/>
      <point x="775" y="-182"/>
      <point x="722" y="-211"/>
      <point x="644" y="-211" type="curve" smooth="yes"/>
      <point x="568" y="-211"/>
      <point x="508" y="-194"/>
      <point x="521" y="-128" type="curve" smooth="yes"/>
      <point x="535" y="-57"/>
      <point x="623" y="-29"/>
      <point x="686" y="-8" type="curve"/>
      <point x="649" y="22" type="line"/>
      <point x="524" y="-4"/>
      <point x="441" y="-47"/>
      <point x="425" y="-129" type="curve" smooth="yes"/>
      <point x="404" y="-236"/>
      <point x="477" y="-289"/>
      <point x="632" y="-289" type="curve" smooth="yes"/>
      <point x="777" y="-289"/>
      <point x="864" y="-246"/>
      <point x="886" y="-135" type="curve" smooth="yes"/>
      <point x="902" y="-53"/>
      <point x="834" y="0"/>
      <point x="719" y="37" type="curve" smooth="yes"/>
      <point x="623" y="68"/>
      <point x="584" y="98"/>
      <point x="592" y="140" type="curve" smooth="yes"/>
      <point x="602" y="188"/>
      <point x="651" y="207"/>
      <point x="720" y="207" type="curve" smooth="yes"/>
      <point x="794" y="207"/>
      <point x="838" y="184"/>
      <point x="827" y="131" type="curve" smooth="yes"/>
      <point x="815" y="67"/>
      <point x="734" y="43"/>
      <point x="669" y="22" type="curve"/>
      <point x="716" y="-13" type="line"/>
      <point x="803" y="9"/>
      <point x="901" y="40"/>
      <point x="919" y="132" type="curve" smooth="yes"/>
      <point x="938" y="234"/>
      <point x="849" y="284"/>
    </contour>
  </outline>
</glyph>
<glyph name="colonsign" format="2">
  <advance width="1555"/>
  <unicode hex="20A1"/>
  <outline>
    <contour>
      <point x="355" y="-315" type="line"/>
      <point x="253" y="-315" type="line"/>
      <point x="1058" y="1775" type="line"/>
      <point x="1160" y="1775" type="line"/>
    </contour>
    <contour>
      <point x="668" y="-315" type="line"/>
      <point x="566" y="-315" type="line"/>
      <point x="1371" y="1775" type="line"/>
      <point x="1473" y="1775" type="line"/>
    </contour>
    <contour>
      <point x="1538" y="1390" type="curve"/>
      <point x="1475" y="1283" type="line"/>
      <point x="1366" y="1336"/>
      <point x="1226" y="1366"/>
      <point x="1073" y="1366" type="curve" smooth="yes"/>
      <point x="709" y="1366"/>
      <point x="398" y="1196"/>
      <point x="308" y="729" type="curve" smooth="yes"/>
      <point x="218" y="265"/>
      <point x="461" y="95"/>
      <point x="825" y="95" type="curve" smooth="yes"/>
      <point x="978" y="95"/>
      <point x="1130" y="125"/>
      <point x="1261" y="178" type="curve"/>
      <point x="1282" y="71" type="line"/>
      <point x="1135" y="13"/>
      <point x="991" y="-22"/>
      <point x="811" y="-22" type="curve" smooth="yes"/>
      <point x="342" y="-22"/>
      <point x="70" y="221"/>
      <point x="171" y="739" type="curve" smooth="yes"/>
      <point x="272" y="1260"/>
      <point x="614" y="1483"/>
      <point x="1083" y="1483" type="curve" smooth="yes"/>
      <point x="1263" y="1483"/>
      <point x="1413" y="1448"/>
    </contour>
  </outline>
</glyph>
<glyph name="euro" format="2">
  <advance width="1555"/>
  <unicode hex="20AC"/>
  <outline>
    <contour>
      <point x="1066" y="630" type="line"/>
      <point x="1007" y="521" type="line"/>
      <point x="124" y="521" type="line"/>
      <point x="145" y="630" type="line"/>
    </contour>
    <contour>
      <point x="1227" y="941" type="line"/>
      <point x="1173" y="832" type="line"/>
      <point x="185" y="832" type="line"/>
      <point x="206" y="941" type="line"/>
    </contour>
    <contour>
      <point x="1542" y="1404" type="curve"/>
      <point x="1482" y="1298" type="line"/>
      <point x="1397" y="1343"/>
      <point x="1294" y="1366"/>
      <point x="1171" y="1366" type="curve" smooth="yes"/>
      <point x="856" y="1366"/>
      <point x="612" y="1216"/>
      <point x="518" y="729" type="curve" smooth="yes"/>
      <point x="424" y="245"/>
      <point x="608" y="95"/>
      <point x="923" y="95" type="curve" smooth="yes"/>
      <point x="1046" y="95"/>
      <point x="1159" y="118"/>
      <point x="1262" y="163" type="curve"/>
      <point x="1280" y="57" type="line"/>
      <point x="1161" y="4"/>
      <point x="1060" y="-22"/>
      <point x="915" y="-22" type="curve" smooth="yes"/>
      <point x="498" y="-22"/>
      <point x="276" y="201"/>
      <point x="381" y="739" type="curve" smooth="yes"/>
      <point x="486" y="1280"/>
      <point x="770" y="1483"/>
      <point x="1187" y="1483" type="curve" smooth="yes"/>
      <point x="1332" y="1483"/>
      <point x="1443" y="1457"/>
    </contour>
  </outline>
</glyph>
<glyph name="ruble" format="2">
  <advance width="1555"/>
  <unicode hex="20BD"/>
  <outline>
    <contour>
      <point x="419" y="0" type="line"/>
      <point x="703" y="1460" type="line"/>
      <point x="577" y="1460" type="line"/>
      <point x="293" y="0" type="line"/>
    </contour>
    <contour>
      <point x="182" y="665" type="line"/>
      <point x="161" y="556" type="line"/>
      <point x="784" y="556" type="line" smooth="yes"/>
      <point x="1199" y="556"/>
      <point x="1420" y="758"/>
      <point x="1475" y="1041" type="curve" smooth="yes"/>
      <point x="1536" y="1354"/>
      <point x="1332" y="1460"/>
      <point x="1020" y="1460" type="curve" smooth="yes"/>
      <point x="666" y="1460" type="line"/>
      <point x="644" y="1350" type="line"/>
      <point x="994" y="1350" type="line" smooth="yes"/>
      <point x="1269" y="1350"/>
      <point x="1396" y="1272"/>
      <point x="1351" y="1039" type="curve" smooth="yes"/>
      <point x="1306" y="806"/>
      <point x="1136" y="665"/>
      <point x="791" y="665" type="curve" smooth="yes"/>
    </contour>
    <contour>
      <point x="1068" y="259" type="line"/>
      <point x="1090" y="368" type="line"/>
      <point x="125" y="368" type="line"/>
      <point x="103" y="259" type="line"/>
    </contour>
  </outline>
</glyph>
<glyph name="literSign" format="2">
  <advance width="1555"/>
  <unicode hex="2113"/>
  <outline>
    <contour>
      <point x="872" y="-23" type="curve" smooth="yes"/>
      <point x="983" y="-23"/>
      <point x="1086" y="-1"/>
      <point x="1211" y="37" type="curve"/>
      <point x="1200" y="144" type="line"/>
      <point x="1082" y="108"/>
      <point x="994" y="92"/>
      <point x="908" y="92" type="curve" smooth="yes"/>
      <point x="675" y="92"/>
      <point x="579" y="212"/>
      <point x="679" y="727" type="curve" smooth="yes"/>
      <point x="776" y="1226"/>
      <point x="928" y="1371"/>
      <point x="1074" y="1371" type="curve" smooth="yes"/>
      <point x="1166" y="1371"/>
      <point x="1228" y="1314"/>
      <point x="1198" y="1158" type="curve" smooth="yes"/>
      <point x="1127" y="791"/>
      <point x="677" y="505"/>
      <point x="149" y="275" type="curve"/>
      <point x="172" y="180" type="line"/>
      <point x="724" y="401"/>
      <point x="1238" y="712"/>
      <point x="1326" y="1165" type="curve" smooth="yes"/>
      <point x="1361" y="1343"/>
      <point x="1299" y="1483"/>
      <point x="1092" y="1483" type="curve" smooth="yes"/>
      <point x="839" y="1483"/>
      <point x="665" y="1284"/>
      <point x="552" y="703" type="curve" smooth="yes"/>
      <point x="438" y="116"/>
      <point x="585" y="-23"/>
    </contour>
  </outline>
</glyph>
<glyph name="onethird" format="2">
  <advance width="1555"/>
  <unicode hex="2153"/>
  <outline>
    <contour>
      <point x="369" y="1364" type="curve"/>
      <point x="350" y="1267" type="line"/>
      <point x="446" y="1267"/>
      <point x="587" y="1370"/>
      <point x="605" y="1460" type="curve"/>
      <point x="533" y="1460" type="line"/>
      <point x="513" y="1404"/>
      <point x="416" y="1364"/>
    </contour>
    <contour>
      <point x="523" y="905" type="line"/>
      <point x="631" y="1460" type="line"/>
      <point x="533" y="1460" type="line"/>
      <point x="425" y="905" type="line"/>
    </contour>
    <contour>
      <point x="264" y="905" type="line"/>
      <point x="687" y="905" type="line"/>
      <point x="702" y="985" type="line"/>
      <point x="279" y="985" type="line"/>
    </contour>
    <contour>
      <point x="1338" y="1214" type="line"/>
      <point x="246" y="300" type="line"/>
      <point x="303" y="230" type="line"/>
      <point x="1394" y="1144" type="line"/>
    </contour>
    <contour>
      <point x="1089" y="564" type="curve" smooth="yes"/>
      <point x="960" y="564"/>
      <point x="883" y="508"/>
      <point x="860" y="406" type="curve"/>
      <point x="949" y="397" type="line"/>
      <point x="972" y="468"/>
      <point x="1017" y="487"/>
      <point x="1083" y="487" type="curve" smooth="yes"/>
      <point x="1153" y="487"/>
      <point x="1192" y="467"/>
      <point x="1181" y="409" type="curve" smooth="yes"/>
      <point x="1169" y="348"/>
      <point x="1099" y="310"/>
      <point x="1003" y="310" type="curve" smooth="yes"/>
      <point x="989" y="310" type="line"/>
      <point x="975" y="239" type="line"/>
      <point x="990" y="239" type="line" smooth="yes"/>
      <point x="1082" y="239"/>
      <point x="1155" y="214"/>
      <point x="1143" y="154" type="curve" smooth="yes"/>
      <point x="1132" y="96"/>
      <point x="1083" y="69"/>
      <point x="1004" y="69" type="curve" smooth="yes"/>
      <point x="929" y="69"/>
      <point x="889" y="89"/>
      <point x="892" y="164" type="curve"/>
      <point x="797" y="155" type="line"/>
      <point x="778" y="47"/>
      <point x="848" y="-9"/>
      <point x="995" y="-9" type="curve" smooth="yes"/>
      <point x="1139" y="-9"/>
      <point x="1222" y="42"/>
      <point x="1242" y="144" type="curve" smooth="yes"/>
      <point x="1263" y="252"/>
      <point x="1177" y="286"/>
      <point x="1080" y="292" type="curve"/>
      <point x="1075" y="265" type="line"/>
      <point x="1157" y="272"/>
      <point x="1257" y="308"/>
      <point x="1277" y="410" type="curve" smooth="yes"/>
      <point x="1296" y="508"/>
      <point x="1221" y="564"/>
    </contour>
  </outline>
</glyph>
<glyph name="seveneighths" format="2">
  <advance width="1555"/>
  <unicode hex="215E"/>
  <outline>
    <contour>
      <point x="488" y="1460" type="line"/>
      <point x="472" y="1380" type="line"/>
      <point x="837" y="1380" type="line"/>
      <point x="807" y="1407" type="line"/>
      <point x="486" y="905" type="line"/>
      <point x="588" y="905" type="line"/>
      <point x="902" y="1400" type="line"/>
      <point x="914" y="1460" type="line"/>
    </contour>
    <contour>
      <point x="1338" y="1214" type="line"/>
      <point x="246" y="300" type="line"/>
      <point x="303" y="230" type="line"/>
      <point x="1394" y="1144" type="line"/>
    </contour>
    <contour>
      <point x="1124" y="564" type="curve" smooth="yes"/>
      <point x="1000" y="564"/>
      <point x="911" y="528"/>
      <point x="890" y="422" type="curve" smooth="yes"/>
      <point x="876" y="348"/>
      <point x="926" y="290"/>
      <point x="1028" y="252" type="curve" smooth="yes"/>
      <point x="1128" y="215"/>
      <point x="1186" y="194"/>
      <point x="1176" y="145" type="curve" smooth="yes"/>
      <point x="1167" y="98"/>
      <point x="1114" y="69"/>
      <point x="1036" y="69" type="curve" smooth="yes"/>
      <point x="960" y="69"/>
      <point x="901" y="86"/>
      <point x="914" y="152" type="curve" smooth="yes"/>
      <point x="927" y="223"/>
      <point x="1016" y="251"/>
      <point x="1079" y="272" type="curve"/>
      <point x="1042" y="302" type="line"/>
      <point x="917" y="276"/>
      <point x="833" y="233"/>
      <point x="817" y="151" type="curve" smooth="yes"/>
      <point x="797" y="44"/>
      <point x="869" y="-9"/>
      <point x="1024" y="-9" type="curve" smooth="yes"/>
      <point x="1169" y="-9"/>
      <point x="1257" y="34"/>
      <point x="1278" y="145" type="curve" smooth="yes"/>
      <point x="1294" y="227"/>
      <point x="1226" y="280"/>
      <point x="1112" y="317" type="curve" smooth="yes"/>
      <point x="1016" y="348"/>
      <point x="976" y="378"/>
      <point x="985" y="420" type="curve" smooth="yes"/>
      <point x="994" y="468"/>
      <point x="1044" y="487"/>
      <point x="1113" y="487" type="curve" smooth="yes"/>
      <point x="1187" y="487"/>
      <point x="1230" y="464"/>
      <point x="1220" y="411" type="curve" smooth="yes"/>
      <point x="1207" y="347"/>
      <point x="1127" y="323"/>
      <point x="1062" y="302" type="curve"/>
      <point x="1109" y="267" type="line"/>
      <point x="1195" y="289"/>
      <point x="1293" y="320"/>
      <point x="1311" y="412" type="curve" smooth="yes"/>
      <point x="1331" y="514"/>
      <point x="1242" y="564"/>
    </contour>
  </outline>
</glyph>
<glyph name="northWestArrow" format="2">
  <advance width="1555"/>
  <unicode hex="2196"/>
  <outline>
    <contour>
      <point x="531" y="1094" type="line"/>
      <point x="390" y="381" type="line"/>
      <point x="504" y="381" type="line"/>
      <point x="627" y="1019" type="line"/>
      <point x="584" y="983" type="line"/>
      <point x="1222" y="981" type="line"/>
      <point x="1244" y="1096" type="line"/>
    </contour>
    <contour>
      <point x="547" y="971" type="line"/>
      <point x="1055" y="340" type="line"/>
      <point x="1154" y="423" type="line"/>
      <point x="646" y="1055" type="line"/>
    </contour>
    <contour>
      <point x="775" y="1069" type="line"/>
      <point x="604" y="1003" type="line"/>
      <point x="508" y="845" type="line"/>
      <point x="676" y="913" type="line"/>
    </contour>
  </outline>
</glyph>
<glyph name="universal" format="2">
  <advance width="1555"/>
  <unicode hex="2200"/>
  <outline>
    <contour>
      <point x="187" y="1000" type="line"/>
      <point x="622" y="0" type="line"/>
      <point x="740" y="0" type="line"/>
      <point x="1563" y="1000" type="line"/>
      <point x="1431" y="1000" type="line"/>
      <point x="702" y="117" type="line"/>
      <point x="691" y="117" type="line"/>
      <point x="305" y="1000" type="line"/>
    </contour>
    <contour>
      <point x="1242" y="737" type="line"/>
      <point x="411" y="737" type="line"/>
      <point x="391" y="632" type="line"/>
      <point x="1222" y="632" type="line"/>
    </contour>
  </outline>
</glyph>
<glyph name="gradient" format="2">
  <advance width="1555"/>
  <unicode hex="2207"/>
  <outline>
    <contour>
      <point x="301" y="1351" type="line"/>
      <point x="612" y="1" type="line"/>
      <point x="750" y="1" type="line"/>
      <point x="1586" y="1351" type="line"/>
      <point x="1458" y="1390" type="line"/>
      <point x="1449" y="1341" type="line"/>
      <point x="711" y="152" type="line"/>
      <point x="700" y="152" type="line"/>
      <point x="427" y="1341" type="line"/>
      <point x="437" y="1393" type="line"/>
    </contour>
    <contour>
      <point x="1607" y="1461" type="line"/>
      <point x="322" y="1461" type="line"/>
      <point x="301" y="1351" type="line"/>
      <point x="1586" y="1351" type="line"/>
    </contour>
  </outline>
</glyph>
<glyph name="product" format="2">
  <advance width="1555"/>
  <unicode hex="220F"/>
  <outline>
    <contour>
      <point x="338" y="-400" type="line"/>
      <point x="700" y="1460" type="line"/>
      <point x="574" y="1460" type="line"/>
      <point x="212" y="-400" type="line"/>
    </contour>
    <contour>
      <point x="340" y="1350" type="line"/>
      <point x="1545" y="1350" type="line"/>
      <point x="1567" y="1460" type="line"/>
      <point x="362" y="1460" type="line"/>
    </contour>
    <contour>
      <point x="993" y="-400" type="line"/>
      <point x="1355" y="1460" type="line"/>
      <point x="1229" y="1460" type="line"/>
      <point x="867" y="-400" type="line"/>
    </contour>
  </outline>
</glyph>
<glyph name="coproduct" format="2">
  <advance width="1555"/>
  <unicode hex="2210"/>
  <outline>
    <contour>
      <point x="1229" y="1460" type="line"/>
      <point x="867" y="-400" type="line"/>
      <point x="993" y="-400" type="line"/>
      <point x="1355" y="1460" type="line"/>
    </contour>
    <contour>
      <point x="1227" y="-290" type="line"/>
      <point x="22" y="-290" type="line"/>
      <point x="0" y="-400" type="line"/>
      <point x="1205" y="-400" type="line"/>
    </contour>
    <contour>
      <point x="574" y="1460" type="line"/>
      <point x="212" y="-400" type="line"/>
      <point x="338" y="-400" type="line"/>
      <point x="700" y="1460" type="line"/>
    </contour>
  </outline>
</glyph>
<glyph name="radical" format="2">
  <advance width="1555"/>
  <unicode hex="221A"/>
  <outline>
    <contour>
      <point x="1188" y="1460" type="line"/>
      <point x="316" y="-249" type="line"/>
      <point x="302" y="-249" type="line"/>
      <point x="150" y="467" type="line"/>
      <point x="46" y="426" type="line"/>
      <point x="224" y="-400" type="line"/>
      <point x="356" y="-400" type="line"/>
      <point x="1275" y="1400" type="line"/>
      <point x="1210" y="1350" type="line"/>
      <point x="1625" y="1350" type="line"/>
      <point x="1647" y="1460" type="line"/>
    </contour>
  </outline>
</glyph>
<glyph name="angle" format="2">
  <advance width="1555"/>
  <unicode hex="2220"/>
  <outline>
    <contour>
      <point x="1138" y="0" type="line"/>
      <point x="1159" y="110" type="line"/>
      <point x="364" y="110" type="line"/>
      <point x="360" y="123" type="line"/>
      <point x="1010" y="958" type="line"/>
      <point x="918" y="1013" type="line"/>
      <point x="165" y="41" type="line"/>
      <point x="174" y="0" type="line"/>
    </contour>
  </outline>
</glyph>
<glyph name="logicaland" format="2">
  <advance width="1555"/>
  <unicode hex="2227"/>
  <outline>
    <contour>
      <point x="1340" y="235" type="line"/>
      <point x="937" y="1235" type="line"/>
      <point x="889" y="1235" type="line"/>
      <point x="112" y="235" type="line"/>
      <point x="248" y="235" type="line"/>
      <point x="875" y="1053" type="line"/>
      <point x="892" y="1053" type="line"/>
      <point x="1218" y="235" type="line"/>
    </contour>
  </outline>
</glyph>
<glyph name="logicalor" format="2">
  <advance width="1555"/>
  <unicode hex="2228"/>
  <outline>
    <contour>
      <point x="305" y="1225" type="line"/>
      <point x="708" y="225" type="line"/>
      <point x="756" y="225" type="line"/>
      <point x="1533" y="1225" type="line"/>
      <point x="1397" y="1225" type="line"/>
      <point x="770" y="407" type="line"/>
      <point x="753" y="407" type="line"/>
      <point x="427" y="1225" type="line"/>
    </contour>
  </outline>
</glyph>
<glyph name="approxequal" format="2">
  <advance width="1555"/>
  <unicode hex="2248"/>
  <outline>
    <contour>
      <point x="1076" y="739" type="curve" smooth="yes"/>
      <point x="1217" y="739"/>
      <point x="1351" y="829"/>
      <point x="1433" y="1108" type="curve"/>
      <point x="1318" y="1122" type="line"/>
      <point x="1253" y="924"/>
      <point x="1184" y="855"/>
      <point x="1092" y="855" type="curve" smooth="yes"/>
      <point x="903" y="855"/>
      <point x="907" y="1149"/>
      <point x="653" y="1149" type="curve" smooth="yes"/>
      <point x="512" y="1149"/>
      <point x="377" y="1059"/>
      <point x="295" y="780" type="curve"/>
      <point x="410" y="766" type="line"/>
      <point x="475" y="964"/>
      <point x="545" y="1033"/>
      <point x="637" y="1033" type="curve" smooth="yes"/>
      <point x="827" y="1033"/>
      <point x="821" y="739"/>
    </contour>
    <contour>
      <point x="959" y="141" type="curve" smooth="yes"/>
      <point x="1100" y="141"/>
      <point x="1235" y="231"/>
      <point x="1317" y="510" type="curve"/>
      <point x="1202" y="524" type="line"/>
      <point x="1136" y="326"/>
      <point x="1068" y="257"/>
      <point x="976" y="257" type="curve" smooth="yes"/>
      <point x="787" y="257"/>
      <point x="791" y="551"/>
      <point x="537" y="551" type="curve" smooth="yes"/>
      <point x="396" y="551"/>
      <point x="261" y="461"/>
      <point x="178" y="182" type="curve"/>
      <point x="294" y="168" type="line"/>
      <point x="359" y="366"/>
      <point x="429" y="435"/>
      <point x="521" y="435" type="curve" smooth="yes"/>
      <point x="711" y="435"/>
      <point x="704" y="141"/>
    </contour>
  </outline>
</glyph>
<glyph name="equivalence" format="2">
  <advance width="1555"/>
  <unicode hex="2261"/>
  <outline>
    <contour>
      <point x="351" y="1019" type="line"/>
      <point x="1406" y="1019" type="line"/>
      <point x="1427" y="1129" type="line"/>
      <point x="372" y="1129" type="line"/>
    </contour>
    <contour>
      <point x="267" y="589" type="line"/>
      <point x="1322" y="589" type="line"/>
      <point x="1344" y="699" type="line"/>
      <point x="289" y="699" type="line"/>
    </contour>
    <contour>
      <point x="184" y="159" type="line"/>
      <point x="1239" y="159" type="line"/>
      <point x="1260" y="269" type="line"/>
      <point x="205" y="269" type="line"/>
    </contour>
  </outline>
</glyph>
<glyph name="upBlackTriangle" format="2">
  <advance width="1555"/>
  <unicode hex="25B2"/>
  <outline>
    <contour>
      <point x="188" y="265" type="line"/>
      <point x="1274" y="265" type="line"/>
      <point x="915" y="1217" type="line"/>
    </contour>
  </outline>
</glyph>
<glyph name="rightBlackSmallTriangle" format="2">
  <advance width="1555"/>
  <unicode hex="25B8"/>
  <outline>
    <contour>
      <point x="666" y="1034" type="line"/>
      <point x="547" y="423" type="line"/>
      <point x="1141" y="729" type="line"/>
    </contour>
  </outline>
</glyph>
<glyph name="downBlackTriangle" format="2">
  <advance width="1555"/>
  <unicode hex="25BC"/>
  <outline>
    <contour>
      <point x="1456" y="1193" type="line"/>
      <point x="370" y="1193" type="line"/>
      <point x="729" y="241" type="line"/>
    </contour>
  </outline>
</glyph>
<glyph name="leftBlackTriangle" format="2">
  <advance width="1555"/>
  <unicode hex="25C0"/>
  <outline>
    <contour>
      <point x="1119" y="185" type="line"/>
      <point x="1330" y="1271" type="line"/>
      <point x="272" y="727" type="line"/>
    </contour>
  </outline>
</glyph>
<glyph name="A.alt2" format="2">
  <advance width="1555"/>
  <outline>
    <contour>
      <point x="137" y="0" type="line"/>
      <point x="269" y="0" type="line"/>
      <point x="429" y="821" type="line"/>
      <point x="975" y="1380" type="line"/>
      <point x="935" y="1380" type="line"/>
      <point x="1265" y="825" type="line"/>
      <point x="1105" y="0" type="line"/>
      <point x="1225" y="0" type="line"/>
      <point x="1392" y="861" type="line"/>
      <point x="1038" y="1460" type="line"/>
      <point x="892" y="1460" type="line"/>
      <point x="304" y="861" type="line"/>
    </contour>
    <contour>
      <point x="303" y="449" type="line"/>
      <point x="1228" y="449" type="line"/>
      <point x="1248" y="552" type="line"/>
      <point x="323" y="552" type="line"/>
    </contour>
  </outline>
</glyph>
<glyph name="AE.alt1" format="2">
  <advance width="1555"/>
  <outline>
    <contour>
      <point x="688" y="0" type="line"/>
      <point x="814" y="0" type="line"/>
      <point x="1098" y="1460" type="line"/>
      <point x="972" y="1460" type="line"/>
    </contour>
    <contour>
      <point x="52" y="0" type="line"/>
      <point x="178" y="0" type="line"/>
      <point x="338" y="821" type="line"/>
      <point x="801" y="1350" type="line"/>
      <point x="1015" y="1350" type="line"/>
      <point x="1037" y="1460" type="line"/>
      <point x="757" y="1460" type="line"/>
      <point x="219" y="861" type="line"/>
    </contour>
    <contour>
      <point x="218" y="449" type="line"/>
      <point x="823" y="449" type="line"/>
      <point x="843" y="552" type="line"/>
      <point x="238" y="552" type="line"/>
    </contour>
    <contour>
      <point x="771" y="0" type="line"/>
      <point x="1320" y="0" type="line"/>
      <point x="1361" y="110" type="line"/>
      <point x="792" y="110" type="line"/>
    </contour>
    <contour>
      <point x="902" y="674" type="line"/>
      <point x="1368" y="674" type="line"/>
      <point x="1388" y="779" type="line"/>
      <point x="922" y="779" type="line"/>
    </contour>
    <contour>
      <point x="1033" y="1350" type="line"/>
      <point x="1572" y="1350" type="line"/>
      <point x="1574" y="1460" type="line"/>
      <point x="1055" y="1460" type="line"/>
    </contour>
  </outline>
</glyph>
<glyph name="Aacute.alt1" format="2">
  <advance width="1555"/>
  <outline>
    <contour>
      <point x="137" y="0" type="line"/>
      <point x="269" y="0" type="line"/>
      <point x="429" y="821" type="line"/>
      <point x="975" y="1380" type="line"/>
      <point x="935" y="1380" type="line"/>
      <point x="1265" y="825" type="line"/>
      <point x="1105" y="0" type="line"/>
      <point x="1225" y="0" type="line"/>
      <point x="1392" y="861" type="line"/>
      <point x="1038" y="1460" type="line"/>
      <point x="892" y="1460" type="line"/>
      <point x="304" y="861" type="line"/>
    </contour>
    <contour>
      <point x="303" y="449" type="line"/>
      <point x="1228" y="449" type="line"/>
      <point x="1248" y="552" type="line"/>
      <point x="323" y="552" type="line"/>
    </contour>
    <contour>
      <point x="1051" y="1652" type="line"/>
      <point x="932" y="1652" type="line"/>
      <point x="1249" y="1884" type="line"/>
      <point x="1402" y="1884" type="line"/>
    </contour>
  </outline>
</glyph>
<glyph name="Abreve.alt1" format="2">
  <advance width="1555"/>
  <outline>
    <contour>
      <point x="137" y="0" type="line"/>
      <point x="269" y="0" type="line"/>
      <point x="429" y="821" type="line"/>
      <point x="975" y="1380" type="line"/>
      <point x="935" y="1380" type="line"/>
      <point x="1265" y="825" type="line"/>
      <point x="1105" y="0" type="line"/>
      <point x="1225" y="0" type="line"/>
      <point x="1392" y="861" type="line"/>
      <point x="1038" y="1460" type="line"/>
      <point x="892" y="1460" type="line"/>
      <point x="304" y="861" type="line"/>
    </contour>
    <contour>
      <point x="303" y="449" type="line"/>
      <point x="1228" y="449" type="line"/>
      <point x="1248" y="552" type="line"/>
      <point x="323" y="552" type="line"/>
    </contour>
    <contour>
      <point x="829" y="1643" type="line"/>
      <point x="1163" y="1643" type="line"/>
      <point x="1336" y="1760" type="line"/>
      <point x="1360" y="1883" type="line"/>
      <point x="1270" y="1883" type="line"/>
      <point x="1253" y="1797" type="line"/>
      <point x="1140" y="1731" type="line"/>
      <point x="886" y="1731" type="line"/>
      <point x="799" y="1797" type="line"/>
      <point x="816" y="1883" type="line"/>
      <point x="726" y="1883" type="line"/>
      <point x="702" y="1759" type="line"/>
    </contour>
  </outline>
</glyph>
<glyph name="Adieresis.alt5" format="2">
  <advance width="1555"/>
  <outline>
    <contour>
      <point x="137" y="0" type="line"/>
      <point x="269" y="0" type="line"/>
      <point x="429" y="821" type="line"/>
      <point x="975" y="1380" type="line"/>
      <point x="935" y="1380" type="line"/>
      <point x="1265" y="825" type="line"/>
      <point x="1105" y="0" type="line"/>
      <point x="1225" y="0" type="line"/>
      <point x="1392" y="861" type="line"/>
      <point x="1038" y="1460" type="line"/>
      <point x="892" y="1460" type="line"/>
      <point x="304" y="861" type="line"/>
    </contour>
    <contour>
      <point x="303" y="449" type="line"/>
      <point x="1228" y="449" type="line"/>
      <point x="1248" y="552" type="line"/>
      <point x="323" y="552" type="line"/>
    </contour>
    <contour>
      <point x="691" y="1626" type="line"/>
      <point x="853" y="1756" type="line"/>
      <point x="742" y="1886" type="line"/>
      <point x="579" y="1756" type="line"/>
    </contour>
    <contour>
      <point x="1303" y="1626" type="line"/>
      <point x="1465" y="1756" type="line"/>
      <point x="1354" y="1886" type="line"/>
      <point x="1191" y="1756" type="line"/>
    </contour>
  </outline>
</glyph>
<glyph name="Aogonek.alt1" format="2">
  <advance width="1555"/>
  <outline>
    <contour>
      <point x="137" y="0" type="line"/>
      <point x="269" y="0" type="line"/>
      <point x="429" y="821" type="line"/>
      <point x="975" y="1380" type="line"/>
      <point x="935" y="1380" type="line"/>
      <point x="1265" y="825" type="line"/>
      <point x="1105" y="0" type="line"/>
      <point x="1225" y="0" type="line"/>
      <point x="1392" y="861" type="line"/>
      <point x="1038" y="1460" type="line"/>
      <point x="892" y="1460" type="line"/>
      <point x="304" y="861" type="line"/>
    </contour>
    <contour>
      <point x="303" y="449" type="line"/>
      <point x="1228" y="449" type="line"/>
      <point x="1248" y="552" type="line"/>
      <point x="323" y="552" type="line"/>
    </contour>
    <contour>
      <point x="929" y="-132" type="line"/>
      <point x="895" y="-310" type="line"/>
      <point x="1025" y="-400" type="line"/>
      <point x="1147" y="-400" type="line"/>
      <point x="1165" y="-310" type="line"/>
      <point x="1074" y="-310" type="line"/>
      <point x="1006" y="-262" type="line"/>
      <point x="1026" y="-161" type="line"/>
      <point x="1225" y="0" type="line"/>
      <point x="1151" y="37" type="line"/>
    </contour>
  </outline>
</glyph>
<glyph name="Atilde.alt5" format="2">
  <advance width="1555"/>
  <outline>
    <contour>
      <point x="137" y="0" type="line"/>
      <point x="269" y="0" type="line"/>
      <point x="429" y="821" type="line"/>
      <point x="975" y="1380" type="line"/>
      <point x="935" y="1380" type="line"/>
      <point x="1265" y="825" type="line"/>
      <point x="1105" y="0" type="line"/>
      <point x="1225" y="0" type="line"/>
      <point x="1392" y="861" type="line"/>
      <point x="1038" y="1460" type="line"/>
      <point x="892" y="1460" type="line"/>
      <point x="304" y="861" type="line"/>
    </contour>
    <contour>
      <point x="303" y="449" type="line"/>
      <point x="1228" y="449" type="line"/>
      <point x="1248" y="552" type="line"/>
      <point x="323" y="552" type="line"/>
    </contour>
    <contour>
      <point x="951" y="1893" type="line"/>
      <point x="751" y="1893" type="line"/>
      <point x="586" y="1765" type="line"/>
      <point x="562" y="1643" type="line"/>
      <point x="652" y="1643" type="line"/>
      <point x="670" y="1734" type="line"/>
      <point x="772" y="1805" type="line"/>
      <point x="893" y="1805" type="line"/>
      <point x="1097" y="1643" type="line"/>
      <point x="1297" y="1643" type="line"/>
      <point x="1462" y="1771" type="line"/>
      <point x="1486" y="1893" type="line"/>
      <point x="1396" y="1893" type="line"/>
      <point x="1378" y="1802" type="line"/>
      <point x="1276" y="1731" type="line"/>
      <point x="1155" y="1731" type="line"/>
    </contour>
  </outline>
</glyph>
<glyph name="C.alt5" format="2">
  <advance width="1555"/>
  <outline>
    <contour>
      <point x="574" y="0" type="line"/>
      <point x="1219" y="0" type="line"/>
      <point x="1260" y="110" type="line"/>
      <point x="660" y="110" type="line"/>
      <point x="329" y="573" type="line"/>
      <point x="389" y="881" type="line"/>
      <point x="917" y="1350" type="line"/>
      <point x="1501" y="1350" type="line"/>
      <point x="1503" y="1460" type="line"/>
      <point x="858" y="1460" type="line"/>
      <point x="273" y="933" type="line"/>
      <point x="196" y="537" type="line"/>
    </contour>
  </outline>
</glyph>
<glyph name="Ccaron.alt1" format="2">
  <advance width="1555"/>
  <outline>
    <contour>
      <point x="574" y="0" type="line"/>
      <point x="1219" y="0" type="line"/>
      <point x="1260" y="110" type="line"/>
      <point x="660" y="110" type="line"/>
      <point x="329" y="573" type="line"/>
      <point x="389" y="881" type="line"/>
      <point x="917" y="1350" type="line"/>
      <point x="1501" y="1350" type="line"/>
      <point x="1503" y="1460" type="line"/>
      <point x="858" y="1460" type="line"/>
      <point x="273" y="933" type="line"/>
      <point x="196" y="537" type="line"/>
    </contour>
    <contour>
      <point x="773" y="1883" type="line"/>
      <point x="920" y="1883" type="line"/>
      <point x="1154" y="1674" type="line"/>
      <point x="1092" y="1674" type="line"/>
      <point x="1409" y="1883" type="line"/>
      <point x="1556" y="1883" type="line"/>
      <point x="1197" y="1650" type="line"/>
      <point x="1041" y="1650" type="line"/>
    </contour>
  </outline>
</glyph>
<glyph name="Ccedilla.alt5" format="2">
  <advance width="1555"/>
  <outline>
    <contour>
      <point x="574" y="0" type="line"/>
      <point x="1219" y="0" type="line"/>
      <point x="1260" y="110" type="line"/>
      <point x="660" y="110" type="line"/>
      <point x="329" y="573" type="line"/>
      <point x="389" y="881" type="line"/>
      <point x="917" y="1350" type="line"/>
      <point x="1501" y="1350" type="line"/>
      <point x="1503" y="1460" type="line"/>
      <point x="858" y="1460" type="line"/>
      <point x="273" y="933" type="line"/>
      <point x="196" y="537" type="line"/>
    </contour>
    <contour>
      <point x="462" y="-565" type="line"/>
      <point x="706" y="-565" type="line"/>
      <point x="924" y="-455" type="line"/>
      <point x="958" y="-279" type="line"/>
      <point x="782" y="-169" type="line"/>
      <point x="704" y="-169" type="line"/>
      <point x="719" y="-191" type="line"/>
      <point x="765" y="48" type="line"/>
      <point x="671" y="48" type="line"/>
      <point x="612" y="-259" type="line"/>
      <point x="738" y="-259" type="line"/>
      <point x="860" y="-329" type="line"/>
      <point x="845" y="-405" type="line"/>
      <point x="696" y="-475" type="line"/>
      <point x="480" y="-475" type="line"/>
    </contour>
  </outline>
</glyph>
<glyph name="Ccircumflex.alt1" format="2">
  <advance width="1555"/>
  <outline>
    <contour>
      <point x="574" y="0" type="line"/>
      <point x="1219" y="0" type="line"/>
      <point x="1260" y="110" type="line"/>
      <point x="660" y="110" type="line"/>
      <point x="329" y="573" type="line"/>
      <point x="389" y="881" type="line"/>
      <point x="917" y="1350" type="line"/>
      <point x="1501" y="1350" type="line"/>
      <point x="1503" y="1460" type="line"/>
      <point x="858" y="1460" type="line"/>
      <point x="273" y="933" type="line"/>
      <point x="196" y="537" type="line"/>
    </contour>
    <contour>
      <point x="728" y="1650" type="line"/>
      <point x="875" y="1650" type="line"/>
      <point x="1190" y="1859" type="line"/>
      <point x="1128" y="1859" type="line"/>
      <point x="1364" y="1650" type="line"/>
      <point x="1511" y="1650" type="line"/>
      <point x="1242" y="1883" type="line"/>
      <point x="1086" y="1883" type="line"/>
    </contour>
  </outline>
</glyph>
<glyph name="D.alt4" format="2">
  <advance width="1555"/>
  <outline>
    <contour>
      <point x="192" y="0" type="line"/>
      <point x="834" y="0" type="line"/>
      <point x="1414" y="540" type="line"/>
      <point x="1490" y="930" type="line"/>
      <point x="1118" y="1460" type="line"/>
      <point x="476" y="1460" type="line"/>
      <point x="454" y="1350" type="line"/>
      <point x="1033" y="1350" type="line"/>
      <point x="1356" y="892" type="line"/>
      <point x="1299" y="595" type="line"/>
      <point x="776" y="110" type="line"/>
      <point x="213" y="110" type="line"/>
    </contour>
    <contour>
      <point x="139" y="0" type="line"/>
      <point x="265" y="0" type="line"/>
      <point x="549" y="1460" type="line"/>
      <point x="423" y="1460" type="line"/>
    </contour>
  </outline>
</glyph>
<glyph name="Dcaron.alt1" format="2">
  <advance width="1555"/>
  <outline>
    <contour>
      <point x="192" y="0" type="line"/>
      <point x="834" y="0" type="line"/>
      <point x="1414" y="540" type="line"/>
      <point x="1490" y="930" type="line"/>
      <point x="1118" y="1460" type="line"/>
      <point x="476" y="1460" type="line"/>
      <point x="454" y="1350" type="line"/>
      <point x="1033" y="1350" type="line"/>
      <point x="1356" y="892" type="line"/>
      <point x="1299" y="595" type="line"/>
      <point x="776" y="110" type="line"/>
      <point x="213" y="110" type="line"/>
    </contour>
    <contour>
      <point x="139" y="0" type="line"/>
      <point x="265" y="0" type="line"/>
      <point x="549" y="1460" type="line"/>
      <point x="423" y="1460" type="line"/>
    </contour>
    <contour>
      <point x="543" y="1883" type="line"/>
      <point x="690" y="1883" type="line"/>
      <point x="924" y="1674" type="line"/>
      <point x="862" y="1674" type="line"/>
      <point x="1179" y="1883" type="line"/>
      <point x="1326" y="1883" type="line"/>
      <point x="967" y="1650" type="line"/>
      <point x="811" y="1650" type="line"/>
    </contour>
  </outline>
</glyph>
<glyph name="Emacron.alt1" format="2">
  <advance width="1555"/>
  <outline>
    <contour>
      <point x="319" y="0" type="line"/>
      <point x="603" y="1460" type="line"/>
      <point x="477" y="1460" type="line"/>
      <point x="193" y="0" type="line"/>
    </contour>
    <contour>
      <point x="1262" y="110" type="line"/>
      <point x="299" y="110" type="line"/>
      <point x="278" y="0" type="line"/>
      <point x="1221" y="0" type="line"/>
    </contour>
    <contour>
      <point x="1195" y="779" type="line"/>
      <point x="429" y="779" type="line"/>
      <point x="409" y="674" type="line"/>
      <point x="1175" y="674" type="line"/>
    </contour>
    <contour>
      <point x="1463" y="1350" type="line"/>
      <point x="1465" y="1460" type="line"/>
      <point x="562" y="1460" type="line"/>
      <point x="540" y="1350" type="line"/>
    </contour>
    <contour>
      <point x="639" y="1731" type="line"/>
      <point x="1468" y="1731" type="line"/>
      <point x="1488" y="1831" type="line"/>
      <point x="659" y="1831" type="line"/>
    </contour>
  </outline>
</glyph>
<glyph name="Eogonek.alt1" format="2">
  <advance width="1555"/>
  <outline>
    <contour>
      <point x="319" y="0" type="line"/>
      <point x="603" y="1460" type="line"/>
      <point x="477" y="1460" type="line"/>
      <point x="193" y="0" type="line"/>
    </contour>
    <contour>
      <point x="1262" y="110" type="line"/>
      <point x="299" y="110" type="line"/>
      <point x="278" y="0" type="line"/>
      <point x="1221" y="0" type="line"/>
    </contour>
    <contour>
      <point x="1195" y="779" type="line"/>
      <point x="429" y="779" type="line"/>
      <point x="409" y="674" type="line"/>
      <point x="1175" y="674" type="line"/>
    </contour>
    <contour>
      <point x="1463" y="1350" type="line"/>
      <point x="1465" y="1460" type="line"/>
      <point x="562" y="1460" type="line"/>
      <point x="540" y="1350" type="line"/>
    </contour>
    <contour>
      <point x="925" y="-132" type="line"/>
      <point x="891" y="-310" type="line"/>
      <point x="1021" y="-400" type="line"/>
      <point x="1143" y="-400" type="line"/>
      <point x="1161" y="-310" type="line"/>
      <point x="1070" y="-310" type="line"/>
      <point x="1002" y="-262" type="line"/>
      <point x="1022" y="-161" type="line"/>
      <point x="1221" y="0" type="line"/>
      <point x="1147" y="37" type="line"/>
    </contour>
  </outline>
</glyph>
<glyph name="F.alt4" format="2">
  <advance width="1555"/>
  <outline>
    <contour>
      <point x="186" y="0" type="line"/>
      <point x="312" y="0" type="line"/>
      <point x="596" y="1460" type="line"/>
      <point x="470" y="1460" type="line"/>
    </contour>
    <contour>
      <point x="393" y="627" type="line"/>
      <point x="1173" y="627" type="line"/>
      <point x="1192" y="726" type="line"/>
      <point x="412" y="726" type="line"/>
    </contour>
    <contour>
      <point x="535" y="1360" type="line"/>
      <point x="1532" y="1360" type="line"/>
      <point x="1532" y="1460" type="line"/>
      <point x="555" y="1460" type="line"/>
    </contour>
  </outline>
</glyph>
<glyph name="F.alt5" format="2">
  <advance width="1555"/>
  <outline>
    <contour>
      <point x="186" y="0" type="line"/>
      <point x="312" y="0" type="line"/>
      <point x="596" y="1460" type="line"/>
      <point x="470" y="1460" type="line"/>
    </contour>
    <contour>
      <point x="393" y="627" type="line"/>
      <point x="1173" y="627" type="line"/>
      <point x="1192" y="726" type="line"/>
      <point x="412" y="726" type="line"/>
    </contour>
    <contour>
      <point x="535" y="1360" type="line"/>
      <point x="1532" y="1360" type="line"/>
      <point x="1532" y="1460" type="line"/>
      <point x="555" y="1460" type="line"/>
    </contour>
  </outline>
</glyph>
<glyph name="Germandbls.alt5" format="2">
  <advance width="1555"/>
  <outline>
    <contour>
      <point x="1463" y="1460" type="line"/>
      <point x="439" y="1460" type="line"/>
      <point x="155" y="0" type="line"/>
      <point x="281" y="0" type="line"/>
      <point x="554" y="1405" type="line"/>
      <point x="500" y="1360" type="line"/>
      <point x="1350" y="1360" type="line"/>
      <point x="1338" y="1403" type="line"/>
      <point x="1003" y="887" type="line"/>
      <point x="984" y="787" type="line"/>
      <point x="1266" y="563" type="line"/>
      <point x="1219" y="319" type="line"/>
      <point x="915" y="100" type="line"/>
      <point x="583" y="100" type="line"/>
      <point x="564" y="0" type="line"/>
      <point x="961" y="0" type="line"/>
      <point x="1337" y="280" type="line"/>
      <point x="1399" y="598" type="line"/>
      <point x="1061" y="880" type="line"/>
      <point x="1065" y="796" type="line"/>
      <point x="1449" y="1390" type="line"/>
    </contour>
  </outline>
</glyph>
<glyph name="Hcircumflex.alt1" format="2">
  <advance width="1555"/>
  <outline>
    <contour>
      <point x="1099" y="0" type="line"/>
      <point x="1225" y="0" type="line"/>
      <point x="1509" y="1460" type="line"/>
      <point x="1383" y="1460" type="line"/>
    </contour>
    <contour>
      <point x="137" y="0" type="line"/>
      <point x="263" y="0" type="line"/>
      <point x="547" y="1460" type="line"/>
      <point x="421" y="1460" type="line"/>
    </contour>
    <contour>
      <point x="344" y="709" type="line"/>
      <point x="1298" y="709" type="line"/>
      <point x="1317" y="810" type="line"/>
      <point x="363" y="810" type="line"/>
    </contour>
    <contour>
      <point x="610" y="1650" type="line"/>
      <point x="757" y="1650" type="line"/>
      <point x="1072" y="1859" type="line"/>
      <point x="1010" y="1859" type="line"/>
      <point x="1246" y="1650" type="line"/>
      <point x="1393" y="1650" type="line"/>
      <point x="1124" y="1883" type="line"/>
      <point x="968" y="1883" type="line"/>
    </contour>
  </outline>
</glyph>
<glyph name="I.alt" format="2">
  <advance width="1555"/>
  <outline>
    <contour>
      <point x="608" y="0" type="line"/>
      <point x="734" y="0" type="line"/>
      <point x="1018" y="1460" type="line"/>
      <point x="892" y="1460" type="line"/>
    </contour>
    <contour>
      <point x="131" y="0" type="line"/>
      <point x="1231" y="0" type="line"/>
      <point x="1272" y="110" type="line"/>
      <point x="132" y="110" type="line"/>
    </contour>
    <contour>
      <point x="373" y="1350" type="line"/>
      <point x="1513" y="1350" type="line"/>
      <point x="1515" y="1460" type="line"/>
      <point x="415" y="1460" type="line"/>
    </contour>
  </outline>
</glyph>
<glyph name="Idotaccent.alt5" format="2">
  <advance width="1555"/>
  <outline>
    <contour>
      <point x="608" y="0" type="line"/>
      <point x="734" y="0" type="line"/>
      <point x="1018" y="1460" type="line"/>
      <point x="892" y="1460" type="line"/>
    </contour>
    <contour>
      <point x="131" y="0" type="line"/>
      <point x="1231" y="0" type="line"/>
      <point x="1272" y="110" type="line"/>
      <point x="132" y="110" type="line"/>
    </contour>
    <contour>
      <point x="373" y="1350" type="line"/>
      <point x="1513" y="1350" type="line"/>
      <point x="1515" y="1460" type="line"/>
      <point x="415" y="1460" type="line"/>
    </contour>
    <contour>
      <point x="998" y="1626" type="line"/>
      <point x="1160" y="1756" type="line"/>
      <point x="1049" y="1886" type="line"/>
      <point x="886" y="1756" type="line"/>
    </contour>
  </outline>
</glyph>
<glyph name="Iogonek.alt1" format="2">
  <advance width="1555"/>
  <outline>
    <contour>
      <point x="608" y="0" type="line"/>
      <point x="734" y="0" type="line"/>
      <point x="1018" y="1460" type="line"/>
      <point x="892" y="1460" type="line"/>
    </contour>
    <contour>
      <point x="131" y="0" type="line"/>
      <point x="1231" y="0" type="line"/>
      <point x="1272" y="110" type="line"/>
      <point x="132" y="110" type="line"/>
    </contour>
    <contour>
      <point x="373" y="1350" type="line"/>
      <point x="1513" y="1350" type="line"/>
      <point x="1515" y="1460" type="line"/>
      <point x="415" y="1460" type="line"/>
    </contour>
    <contour>
      <point x="421" y="-132" type="line"/>
      <point x="387" y="-310" type="line"/>
      <point x="517" y="-400" type="line"/>
      <point x="639" y="-400" type="line"/>
      <point x="657" y="-310" type="line"/>
      <point x="566" y="-310" type="line"/>
      <point x="498" y="-262" type="line"/>
      <point x="518" y="-161" type="line"/>
      <point x="717" y="0" type="line"/>
      <point x="643" y="37" type="line"/>
    </contour>
  </outline>
</glyph>
<glyph name="Itilde.alt1" format="2">
  <advance width="1555"/>
  <outline>
    <contour>
      <point x="608" y="0" type="line"/>
      <point x="734" y="0" type="line"/>
      <point x="1018" y="1460" type="line"/>
      <point x="892" y="1460" type="line"/>
    </contour>
    <contour>
      <point x="131" y="0" type="line"/>
      <point x="1231" y="0" type="line"/>
      <point x="1272" y="110" type="line"/>
      <point x="132" y="110" type="line"/>
    </contour>
    <contour>
      <point x="373" y="1350" type="line"/>
      <point x="1513" y="1350" type="line"/>
      <point x="1515" y="1460" type="line"/>
      <point x="415" y="1460" type="line"/>
    </contour>
    <contour>
      <point x="952" y="1893" type="line"/>
      <point x="752" y="1893" type="line"/>
      <point x="587" y="1765" type="line"/>
      <point x="563" y="1643" type="line"/>
      <point x="653" y="1643" type="line"/>
      <point x="671" y="1734" type="line"/>
      <point x="773" y="1805" type="line"/>
      <point x="894" y="1805" type="line"/>
      <point x="1098" y="1643" type="line"/>
      <point x="1298" y="1643" type="line"/>
      <point x="1463" y="1771" type="line"/>
      <point x="1487" y="1893" type="line"/>
      <point x="1397" y="1893" type="line"/>
      <point x="1379" y="1802" type="line"/>
      <point x="1277" y="1731" type="line"/>
      <point x="1156" y="1731" type="line"/>
    </contour>
  </outline>
</glyph>
<glyph name="J.alt" format="2">
  <advance width="1555"/>
  <outline>
    <contour>
      <point x="618" y="0" type="line"/>
      <point x="764" y="0" type="line"/>
      <point x="1342" y="489" type="line"/>
      <point x="1531" y="1460" type="line"/>
      <point x="1405" y="1460" type="line"/>
      <point x="1226" y="538" type="line"/>
      <point x="681" y="80" type="line"/>
      <point x="723" y="80" type="line"/>
      <point x="344" y="532" type="line"/>
      <point x="392" y="778" type="line"/>
      <point x="266" y="778" type="line"/>
      <point x="210" y="489" type="line"/>
    </contour>
    <contour>
      <point x="490" y="1350" type="line"/>
      <point x="1465" y="1350" type="line"/>
      <point x="1487" y="1460" type="line"/>
      <point x="532" y="1460" type="line"/>
    </contour>
  </outline>
</glyph>
<glyph name="K.alt" format="2">
  <advance width="1555"/>
  <outline>
    <contour>
      <point x="1113" y="0" type="line"/>
      <point x="1239" y="0" type="line"/>
      <point x="1291" y="266" type="line"/>
      <point x="726" y="784" type="line"/>
      <point x="714" y="719" type="line"/>
      <point x="1471" y="1194" type="line"/>
      <point x="1523" y="1460" type="line"/>
      <point x="1384" y="1460" type="line"/>
      <point x="1341" y="1239" type="line"/>
      <point x="586" y="766" type="line"/>
      <point x="714" y="805" type="line"/>
      <point x="395" y="805" type="line"/>
      <point x="375" y="700" type="line"/>
      <point x="686" y="700" type="line"/>
      <point x="596" y="721" type="line"/>
      <point x="1158" y="229" type="line"/>
    </contour>
    <contour>
      <point x="158" y="0" type="line"/>
      <point x="284" y="0" type="line"/>
      <point x="568" y="1460" type="line"/>
      <point x="442" y="1460" type="line"/>
    </contour>
  </outline>
</glyph>
<glyph name="L.alt" format="2">
  <advance width="1555"/>
  <outline>
    <contour>
      <point x="201" y="0" type="line"/>
      <point x="327" y="0" type="line"/>
      <point x="611" y="1460" type="line"/>
      <point x="485" y="1460" type="line"/>
    </contour>
    <contour>
      <point x="286" y="0" type="line"/>
      <point x="1262" y="0" type="line"/>
      <point x="1303" y="110" type="line"/>
      <point x="307" y="110" type="line"/>
    </contour>
  </outline>
</glyph>
<glyph name="Lacute.alt5" format="2">
  <advance width="1555"/>
  <outline>
    <contour>
      <point x="201" y="0" type="line"/>
      <point x="327" y="0" type="line"/>
      <point x="611" y="1460" type="line"/>
      <point x="485" y="1460" type="line"/>
    </contour>
    <contour>
      <point x="286" y="0" type="line"/>
      <point x="1262" y="0" type="line"/>
      <point x="1303" y="110" type="line"/>
      <point x="307" y="110" type="line"/>
    </contour>
    <contour>
      <point x="650" y="1652" type="line"/>
      <point x="531" y="1652" type="line"/>
      <point x="848" y="1884" type="line"/>
      <point x="1001" y="1884" type="line"/>
    </contour>
  </outline>
</glyph>
<glyph name="Ldot.alt5" format="2">
  <advance width="1555"/>
  <outline>
    <contour>
      <point x="201" y="0" type="line"/>
      <point x="327" y="0" type="line"/>
      <point x="611" y="1460" type="line"/>
      <point x="485" y="1460" type="line"/>
    </contour>
    <contour>
      <point x="286" y="0" type="line"/>
      <point x="1262" y="0" type="line"/>
      <point x="1303" y="110" type="line"/>
      <point x="307" y="110" type="line"/>
    </contour>
    <contour>
      <point x="1188" y="694" type="line"/>
      <point x="1350" y="824" type="line"/>
      <point x="1238" y="954" type="line"/>
      <point x="1076" y="824" type="line"/>
    </contour>
  </outline>
</glyph>
<glyph name="Lslash.alt5" format="2">
  <advance width="1555"/>
  <outline>
    <contour>
      <point x="50" y="567" type="line"/>
      <point x="1007" y="977" type="line"/>
      <point x="1030" y="1095" type="line"/>
      <point x="73" y="685" type="line"/>
    </contour>
    <contour>
      <point x="154" y="0" type="line"/>
      <point x="280" y="0" type="line"/>
      <point x="564" y="1460" type="line"/>
      <point x="438" y="1460" type="line"/>
    </contour>
    <contour>
      <point x="239" y="0" type="line"/>
      <point x="1215" y="0" type="line"/>
      <point x="1256" y="110" type="line"/>
      <point x="260" y="110" type="line"/>
    </contour>
  </outline>
</glyph>
<glyph name="N.alt5" format="2">
  <advance width="1555"/>
  <outline>
    <contour>
      <point x="137" y="0" type="line"/>
      <point x="257" y="0" type="line"/>
      <point x="503" y="1266" type="line"/>
      <point x="515" y="1266" type="line"/>
      <point x="1094" y="1" type="line"/>
      <point x="1225" y="1" type="line"/>
      <point x="1509" y="1461" type="line"/>
      <point x="1389" y="1461" type="line"/>
      <point x="1147" y="214" type="line"/>
      <point x="1135" y="214" type="line"/>
      <point x="554" y="1460" type="line"/>
      <point x="421" y="1460" type="line"/>
    </contour>
  </outline>
</glyph>
<glyph name="Ncommaaccent.alt5" format="2">
  <advance width="1555"/>
  <outline>
    <contour>
      <point x="137" y="0" type="line"/>
      <point x="257" y="0" type="line"/>
      <point x="503" y="1266" type="line"/>
      <point x="515" y="1266" type="line"/>
      <point x="1094" y="1" type="line"/>
      <point x="1225" y="1" type="line"/>
      <point x="1509" y="1461" type="line"/>
      <point x="1389" y="1461" type="line"/>
      <point x="1147" y="214" type="line"/>
      <point x="1135" y="214" type="line"/>
      <point x="554" y="1460" type="line"/>
      <point x="421" y="1460" type="line"/>
    </contour>
    <contour>
      <point x="486" y="-527" type="line"/>
      <point x="639" y="-527" type="line"/>
      <point x="649" y="-471" type="line"/>
      <point x="422" y="-707" type="line"/>
      <point x="489" y="-747" type="line"/>
      <point x="701" y="-527" type="line"/>
      <point x="742" y="-312" type="line"/>
      <point x="527" y="-312" type="line"/>
    </contour>
  </outline>
</glyph>
<glyph name="Nhookleft.alt1" format="2">
  <advance width="1555"/>
  <outline>
    <contour>
      <point x="258" y="50" type="line"/>
      <point x="138" y="50" type="line"/>
      <point x="100" y="-142" type="line"/>
      <point x="-49" y="-302" type="line"/>
      <point x="-184" y="-302" type="line"/>
      <point x="-183" y="-400" type="line"/>
      <point x="-4" y="-400" type="line"/>
      <point x="215" y="-172" type="line"/>
    </contour>
    <contour>
      <point x="128" y="0" type="line"/>
      <point x="248" y="0" type="line"/>
      <point x="494" y="1266" type="line"/>
      <point x="506" y="1266" type="line"/>
      <point x="1085" y="1" type="line"/>
      <point x="1216" y="1" type="line"/>
      <point x="1500" y="1461" type="line"/>
      <point x="1380" y="1461" type="line"/>
      <point x="1138" y="214" type="line"/>
      <point x="1126" y="214" type="line"/>
      <point x="545" y="1460" type="line"/>
      <point x="412" y="1460" type="line"/>
    </contour>
  </outline>
</glyph>
<glyph name="O.alt1" format="2">
  <advance width="1555"/>
  <outline>
    <contour>
      <point x="552" y="0" type="line"/>
      <point x="810" y="0" type="line"/>
      <point x="1412" y="540" type="line"/>
      <point x="1488" y="930" type="line"/>
      <point x="1097" y="1460" type="line"/>
      <point x="836" y="1460" type="line"/>
      <point x="235" y="930" type="line"/>
      <point x="159" y="540" type="line"/>
    </contour>
    <contour>
      <point x="628" y="110" type="line"/>
      <point x="292" y="577" type="line"/>
      <point x="353" y="889" type="line"/>
      <point x="877" y="1350" type="line"/>
      <point x="1016" y="1350" type="line"/>
      <point x="1355" y="893" type="line"/>
      <point x="1294" y="581" type="line"/>
      <point x="767" y="110" type="line"/>
    </contour>
  </outline>
</glyph>
<glyph name="P.alt4" format="2">
  <advance width="1555"/>
  <outline>
    <contour>
      <point x="277" y="567" type="line"/>
      <point x="1065" y="567" type="line"/>
      <point x="1480" y="900" type="line"/>
      <point x="1535" y="1184" type="line"/>
      <point x="1249" y="1460" type="line"/>
      <point x="451" y="1460" type="line"/>
      <point x="431" y="1360" type="line"/>
      <point x="1170" y="1360" type="line"/>
      <point x="1402" y="1145" type="line"/>
      <point x="1361" y="935" type="line"/>
      <point x="1026" y="667" type="line"/>
      <point x="297" y="667" type="line"/>
    </contour>
    <contour>
      <point x="125" y="0" type="line"/>
      <point x="251" y="0" type="line"/>
      <point x="535" y="1460" type="line"/>
      <point x="409" y="1460" type="line"/>
    </contour>
  </outline>
</glyph>
<glyph name="Racute.alt1" format="2">
  <advance width="1555"/>
  <outline>
    <contour>
      <point x="332" y="637" type="line"/>
      <point x="1013" y="637" type="line"/>
      <point x="1446" y="938" type="line"/>
      <point x="1492" y="1172" type="line"/>
      <point x="1190" y="1460" type="line"/>
      <point x="492" y="1460" type="line"/>
      <point x="472" y="1360" type="line"/>
      <point x="1121" y="1360" type="line"/>
      <point x="1358" y="1133" type="line"/>
      <point x="1329" y="983" type="line"/>
      <point x="970" y="737" type="line"/>
      <point x="351" y="737" type="line"/>
    </contour>
    <contour>
      <point x="166" y="0" type="line"/>
      <point x="292" y="0" type="line"/>
      <point x="576" y="1460" type="line"/>
      <point x="450" y="1460" type="line"/>
    </contour>
    <contour>
      <point x="1128" y="0" type="line"/>
      <point x="1254" y="0" type="line"/>
      <point x="1306" y="266" type="line"/>
      <point x="1008" y="697" type="line"/>
      <point x="857" y="697" type="line"/>
      <point x="1174" y="238" type="line"/>
    </contour>
    <contour>
      <point x="1079" y="1652" type="line"/>
      <point x="960" y="1652" type="line"/>
      <point x="1277" y="1884" type="line"/>
      <point x="1430" y="1884" type="line"/>
    </contour>
  </outline>
</glyph>
<glyph name="Rcommaaccent.alt5" format="2">
  <advance width="1555"/>
  <outline>
    <contour>
      <point x="332" y="637" type="line"/>
      <point x="1013" y="637" type="line"/>
      <point x="1446" y="938" type="line"/>
      <point x="1492" y="1172" type="line"/>
      <point x="1190" y="1460" type="line"/>
      <point x="492" y="1460" type="line"/>
      <point x="472" y="1360" type="line"/>
      <point x="1121" y="1360" type="line"/>
      <point x="1358" y="1133" type="line"/>
      <point x="1329" y="983" type="line"/>
      <point x="970" y="737" type="line"/>
      <point x="351" y="737" type="line"/>
    </contour>
    <contour>
      <point x="166" y="0" type="line"/>
      <point x="292" y="0" type="line"/>
      <point x="576" y="1460" type="line"/>
      <point x="450" y="1460" type="line"/>
    </contour>
    <contour>
      <point x="1128" y="0" type="line"/>
      <point x="1254" y="0" type="line"/>
      <point x="1306" y="266" type="line"/>
      <point x="1008" y="697" type="line"/>
      <point x="857" y="697" type="line"/>
      <point x="1174" y="238" type="line"/>
    </contour>
    <contour>
      <point x="514" y="-527" type="line"/>
      <point x="667" y="-527" type="line"/>
      <point x="677" y="-471" type="line"/>
      <point x="450" y="-707" type="line"/>
      <point x="517" y="-747" type="line"/>
      <point x="729" y="-527" type="line"/>
      <point x="770" y="-312" type="line"/>
      <point x="555" y="-312" type="line"/>
    </contour>
  </outline>
</glyph>
<glyph name="Scedilla.alt5" format="2">
  <advance width="1555"/>
  <outline>
    <contour>
      <point x="172" y="0" type="line"/>
      <point x="938" y="0" type="line"/>
      <point x="1247" y="269" type="line"/>
      <point x="1287" y="472" type="line"/>
      <point x="474" y="1039" type="line"/>
      <point x="491" y="1129" type="line"/>
      <point x="760" y="1362" type="line"/>
      <point x="1430" y="1362" type="line"/>
      <point x="1429" y="1460" type="line"/>
      <point x="703" y="1460" type="line"/>
      <point x="394" y="1191" type="line"/>
      <point x="354" y="988" type="line"/>
      <point x="1168" y="421" type="line"/>
      <point x="1150" y="331" type="line"/>
      <point x="882" y="98" type="line"/>
      <point x="171" y="98" type="line"/>
    </contour>
    <contour>
      <point x="423" y="-565" type="line"/>
      <point x="667" y="-565" type="line"/>
      <point x="885" y="-455" type="line"/>
      <point x="919" y="-279" type="line"/>
      <point x="743" y="-169" type="line"/>
      <point x="665" y="-169" type="line"/>
      <point x="680" y="-191" type="line"/>
      <point x="726" y="48" type="line"/>
      <point x="632" y="48" type="line"/>
      <point x="573" y="-259" type="line"/>
      <point x="699" y="-259" type="line"/>
      <point x="821" y="-329" type="line"/>
      <point x="806" y="-405" type="line"/>
      <point x="657" y="-475" type="line"/>
      <point x="441" y="-475" type="line"/>
    </contour>
  </outline>
</glyph>
<glyph name="Schwa.alt5" format="2">
  <advance width="1555"/>
  <outline>
    <contour>
      <point x="253" y="0" type="line"/>
      <point x="845" y="0" type="line"/>
      <point x="1390" y="540" type="line"/>
      <point x="1466" y="930" type="line"/>
      <point x="1095" y="1460" type="line"/>
      <point x="422" y="1460" type="line"/>
      <point x="380" y="1350" type="line"/>
      <point x="1007" y="1350" type="line"/>
      <point x="1334" y="900" type="line"/>
      <point x="1270" y="570" type="line"/>
      <point x="800" y="110" type="line"/>
      <point x="336" y="110" type="line"/>
      <point x="229" y="263" type="line"/>
      <point x="284" y="546" type="line"/>
      <point x="451" y="699" type="line"/>
      <point x="1365" y="699" type="line"/>
      <point x="1385" y="803" type="line"/>
      <point x="409" y="803" type="line"/>
      <point x="182" y="595" type="line"/>
      <point x="106" y="208" type="line"/>
    </contour>
  </outline>
</glyph>
<glyph name="Scircumflex.alt1" format="2">
  <advance width="1555"/>
  <outline>
    <contour>
      <point x="172" y="0" type="line"/>
      <point x="938" y="0" type="line"/>
      <point x="1247" y="269" type="line"/>
      <point x="1287" y="472" type="line"/>
      <point x="474" y="1039" type="line"/>
      <point x="491" y="1129" type="line"/>
      <point x="760" y="1362" type="line"/>
      <point x="1430" y="1362" type="line"/>
      <point x="1429" y="1460" type="line"/>
      <point x="703" y="1460" type="line"/>
      <point x="394" y="1191" type="line"/>
      <point x="354" y="988" type="line"/>
      <point x="1168" y="421" type="line"/>
      <point x="1150" y="331" type="line"/>
      <point x="882" y="98" type="line"/>
      <point x="171" y="98" type="line"/>
    </contour>
    <contour>
      <point x="609" y="1650" type="line"/>
      <point x="756" y="1650" type="line"/>
      <point x="1071" y="1859" type="line"/>
      <point x="1009" y="1859" type="line"/>
      <point x="1245" y="1650" type="line"/>
      <point x="1392" y="1650" type="line"/>
      <point x="1123" y="1883" type="line"/>
      <point x="967" y="1883" type="line"/>
    </contour>
  </outline>
</glyph>
<glyph name="Scommaaccent.alt5" format="2">
  <advance width="1555"/>
  <outline>
    <contour>
      <point x="172" y="0" type="line"/>
      <point x="938" y="0" type="line"/>
      <point x="1247" y="269" type="line"/>
      <point x="1287" y="472" type="line"/>
      <point x="474" y="1039" type="line"/>
      <point x="491" y="1129" type="line"/>
      <point x="760" y="1362" type="line"/>
      <point x="1430" y="1362" type="line"/>
      <point x="1429" y="1460" type="line"/>
      <point x="703" y="1460" type="line"/>
      <point x="394" y="1191" type="line"/>
      <point x="354" y="988" type="line"/>
      <point x="1168" y="421" type="line"/>
      <point x="1150" y="331" type="line"/>
      <point x="882" y="98" type="line"/>
      <point x="171" y="98" type="line"/>
    </contour>
    <contour>
      <point x="485" y="-527" type="line"/>
      <point x="638" y="-527" type="line"/>
      <point x="648" y="-471" type="line"/>
      <point x="421" y="-707" type="line"/>
      <point x="488" y="-747" type="line"/>
      <point x="700" y="-527" type="line"/>
      <point x="741" y="-312" type="line"/>
      <point x="526" y="-312" type="line"/>
    </contour>
  </outline>
</glyph>
<glyph name="T.alt4" format="2">
  <advance width="1555"/>
  <outline>
    <contour>
      <point x="607" y="0" type="line"/>
      <point x="733" y="0" type="line"/>
      <point x="1017" y="1460" type="line"/>
      <point x="891" y="1460" type="line"/>
    </contour>
    <contour>
      <point x="339" y="1350" type="line"/>
      <point x="1545" y="1350" type="line"/>
      <point x="1552" y="1460" type="line"/>
      <point x="376" y="1460" type="line"/>
    </contour>
  </outline>
</glyph>
<glyph name="Tbar.alt1" format="2">
  <advance width="1555"/>
  <outline>
    <contour>
      <point x="361" y="704" type="line"/>
      <point x="1274" y="704" type="line"/>
      <point x="1295" y="814" type="line"/>
      <point x="382" y="814" type="line"/>
    </contour>
    <contour>
      <point x="607" y="0" type="line"/>
      <point x="733" y="0" type="line"/>
      <point x="1017" y="1460" type="line"/>
      <point x="891" y="1460" type="line"/>
    </contour>
    <contour>
      <point x="339" y="1350" type="line"/>
      <point x="1545" y="1350" type="line"/>
      <point x="1552" y="1460" type="line"/>
      <point x="376" y="1460" type="line"/>
    </contour>
  </outline>
</glyph>
<glyph name="Tcaron.alt5" format="2">
  <advance width="1555"/>
  <outline>
    <contour>
      <point x="607" y="0" type="line"/>
      <point x="733" y="0" type="line"/>
      <point x="1017" y="1460" type="line"/>
      <point x="891" y="1460" type="line"/>
    </contour>
    <contour>
      <point x="339" y="1350" type="line"/>
      <point x="1545" y="1350" type="line"/>
      <point x="1552" y="1460" type="line"/>
      <point x="376" y="1460" type="line"/>
    </contour>
    <contour>
      <point x="655" y="1883" type="line"/>
      <point x="802" y="1883" type="line"/>
      <point x="1036" y="1674" type="line"/>
      <point x="974" y="1674" type="line"/>
      <point x="1291" y="1883" type="line"/>
      <point x="1438" y="1883" type="line"/>
      <point x="1079" y="1650" type="line"/>
      <point x="923" y="1650" type="line"/>
    </contour>
  </outline>
</glyph>
<glyph name="Tcommaaccent.alt1" format="2">
  <advance width="1555"/>
  <outline>
    <contour>
      <point x="607" y="0" type="line"/>
      <point x="733" y="0" type="line"/>
      <point x="1017" y="1460" type="line"/>
      <point x="891" y="1460" type="line"/>
    </contour>
    <contour>
      <point x="339" y="1350" type="line"/>
      <point x="1545" y="1350" type="line"/>
      <point x="1552" y="1460" type="line"/>
      <point x="376" y="1460" type="line"/>
    </contour>
    <contour>
      <point x="478" y="-527" type="line"/>
      <point x="631" y="-527" type="line"/>
      <point x="641" y="-471" type="line"/>
      <point x="414" y="-707" type="line"/>
      <point x="481" y="-747" type="line"/>
      <point x="693" y="-527" type="line"/>
      <point x="734" y="-312" type="line"/>
      <point x="519" y="-312" type="line"/>
    </contour>
  </outline>
</glyph>
<glyph name="Thorn.alt1" format="2">
  <advance width="1555"/>
  <outline>
    <contour>
      <point x="115" y="0" type="line"/>
      <point x="241" y="0" type="line"/>
      <point x="525" y="1460" type="line"/>
      <point x="399" y="1460" type="line"/>
    </contour>
    <contour>
      <point x="243" y="313" type="line"/>
      <point x="1001" y="313" type="line"/>
      <point x="1414" y="640" type="line"/>
      <point x="1470" y="924" type="line"/>
      <point x="1174" y="1206" type="line"/>
      <point x="416" y="1206" type="line"/>
      <point x="397" y="1106" type="line"/>
      <point x="1096" y="1106" type="line"/>
      <point x="1336" y="885" type="line"/>
      <point x="1295" y="675" type="line"/>
      <point x="961" y="413" type="line"/>
      <point x="262" y="413" type="line"/>
    </contour>
  </outline>
</glyph>
<glyph name="U.alt4" format="2">
  <advance width="1555"/>
  <outline>
    <contour>
      <point x="347" y="0" type="line"/>
      <point x="1023" y="0" type="line"/>
      <point x="1272" y="244" type="line"/>
      <point x="1509" y="1460" type="line"/>
      <point x="1383" y="1460" type="line"/>
      <point x="1156" y="295" type="line"/>
      <point x="971" y="110" type="line"/>
      <point x="433" y="110" type="line"/>
      <point x="319" y="289" type="line"/>
      <point x="547" y="1460" type="line"/>
      <point x="421" y="1460" type="line"/>
      <point x="187" y="258" type="line"/>
    </contour>
  </outline>
</glyph>
<glyph name="Uhungarumlaut.alt1" format="2">
  <advance width="1555"/>
  <outline>
    <contour>
      <point x="347" y="0" type="line"/>
      <point x="1023" y="0" type="line"/>
      <point x="1272" y="244" type="line"/>
      <point x="1509" y="1460" type="line"/>
      <point x="1383" y="1460" type="line"/>
      <point x="1156" y="295" type="line"/>
      <point x="971" y="110" type="line"/>
      <point x="433" y="110" type="line"/>
      <point x="319" y="289" type="line"/>
      <point x="547" y="1460" type="line"/>
      <point x="421" y="1460" type="line"/>
      <point x="187" y="258" type="line"/>
    </contour>
    <contour>
      <point x="1184" y="1666" type="line"/>
      <point x="1289" y="1666" type="line"/>
      <point x="1560" y="1898" type="line"/>
      <point x="1425" y="1898" type="line"/>
    </contour>
    <contour>
      <point x="692" y="1666" type="line"/>
      <point x="798" y="1666" type="line"/>
      <point x="1068" y="1898" type="line"/>
      <point x="934" y="1898" type="line"/>
    </contour>
  </outline>
</glyph>
<glyph name="Uogonek.alt1" format="2">
  <advance width="1555"/>
  <outline>
    <contour>
      <point x="347" y="0" type="line"/>
      <point x="1023" y="0" type="line"/>
      <point x="1272" y="244" type="line"/>
      <point x="1509" y="1460" type="line"/>
      <point x="1383" y="1460" type="line"/>
      <point x="1156" y="295" type="line"/>
      <point x="971" y="110" type="line"/>
      <point x="433" y="110" type="line"/>
      <point x="319" y="289" type="line"/>
      <point x="547" y="1460" type="line"/>
      <point x="421" y="1460" type="line"/>
      <point x="187" y="258" type="line"/>
    </contour>
    <contour>
      <point x="516" y="-132" type="line"/>
      <point x="482" y="-310" type="line"/>
      <point x="612" y="-400" type="line"/>
      <point x="734" y="-400" type="line"/>
      <point x="752" y="-310" type="line"/>
      <point x="661" y="-310" type="line"/>
      <point x="593" y="-262" type="line"/>
      <point x="613" y="-161" type="line"/>
      <point x="812" y="0" type="line"/>
      <point x="738" y="37" type="line"/>
    </contour>
  </outline>
</glyph>
<glyph name="Uring.alt5" format="2">
  <advance width="1555"/>
  <outline>
    <contour>
      <point x="347" y="0" type="line"/>
      <point x="1023" y="0" type="line"/>
      <point x="1272" y="244" type="line"/>
      <point x="1509" y="1460" type="line"/>
      <point x="1383" y="1460" type="line"/>
      <point x="1156" y="295" type="line"/>
      <point x="971" y="110" type="line"/>
      <point x="433" y="110" type="line"/>
      <point x="319" y="289" type="line"/>
      <point x="547" y="1460" type="line"/>
      <point x="421" y="1460" type="line"/>
      <point x="187" y="258" type="line"/>
    </contour>
    <contour>
      <point x="876" y="1453" type="line"/>
      <point x="1050" y="1453" type="line"/>
      <point x="1221" y="1610" type="line"/>
      <point x="1247" y="1744" type="line"/>
      <point x="1137" y="1900" type="line"/>
      <point x="963" y="1900" type="line"/>
      <point x="793" y="1743" type="line"/>
      <point x="767" y="1609" type="line"/>
    </contour>
    <contour>
      <point x="868" y="1647" type="line"/>
      <point x="880" y="1706" type="line"/>
      <point x="993" y="1812" type="line"/>
      <point x="1073" y="1812" type="line"/>
      <point x="1146" y="1706" type="line"/>
      <point x="1134" y="1647" type="line"/>
      <point x="1021" y="1541" type="line"/>
      <point x="941" y="1541" type="line"/>
    </contour>
  </outline>
</glyph>
<glyph name="Utilde.alt1" format="2">
  <advance width="1555"/>
  <outline>
    <contour>
      <point x="347" y="0" type="line"/>
      <point x="1023" y="0" type="line"/>
      <point x="1272" y="244" type="line"/>
      <point x="1509" y="1460" type="line"/>
      <point x="1383" y="1460" type="line"/>
      <point x="1156" y="295" type="line"/>
      <point x="971" y="110" type="line"/>
      <point x="433" y="110" type="line"/>
      <point x="319" y="289" type="line"/>
      <point x="547" y="1460" type="line"/>
      <point x="421" y="1460" type="line"/>
      <point x="187" y="258" type="line"/>
    </contour>
    <contour>
      <point x="951" y="1893" type="line"/>
      <point x="751" y="1893" type="line"/>
      <point x="586" y="1765" type="line"/>
      <point x="562" y="1643" type="line"/>
      <point x="652" y="1643" type="line"/>
      <point x="670" y="1734" type="line"/>
      <point x="772" y="1805" type="line"/>
      <point x="893" y="1805" type="line"/>
      <point x="1097" y="1643" type="line"/>
      <point x="1297" y="1643" type="line"/>
      <point x="1462" y="1771" type="line"/>
      <point x="1486" y="1893" type="line"/>
      <point x="1396" y="1893" type="line"/>
      <point x="1378" y="1802" type="line"/>
      <point x="1276" y="1731" type="line"/>
      <point x="1155" y="1731" type="line"/>
    </contour>
  </outline>
</glyph>
<glyph name="Wacute.alt1" format="2">
  <advance width="1555"/>
  <outline>
    <contour>
      <point x="367" y="0" type="line"/>
      <point x="486" y="0" type="line"/>
      <point x="849" y="714" type="line"/>
      <point x="792" y="714" type="line"/>
      <point x="874" y="0" type="line"/>
      <point x="993" y="0" type="line"/>
      <point x="1391" y="739" type="line"/>
      <point x="1531" y="1460" type="line"/>
      <point x="1402" y="1460" type="line"/>
      <point x="1267" y="767" type="line"/>
      <point x="913" y="80" type="line"/>
      <point x="967" y="80" type="line"/>
      <point x="890" y="771" type="line"/>
      <point x="937" y="1013" type="line"/>
      <point x="811" y="1013" type="line"/>
      <point x="763" y="767" type="line"/>
      <point x="419" y="80" type="line"/>
      <point x="473" y="80" type="line"/>
      <point x="386" y="771" type="line"/>
      <point x="520" y="1460" type="line"/>
      <point x="397" y="1460" type="line"/>
      <point x="257" y="739" type="line"/>
    </contour>
    <contour>
      <point x="1050" y="1652" type="line"/>
      <point x="931" y="1652" type="line"/>
      <point x="1248" y="1884" type="line"/>
      <point x="1401" y="1884" type="line"/>
    </contour>
  </outline>
</glyph>
<glyph name="Wdieresis.alt5" format="2">
  <advance width="1555"/>
  <outline>
    <contour>
      <point x="367" y="0" type="line"/>
      <point x="486" y="0" type="line"/>
      <point x="849" y="714" type="line"/>
      <point x="792" y="714" type="line"/>
      <point x="874" y="0" type="line"/>
      <point x="993" y="0" type="line"/>
      <point x="1391" y="739" type="line"/>
      <point x="1531" y="1460" type="line"/>
      <point x="1402" y="1460" type="line"/>
      <point x="1267" y="767" type="line"/>
      <point x="913" y="80" type="line"/>
      <point x="967" y="80" type="line"/>
      <point x="890" y="771" type="line"/>
      <point x="937" y="1013" type="line"/>
      <point x="811" y="1013" type="line"/>
      <point x="763" y="767" type="line"/>
      <point x="419" y="80" type="line"/>
      <point x="473" y="80" type="line"/>
      <point x="386" y="771" type="line"/>
      <point x="520" y="1460" type="line"/>
      <point x="397" y="1460" type="line"/>
      <point x="257" y="739" type="line"/>
    </contour>
    <contour>
      <point x="690" y="1626" type="line"/>
      <point x="852" y="1756" type="line"/>
      <point x="741" y="1886" type="line"/>
      <point x="578" y="1756" type="line"/>
    </contour>
    <contour>
      <point x="1302" y="1626" type="line"/>
      <point x="1464" y="1756" type="line"/>
      <point x="1353" y="1886" type="line"/>
      <point x="1190" y="1756" type="line"/>
    </contour>
  </outline>
</glyph>
<glyph name="X.alt4" format="2">
  <advance width="1555"/>
  <outline>
    <contour>
      <point x="1116" y="0" type="line"/>
      <point x="1232" y="0" type="line"/>
      <point x="1283" y="263" type="line"/>
      <point x="486" y="1238" type="line"/>
      <point x="529" y="1460" type="line"/>
      <point x="413" y="1460" type="line"/>
      <point x="362" y="1197" type="line"/>
      <point x="1160" y="227" type="line"/>
    </contour>
    <contour>
      <point x="129" y="0" type="line"/>
      <point x="259" y="0" type="line"/>
      <point x="304" y="229" type="line"/>
      <point x="855" y="703" type="line"/>
      <point x="791" y="793" type="line"/>
      <point x="180" y="263" type="line"/>
    </contour>
    <contour>
      <point x="865" y="676" type="line"/>
      <point x="1465" y="1197" type="line"/>
      <point x="1516" y="1460" type="line"/>
      <point x="1386" y="1460" type="line"/>
      <point x="1341" y="1228" type="line"/>
      <point x="802" y="766" type="line"/>
    </contour>
  </outline>
</glyph>
<glyph name="X.alt5" format="2">
  <advance width="1555"/>
  <outline>
    <contour>
      <point x="1116" y="0" type="line"/>
      <point x="1232" y="0" type="line"/>
      <point x="1283" y="263" type="line"/>
      <point x="486" y="1238" type="line"/>
      <point x="529" y="1460" type="line"/>
      <point x="413" y="1460" type="line"/>
      <point x="362" y="1197" type="line"/>
      <point x="1160" y="227" type="line"/>
    </contour>
    <contour>
      <point x="129" y="0" type="line"/>
      <point x="259" y="0" type="line"/>
      <point x="304" y="229" type="line"/>
      <point x="855" y="703" type="line"/>
      <point x="791" y="793" type="line"/>
      <point x="180" y="263" type="line"/>
    </contour>
    <contour>
      <point x="865" y="676" type="line"/>
      <point x="1465" y="1197" type="line"/>
      <point x="1516" y="1460" type="line"/>
      <point x="1386" y="1460" type="line"/>
      <point x="1341" y="1228" type="line"/>
      <point x="802" y="766" type="line"/>
    </contour>
  </outline>
</glyph>
<glyph name="Yacute.alt1" format="2">
  <advance width="1555"/>
  <outline>
    <contour>
      <point x="728" y="564" type="line"/>
      <point x="854" y="564" type="line"/>
      <point x="1442" y="1079" type="line"/>
      <point x="1516" y="1460" type="line"/>
      <point x="1384" y="1460" type="line"/>
      <point x="1317" y="1115" type="line"/>
      <point x="782" y="654" type="line"/>
      <point x="822" y="654" type="line"/>
      <point x="467" y="1119" type="line"/>
      <point x="533" y="1460" type="line"/>
      <point x="413" y="1460" type="line"/>
      <point x="339" y="1079" type="line"/>
    </contour>
    <contour>
      <point x="618" y="0" type="line"/>
      <point x="744" y="0" type="line"/>
      <point x="869" y="644" type="line"/>
      <point x="743" y="644" type="line"/>
    </contour>
    <contour>
      <point x="1051" y="1652" type="line"/>
      <point x="932" y="1652" type="line"/>
      <point x="1249" y="1884" type="line"/>
      <point x="1402" y="1884" type="line"/>
    </contour>
  </outline>
</glyph>
<glyph name="Ycircumflex.alt1" format="2">
  <advance width="1555"/>
  <outline>
    <contour>
      <point x="728" y="564" type="line"/>
      <point x="854" y="564" type="line"/>
      <point x="1442" y="1079" type="line"/>
      <point x="1516" y="1460" type="line"/>
      <point x="1384" y="1460" type="line"/>
      <point x="1317" y="1115" type="line"/>
      <point x="782" y="654" type="line"/>
      <point x="822" y="654" type="line"/>
      <point x="467" y="1119" type="line"/>
      <point x="533" y="1460" type="line"/>
      <point x="413" y="1460" type="line"/>
      <point x="339" y="1079" type="line"/>
    </contour>
    <contour>
      <point x="618" y="0" type="line"/>
      <point x="744" y="0" type="line"/>
      <point x="869" y="644" type="line"/>
      <point x="743" y="644" type="line"/>
    </contour>
    <contour>
      <point x="610" y="1650" type="line"/>
      <point x="757" y="1650" type="line"/>
      <point x="1072" y="1859" type="line"/>
      <point x="1010" y="1859" type="line"/>
      <point x="1246" y="1650" type="line"/>
      <point x="1393" y="1650" type="line"/>
      <point x="1124" y="1883" type="line"/>
      <point x="968" y="1883" type="line"/>
    </contour>
  </outline>
</glyph>
<glyph name="Ydieresis.alt1" format="2">
  <advance width="1555"/>
  <outline>
    <contour>
      <point x="728" y="564" type="line"/>
      <point x="854" y="564" type="line"/>
      <point x="1442" y="1079" type="line"/>
      <point x="1516" y="1460" type="line"/>
      <point x="1384" y="1460" type="line"/>
      <point x="1317" y="1115" type="line"/>
      <point x="782" y="654" type="line"/>
      <point x="822" y="654" type="line"/>
      <point x="467" y="1119" type="line"/>
      <point x="533" y="1460" type="line"/>
      <point x="413" y="1460" type="line"/>
      <point x="339" y="1079" type="line"/>
    </contour>
    <contour>
      <point x="618" y="0" type="line"/>
      <point x="744" y="0" type="line"/>
      <point x="869" y="644" type="line"/>
      <point x="743" y="644" type="line"/>
    </contour>
    <contour>
      <point x="691" y="1626" type="line"/>
      <point x="853" y="1756" type="line"/>
      <point x="742" y="1886" type="line"/>
      <point x="579" y="1756" type="line"/>
    </contour>
    <contour>
      <point x="1303" y="1626" type="line"/>
      <point x="1465" y="1756" type="line"/>
      <point x="1354" y="1886" type="line"/>
      <point x="1191" y="1756" type="line"/>
    </contour>
  </outline>
</glyph>
<glyph name="Ygrave.alt5" format="2">
  <advance width="1555"/>
  <outline>
    <contour>
      <point x="728" y="564" type="line"/>
      <point x="854" y="564" type="line"/>
      <point x="1442" y="1079" type="line"/>
      <point x="1516" y="1460" type="line"/>
      <point x="1384" y="1460" type="line"/>
      <point x="1317" y="1115" type="line"/>
      <point x="782" y="654" type="line"/>
      <point x="822" y="654" type="line"/>
      <point x="467" y="1119" type="line"/>
      <point x="533" y="1460" type="line"/>
      <point x="413" y="1460" type="line"/>
      <point x="339" y="1079" type="line"/>
    </contour>
    <contour>
      <point x="618" y="0" type="line"/>
      <point x="744" y="0" type="line"/>
      <point x="869" y="644" type="line"/>
      <point x="743" y="644" type="line"/>
    </contour>
    <contour>
      <point x="952" y="1652" type="line"/>
      <point x="1071" y="1652" type="line"/>
      <point x="844" y="1884" type="line"/>
      <point x="691" y="1884" type="line"/>
    </contour>
  </outline>
</glyph>
<glyph name="Z.alt" format="2">
  <advance width="1555"/>
  <outline>
    <contour>
      <point x="166" y="0" type="line"/>
      <point x="1280" y="0" type="line"/>
      <point x="1301" y="106" type="line"/>
      <point x="255" y="106" type="line"/>
      <point x="269" y="56" type="line"/>
      <point x="1500" y="1374" type="line"/>
      <point x="1477" y="1460" type="line"/>
      <point x="411" y="1459" type="line"/>
      <point x="390" y="1353" type="line"/>
      <point x="1372" y="1353" type="line"/>
      <point x="1372" y="1393" type="line"/>
      <point x="143" y="90" type="line"/>
    </contour>
  </outline>
</glyph>
<glyph name="Zacute.alt1" format="2">
  <advance width="1555"/>
  <outline>
    <contour>
      <point x="166" y="0" type="line"/>
      <point x="1280" y="0" type="line"/>
      <point x="1301" y="106" type="line"/>
      <point x="255" y="106" type="line"/>
      <point x="269" y="56" type="line"/>
      <point x="1500" y="1374" type="line"/>
      <point x="1477" y="1460" type="line"/>
      <point x="411" y="1459" type="line"/>
      <point x="390" y="1353" type="line"/>
      <point x="1372" y="1353" type="line"/>
      <point x="1372" y="1393" type="line"/>
      <point x="143" y="90" type="line"/>
    </contour>
    <contour>
      <point x="1066" y="1652" type="line"/>
      <point x="947" y="1652" type="line"/>
      <point x="1264" y="1884" type="line"/>
      <point x="1417" y="1884" type="line"/>
    </contour>
  </outline>
</glyph>
<glyph name="abreve.alt1" format="2">
  <advance width="1555"/>
  <outline>
    <contour>
      <point x="1147" y="0" type="line"/>
      <point x="1223" y="0" type="line"/>
      <point x="1379" y="802" type="line"/>
      <point x="1211" y="1000" type="line"/>
      <point x="419" y="1000" type="line"/>
      <point x="380" y="902" type="line"/>
      <point x="1137" y="902" type="line"/>
      <point x="1257" y="772" type="line"/>
      <point x="1141" y="176" type="line"/>
    </contour>
    <contour>
      <point x="444" y="-23" type="line"/>
      <point x="1186" y="154" type="line"/>
      <point x="1202" y="236" type="line"/>
      <point x="494" y="83" type="line"/>
      <point x="233" y="260" type="line"/>
      <point x="251" y="355" type="line"/>
      <point x="545" y="486" type="line"/>
      <point x="1250" y="486" type="line"/>
      <point x="1270" y="586" type="line"/>
      <point x="526" y="586" type="line"/>
      <point x="153" y="415" type="line"/>
      <point x="114" y="217" type="line"/>
    </contour>
    <contour>
      <point x="741" y="1267" type="line"/>
      <point x="1095" y="1267" type="line"/>
      <point x="1284" y="1414" type="line"/>
      <point x="1319" y="1597" type="line"/>
      <point x="1229" y="1597" type="line"/>
      <point x="1201" y="1451" type="line"/>
      <point x="1070" y="1355" type="line"/>
      <point x="800" y="1355" type="line"/>
      <point x="707" y="1451" type="line"/>
      <point x="735" y="1597" type="line"/>
      <point x="645" y="1597" type="line"/>
      <point x="610" y="1413" type="line"/>
    </contour>
  </outline>
</glyph>
<glyph name="acircumflex.alt5" format="2">
  <advance width="1555"/>
  <outline>
    <contour>
      <point x="1147" y="0" type="line"/>
      <point x="1223" y="0" type="line"/>
      <point x="1379" y="802" type="line"/>
      <point x="1211" y="1000" type="line"/>
      <point x="419" y="1000" type="line"/>
      <point x="380" y="902" type="line"/>
      <point x="1137" y="902" type="line"/>
      <point x="1257" y="772" type="line"/>
      <point x="1141" y="176" type="line"/>
    </contour>
    <contour>
      <point x="444" y="-23" type="line"/>
      <point x="1186" y="154" type="line"/>
      <point x="1202" y="236" type="line"/>
      <point x="494" y="83" type="line"/>
      <point x="233" y="260" type="line"/>
      <point x="251" y="355" type="line"/>
      <point x="545" y="486" type="line"/>
      <point x="1250" y="486" type="line"/>
      <point x="1270" y="586" type="line"/>
      <point x="526" y="586" type="line"/>
      <point x="153" y="415" type="line"/>
      <point x="114" y="217" type="line"/>
    </contour>
    <contour>
      <point x="532" y="1274" type="line"/>
      <point x="669" y="1274" type="line"/>
      <point x="1010" y="1562" type="line"/>
      <point x="948" y="1562" type="line"/>
      <point x="1178" y="1274" type="line"/>
      <point x="1315" y="1274" type="line"/>
      <point x="1043" y="1597" type="line"/>
      <point x="927" y="1597" type="line"/>
    </contour>
  </outline>
</glyph>
<glyph name="acute.alt5" format="2">
  <advance width="1555"/>
  <outline>
    <contour>
      <point x="985" y="1274" type="line"/>
      <point x="866" y="1274" type="line"/>
      <point x="1200" y="1597" type="line"/>
      <point x="1353" y="1597" type="line"/>
    </contour>
  </outline>
</glyph>
<glyph name="anticlockwiseOpenCircleArrow.alt1" format="2">
  <advance width="1555"/>
  <outline>
    <contour>
      <point x="908" y="1355" type="line"/>
      <point x="796" y="785" type="line"/>
      <point x="911" y="785" type="line"/>
      <point x="1004" y="1280" type="line"/>
      <point x="962" y="1245" type="line"/>
      <point x="1456" y="1242" type="line"/>
      <point x="1479" y="1357" type="line"/>
    </contour>
    <contour>
      <point x="900" y="1114" type="line"/>
      <point x="1067" y="1183" type="line"/>
      <point x="1167" y="1337" type="line"/>
      <point x="998" y="1269" type="line"/>
    </contour>
    <contour>
      <point x="889" y="1188" type="line"/>
      <point x="1114" y="1127"/>
      <point x="1317" y="966"/>
      <point x="1256" y="651" type="curve" smooth="yes"/>
      <point x="1205" y="391"/>
      <point x="995" y="190"/>
      <point x="715" y="190" type="curve" smooth="yes"/>
      <point x="434" y="190"/>
      <point x="306" y="391"/>
      <point x="357" y="651" type="curve" smooth="yes"/>
      <point x="382" y="783"/>
      <point x="444" y="881"/>
      <point x="521" y="964" type="curve"/>
      <point x="435" y="1028" type="line"/>
      <point x="341" y="932"/>
      <point x="266" y="810"/>
      <point x="236" y="651" type="curve" smooth="yes"/>
      <point x="173" y="331"/>
      <point x="342" y="78"/>
      <point x="703" y="78" type="curve" smooth="yes"/>
      <point x="1063" y="78"/>
      <point x="1314" y="331"/>
      <point x="1377" y="651" type="curve" smooth="yes"/>
      <point x="1449" y="1026"/>
      <point x="1214" y="1226"/>
      <point x="937" y="1286" type="curve"/>
    </contour>
  </outline>
</glyph>
<glyph name="aring.alt5" format="2">
  <advance width="1555"/>
  <outline>
    <contour>
      <point x="1147" y="0" type="line"/>
      <point x="1223" y="0" type="line"/>
      <point x="1379" y="802" type="line"/>
      <point x="1211" y="1000" type="line"/>
      <point x="419" y="1000" type="line"/>
      <point x="380" y="902" type="line"/>
      <point x="1137" y="902" type="line"/>
      <point x="1257" y="772" type="line"/>
      <point x="1141" y="176" type="line"/>
    </contour>
    <contour>
      <point x="444" y="-23" type="line"/>
      <point x="1186" y="154" type="line"/>
      <point x="1202" y="236" type="line"/>
      <point x="494" y="83" type="line"/>
      <point x="233" y="260" type="line"/>
      <point x="251" y="355" type="line"/>
      <point x="545" y="486" type="line"/>
      <point x="1250" y="486" type="line"/>
      <point x="1270" y="586" type="line"/>
      <point x="526" y="586" type="line"/>
      <point x="153" y="415" type="line"/>
      <point x="114" y="217" type="line"/>
    </contour>
    <contour>
      <point x="821" y="1215" type="line"/>
      <point x="995" y="1215" type="line"/>
      <point x="1166" y="1372" type="line"/>
      <point x="1192" y="1506" type="line"/>
      <point x="1082" y="1662" type="line"/>
      <point x="908" y="1662" type="line"/>
      <point x="738" y="1505" type="line"/>
      <point x="711" y="1371" type="line"/>
    </contour>
    <contour>
      <point x="813" y="1409" type="line"/>
      <point x="824" y="1468" type="line"/>
      <point x="938" y="1574" type="line"/>
      <point x="1018" y="1574" type="line"/>
      <point x="1090" y="1468" type="line"/>
      <point x="1079" y="1409" type="line"/>
      <point x="965" y="1303" type="line"/>
      <point x="885" y="1303" type="line"/>
    </contour>
  </outline>
</glyph>
<glyph name="asciicircum.alt1" format="2">
  <advance width="1555"/>
  <outline>
    <contour>
      <point x="246" y="762" type="line"/>
      <point x="333" y="699" type="line"/>
      <point x="953" y="1393" type="line"/>
      <point x="967" y="1393" type="line"/>
      <point x="1317" y="699" type="line"/>
      <point x="1410" y="762" type="line"/>
      <point x="1023" y="1530" type="line"/>
      <point x="932" y="1530" type="line"/>
    </contour>
  </outline>
</glyph>
<glyph name="at.alt1" format="2">
  <advance width="1555"/>
  <outline>
    <contour>
      <point x="1140" y="181" type="line"/>
      <point x="1145" y="181" type="line"/>
      <point x="1123" y="65"/>
      <point x="1123" y="-24"/>
      <point x="1239" y="-24" type="curve" smooth="yes"/>
      <point x="1269" y="-24"/>
      <point x="1301" y="-18"/>
      <point x="1328" y="-6" type="curve"/>
      <point x="1346" y="90" type="line"/>
      <point x="1262" y="68"/>
      <point x="1248" y="86"/>
      <point x="1270" y="199" type="curve" smooth="yes"/>
      <point x="1391" y="822" type="line" smooth="yes"/>
      <point x="1483" y="1294"/>
      <point x="1268" y="1434"/>
      <point x="983" y="1434" type="curve" smooth="yes"/>
      <point x="642" y="1434"/>
      <point x="373" y="1243"/>
      <point x="270" y="714" type="curve" smooth="yes"/>
      <point x="197" y="340" type="line" smooth="yes"/>
      <point x="82" y="-252"/>
      <point x="330" y="-424"/>
      <point x="704" y="-424" type="curve" smooth="yes"/>
      <point x="859" y="-424"/>
      <point x="1024" y="-397"/>
      <point x="1157" y="-342" type="curve"/>
      <point x="1179" y="-219" type="line"/>
      <point x="1061" y="-266"/>
      <point x="878" y="-303"/>
      <point x="721" y="-303" type="curve" smooth="yes"/>
      <point x="430" y="-303"/>
      <point x="223" y="-175"/>
      <point x="320" y="325" type="curve" smooth="yes"/>
      <point x="396" y="715" type="line" smooth="yes"/>
      <point x="483" y="1161"/>
      <point x="708" y="1313"/>
      <point x="975" y="1313" type="curve" smooth="yes"/>
      <point x="1187" y="1313"/>
      <point x="1342" y="1217"/>
      <point x="1275" y="873" type="curve" smooth="yes"/>
    </contour>
    <contour>
      <point x="608" y="429" type="line" smooth="yes"/>
      <point x="544" y="98"/>
      <point x="669" y="-24"/>
      <point x="827" y="-24" type="curve" smooth="yes"/>
      <point x="938" y="-24"/>
      <point x="1030" y="31"/>
      <point x="1117" y="116" type="curve"/>
      <point x="1148" y="116" type="line"/>
      <point x="1175" y="256" type="line"/>
      <point x="1073" y="129"/>
      <point x="963" y="91"/>
      <point x="879" y="91" type="curve" smooth="yes"/>
      <point x="751" y="91"/>
      <point x="691" y="178"/>
      <point x="745" y="459" type="curve" smooth="yes"/>
      <point x="763" y="548" type="line" smooth="yes"/>
      <point x="818" y="832"/>
      <point x="917" y="910"/>
      <point x="1040" y="910" type="curve" smooth="yes"/>
      <point x="1128" y="910"/>
      <point x="1224" y="870"/>
      <point x="1269" y="742" type="curve"/>
      <point x="1297" y="884" type="line"/>
      <point x="1265" y="884" type="line"/>
      <point x="1215" y="967"/>
      <point x="1136" y="1024"/>
      <point x="1021" y="1024" type="curve" smooth="yes"/>
      <point x="870" y="1024"/>
      <point x="707" y="935"/>
      <point x="641" y="599" type="curve" smooth="yes"/>
    </contour>
  </outline>
</glyph>
<glyph name="bar.alt1" format="2">
  <advance width="1555"/>
  <outline>
    <contour>
      <point x="665" y="-400" type="line"/>
      <point x="1054" y="1602" type="line"/>
      <point x="928" y="1602" type="line"/>
      <point x="539" y="-400" type="line"/>
    </contour>
  </outline>
</glyph>
